<svg width="423" height="152" viewBox="0 0 423 152" fill="none" xmlns="http://www.w3.org/2000/svg">
<path d="M392.121 0.727447C392.121 0.727447 392.955 -4.26765 399.73 -4.50037C406.506 -4.7331 407.139 -7.68508 407.139 -7.68508L406.904 -11.2054C406.904 -11.2054 408.312 -12.5736 403.417 -12.8945C398.522 -13.2154 387.039 -8.20688 388.976 -3.49352C391.574 2.84283 392.121 0.727447 392.121 0.727447Z" fill="#8943C2"/>
<path d="M388.837 -5.18262C388.837 -5.18262 388.081 -1.88277 388.994 2.38719C389.436 4.4695 394.719 8.40506 400.421 6.1329C400.421 6.1329 401.406 6.14514 402.191 3.6525C402.976 1.15985 403.482 -0.807319 402.828 -1.22501C402.828 -1.22501 401.448 -0.0993333 399.088 -0.0515628C397.598 -0.0233903 396.589 -0.29654 394.08 -1.04127C390.027 -2.23676 388.594 -4.11574 388.837 -5.18262Z" fill="#B459FF"/>
<path d="M80.7014 19.5269C80.7014 19.5269 83.3631 17.0171 87.3607 19.8442C91.3582 22.6712 93.0147 21.2466 93.0147 21.2466L94.4166 19.119C94.4166 19.119 95.8234 18.9475 93.1482 16.6239C90.473 14.3003 81.6809 12.1641 80.7357 15.7249C79.4611 20.5056 80.7014 19.5269 80.7014 19.5269Z" fill="#8943C2"/>
<path d="M81.389 14.6982C81.389 14.6982 79.5121 16.2649 78.1739 19.1201C77.5201 20.5103 78.8399 25.0828 83.1117 26.2673C83.1117 26.2673 83.6737 26.7046 85.2127 25.6132C86.7517 24.5218 87.9063 23.6117 87.708 23.0863C87.708 23.0863 86.4224 23.1316 85.0437 22.1272C84.1744 21.4927 83.7153 20.8925 82.595 19.37C80.7866 16.903 80.7818 15.1992 81.389 14.6982Z" fill="#B459FF"/>
<path d="M94.7741 18.7464C94.7741 18.7464 95.1659 19.6981 92.4723 22.012C91.2357 23.0752 89.4114 23.2368 88.0756 22.3072C87.52 21.9126 86.9964 21.4748 86.5097 20.9977C83.4635 18.058 82.1963 14.3062 83.3166 12.5387C85.5939 8.94118 87.1537 7.8596 87.9863 7.50684C87.9863 7.50684 85.3392 9.18003 87.1696 13.3373C89.2559 18.0764 93.8167 20.4772 94.7741 18.7464Z" fill="#B459FF"/>
<path d="M349.016 46.6061C349.016 46.6061 347.612 44.7148 343.966 44.4013C340.32 44.0877 338.134 45.8944 334.078 42.4316C334.078 42.4316 336.091 46.5889 340.354 47.1426C344.617 47.6962 347.343 46.1626 349.811 48.9872L349.016 46.6061Z" fill="#B459FF"/>
<path d="M149.538 81.3814C149.538 81.3814 151.972 84.9116 147.988 89.0443C144.004 93.1771 145.358 95.3488 145.358 95.3488L147.575 97.3528C147.575 97.3528 147.522 99.0137 150.689 96.3263C153.857 93.6389 157.893 83.8251 153.936 82.0968C148.628 79.7744 149.538 81.3814 149.538 81.3814Z" fill="#8943C2"/>
<path d="M155.014 83.0474C155.014 83.0474 153.533 80.5977 150.463 78.5337C148.97 77.5306 143.439 78.2459 141.308 82.9887C141.308 82.9887 140.695 83.5619 141.69 85.5401C142.684 87.5183 143.526 89.0126 144.174 88.8816C144.174 88.8816 144.351 87.3835 145.765 85.9651C146.654 85.0697 147.431 84.6423 149.393 83.6158C152.552 81.945 154.534 82.2476 155.014 83.0474Z" fill="#B459FF"/>
<path d="M147.939 97.8329C147.939 97.8329 146.766 98.117 144.566 94.5857C143.554 92.9627 143.686 90.8216 145.005 89.4411C145.561 88.866 146.16 88.3348 146.798 87.8525C150.751 84.8454 155.314 84.0431 157.163 85.655C160.925 88.934 161.9 90.9343 162.16 91.962C162.16 91.962 160.69 88.5972 155.548 89.9789C149.694 91.5565 146.105 96.4169 147.939 97.8329Z" fill="#B459FF"/>
<path d="M215.279 124.11C215.279 124.11 216.372 126.647 220.448 127.987C224.524 129.327 227.501 127.855 231.199 132.899C231.199 132.899 230.02 127.613 225.306 125.832C220.592 124.051 217.07 125.066 215.012 121.178L215.279 124.11Z" fill="#B459FF"/>
<path d="M367.23 137.14C363.406 135.437 361.598 134.151 358.735 131.099C357.872 132.312 357.44 132.92 356.578 134.135C359.441 137.188 361.249 138.474 365.073 140.176L367.23 137.14Z" fill="#FF4F5D"/>
<path d="M57.6445 14.1098C62.2885 14.8448 64.6234 15.7218 68.6172 18.2058C69.2037 16.6355 69.4963 15.8516 70.0865 14.2862C66.0926 11.8034 63.7578 10.9312 59.1138 10.1914C58.5248 11.7593 58.2286 12.5407 57.6445 14.1098Z" fill="#FF4F5D"/>
<path d="M268.03 87.2412C269.263 94.0675 269.187 97.7422 267.676 104.512L273.843 104.635C275.353 97.8647 275.435 94.19 274.198 87.3637L268.03 87.2412Z" fill="#FF4F5D"/>
<path d="M192.57 5.47656C189.733 8.66127 187.925 10.0233 184.074 11.8631C184.986 13.0758 185.442 13.6858 186.355 14.8984C190.206 13.0611 192.014 11.7027 194.851 8.51306L192.57 5.47656Z" fill="#FF4F5D"/>
<path d="M106.084 36.0527C102.515 41.0331 100.14 43.2465 94.918 46.4508L98.6315 50.4439C103.852 47.2372 106.222 45.0238 109.798 40.0434C108.312 38.4474 107.57 37.6488 106.084 36.0527Z" fill="#FF4F5D"/>
<path d="M370.973 57.07C381.429 59.6226 386.433 61.6339 394.48 66.5249L399.881 61.2713C391.828 56.3828 386.826 54.3703 376.373 51.8164L370.973 57.07Z" fill="#FF4F5D"/>
<path d="M212.363 -1.22531C213.879 -0.655735 214.606 -0.200077 215.782 0.913346C216.087 0.423391 216.24 0.178414 216.546 -0.311542C215.369 -1.42496 214.642 -1.88185 213.127 -2.4502L212.363 -1.22531Z" fill="#FFCB00"/>
<path d="M35.2891 10.6971C36.8966 11.6121 37.6362 12.2576 38.7626 13.725L39.8437 12.483C38.716 11.0131 37.9778 10.3713 36.3702 9.45508L35.2891 10.6971Z" fill="#FFCB00"/>
<path d="M80.8047 41.0055C82.4123 41.9217 83.1518 42.566 84.2782 44.0346L85.3593 42.7926C84.2329 41.3227 83.4934 40.6809 81.887 39.7646L80.8047 41.0055Z" fill="#FFCB00"/>
<path d="M276.548 38.1358C275.053 34.629 273.91 32.9644 271.172 30.3125C272.29 29.5432 272.848 29.1586 273.967 28.3906C276.702 31.0425 277.847 32.7071 279.342 36.214C278.223 36.982 277.665 37.3666 276.548 38.1358Z" fill="#FFCB00"/>
<path d="M146.414 11.8149C148.231 8.73186 148.851 6.93863 149.33 3.39258L152.338 4.43496C151.859 7.98101 151.236 9.77302 149.422 12.8573L146.414 11.8149Z" fill="#FFCB00"/>
<path d="M178.929 30.7787C176.578 34.0786 175.704 36.0384 174.817 39.9899L171.527 38.52C172.414 34.5673 173.289 32.6075 175.638 29.3076L178.929 30.7787Z" fill="#FFCB00"/>
<path d="M250.773 6.77732C248.884 5.47036 247.766 4.98898 245.52 4.5174C245.842 3.76655 246.009 3.3905 246.326 2.63965C248.573 3.11123 249.691 3.59261 251.58 4.89957C251.257 5.65042 251.096 6.02646 250.773 6.77732Z" fill="#FFCB00"/>
<path d="M327.767 -0.461018C323.926 0.842263 322.067 1.92261 319.031 4.61369L317.219 1.49268C320.254 -1.20207 322.116 -2.27998 325.955 -3.58203L327.767 -0.461018Z" fill="#FFCB00"/>
<path d="M401.161 31.661C401.347 29.1341 401.179 27.8038 400.371 25.4031L402.606 25.1201C403.415 27.5209 403.585 28.8536 403.395 31.3793L401.161 31.661Z" fill="#FFCB00"/>
<path d="M377.419 132.069C377.809 132.476 378.065 132.614 378.62 132.715C378.471 132.99 378.398 133.128 378.253 133.404C377.698 133.304 377.441 133.166 377.051 132.76C377.196 132.485 377.27 132.346 377.419 132.069Z" fill="#FF4F5D"/>
<path d="M397.914 88.6557C399.56 86.9004 400.086 85.7809 400.387 83.3887L403.408 84.8083C403.105 87.1969 402.579 88.3152 400.935 90.0753C399.724 89.5094 399.119 89.224 397.914 88.6557Z" fill="#FF4F5D"/>
<path d="M420.854 41.5719C419.079 40.7879 418.086 40.6863 416.188 41.0942C416.298 40.0212 416.353 39.4847 416.463 38.4141C418.361 38.0062 419.352 38.1091 421.128 38.893C421.019 39.9636 420.964 40.5001 420.854 41.5719Z" fill="#FF4F5D"/>
<path d="M413.576 138.791C410.922 139.324 409.708 140.006 407.872 141.993C407.137 140.683 406.77 140.033 406.035 138.717C407.872 136.728 409.085 136.048 411.738 135.516C412.473 136.826 412.84 137.482 413.576 138.791Z" fill="#FF4F5D"/>
<path d="M422.81 109.393C422.565 108.712 422.337 108.413 421.738 108.008L422.533 107.396C423.13 107.803 423.358 108.097 423.604 108.781L422.81 109.393Z" fill="#FF4F5D"/>
<path d="M380.348 108.738C380.978 108.188 381.205 107.819 381.39 107.005C381.786 107.25 381.985 107.364 382.384 107.603C382.194 108.418 381.974 108.787 381.343 109.336L380.348 108.738Z" fill="#FF4F5D"/>
<path d="M381.125 131.846C383.199 130.316 383.97 129.239 384.753 126.783C385.915 127.616 386.493 128.033 387.656 128.866C386.876 131.315 386.103 132.398 384.029 133.928L381.125 131.846Z" fill="#FF4F5D"/>
<path d="M347.97 122.181C346.701 123.24 346.256 123.961 345.844 125.564L343.902 124.339C344.308 122.736 344.759 122.012 346.029 120.956L347.97 122.181Z" fill="#FFCB00"/>
<path d="M307.617 132.251C310.505 131.608 311.814 130.836 313.774 128.623C314.607 130.037 315.025 130.743 315.856 132.158C313.897 134.371 312.584 135.144 309.7 135.787L307.617 132.251Z" fill="#FF4F5D"/>
<path d="M229.475 100.614C231.029 101.462 231.924 101.631 233.677 101.404C233.495 102.37 233.405 102.852 233.224 103.817C231.468 104.043 230.576 103.874 229.023 103.026C229.199 102.062 229.295 101.579 229.475 100.614Z" fill="#FFCB00"/>
<path d="M180.704 113.425C180.025 110.679 179.256 109.442 177.094 107.618L180.426 105.544C182.59 107.369 183.358 108.606 184.037 111.352L180.704 113.425Z" fill="#FF4F5D"/>
<path d="M195.108 126.178C195.525 127.547 195.948 128.15 197.089 129.013L195.463 130.151C194.322 129.294 193.9 128.681 193.48 127.317L195.108 126.178Z" fill="#FF4F5D"/>
<path d="M76.3711 135.48C78.8908 134.791 80.016 134.055 81.653 132.02L83.6389 135.052C82.0007 137.088 80.8767 137.824 78.357 138.514C77.5612 137.3 77.1645 136.697 76.3711 135.48Z" fill="#FF4F5D"/>
<path d="M19.7008 124.627C20.2199 125.88 20.6717 126.412 21.8263 127.121C21.2533 127.611 20.9692 127.856 20.3938 128.346C19.2404 127.635 18.7874 127.104 18.2695 125.851L19.7008 124.627Z" fill="#FF4F5D"/>
<path d="M35.0607 135.164C34.3934 136.593 34.293 137.397 34.5905 138.945L32.421 138.676C32.1235 137.128 32.2226 136.323 32.8899 134.895L35.0607 135.164Z" fill="#FF4F5D"/>
<path d="M126.952 7.70417C124.258 7.96629 122.975 8.52239 120.945 10.3181L119.445 6.87002C121.478 5.07311 122.751 4.51701 125.451 4.25488C126.051 5.63411 126.352 6.32494 126.952 7.70417Z" fill="#FF4F5D"/>
<path d="M176.489 60.8666C175.632 63.1939 175.59 64.4715 176.27 66.8588L172.832 66.7363C172.153 64.3502 172.2 63.0739 173.05 60.7441L176.489 60.8666Z" fill="#FF4F5D"/>
<path d="M120.345 119.008C120.134 116.131 119.576 114.757 117.719 112.551L121.424 111.043C123.28 113.248 123.838 114.622 124.049 117.499C122.567 118.102 121.822 118.403 120.345 119.008Z" fill="#FF4F5D"/>
<path d="M279.939 63.6379C278.142 61.8005 276.97 61.1881 274.43 60.7471C275.095 59.4843 275.425 58.8522 276.089 57.5869C278.623 58.023 279.794 58.6379 281.591 60.4776C280.935 61.7417 280.602 62.3738 279.939 63.6379Z" fill="#FF4F5D"/>
<path d="M204.576 33.1794C202.292 33.1573 201.171 33.5089 199.311 34.8317C198.933 33.6216 198.742 33.0177 198.363 31.805C200.226 30.4834 201.347 30.1331 203.628 30.1563C204.009 31.3653 204.197 31.9692 204.576 33.1794Z" fill="#FF4F5D"/>
<path d="M225.219 70.7461C226.987 72.5136 228.133 73.0991 230.606 73.4911L229.032 76.5815C226.562 76.1883 225.417 75.6015 223.645 73.8365C224.275 72.5993 224.59 71.982 225.219 70.7461Z" fill="#FF4F5D"/>
<path d="M211.027 94.8381C209.864 96.248 209.519 97.1238 209.404 98.9464L207.047 98.0131C207.162 96.1916 207.507 95.3183 208.669 93.9072L211.027 94.8381Z" fill="#FF4F5D"/>
<path d="M198.323 74.6067C195.652 73.7382 194.205 73.7382 191.531 74.5957C191.531 73.0364 191.531 72.2573 191.531 70.6968C194.206 69.8394 195.65 69.8394 198.324 70.7042C198.325 72.2684 198.324 73.0474 198.323 74.6067Z" fill="#FFCB00"/>
<path d="M305.034 95.1562C303.064 94.0158 301.921 93.7708 299.656 94.0036C299.922 92.7689 300.054 92.1515 300.319 90.9169C302.582 90.6841 303.726 90.9279 305.695 92.0695C305.429 93.3042 305.297 93.9227 305.034 95.1562Z" fill="#FF4F5D"/>
<path d="M354.645 12.2292C353.014 14.608 352.593 16.0264 352.667 18.9122L348.832 17.7743C348.76 14.8921 349.181 13.4713 350.81 11.0938L354.645 12.2292Z" fill="#FF4F5D"/>
<path d="M256.424 70.327C255.108 70.0085 254.414 70.06 253.162 70.572C253.105 69.8224 253.076 69.4475 253.02 68.6991C254.272 68.1847 254.966 68.132 256.282 68.4542C256.339 69.2062 256.366 69.5737 256.424 70.327Z" fill="#FFCB00"/>
<path d="M210.451 49.1953C211.281 51.078 211.984 51.8668 213.757 52.903L211.63 54.8041C209.856 53.7678 209.151 52.979 208.324 51.0988C209.174 50.343 209.6 49.9572 210.451 49.1953Z" fill="#FF4F5D"/>
<path d="M47.2858 31.7598C46.4397 34.19 46.4104 35.5165 47.1523 37.981L43.5845 37.905C42.8438 35.4393 42.872 34.1152 43.718 31.6826L47.2858 31.7598Z" fill="#FF4F5D"/>
<path d="M4.17287 151.239C4.74342 151.553 5.07277 151.615 5.72046 151.533C5.65189 151.89 5.61884 152.067 5.55027 152.423C4.90381 152.505 4.57078 152.442 4.00391 152.127C4.07125 151.772 4.10553 151.594 4.17287 151.239Z" fill="#FF4F5D"/>
<path d="M1.9086 86.0273C1.82289 87.8402 2.06776 88.7405 3.06194 90.2593L0.634039 90.922C-0.36014 89.4031 -0.605012 88.5016 -0.519307 86.69L1.9086 86.0273Z" fill="#FF4F5D"/>
<path d="M186.047 47.1479C185.02 47.3427 184.547 47.6023 183.831 48.3642L183.133 47.0903C183.849 46.3285 184.323 46.07 185.349 45.874C185.629 46.3836 185.768 46.6384 186.047 47.1479Z" fill="#01B5D6"/>
<path d="M93.7047 54.5186C94.672 56.7883 95.507 57.7449 97.6227 59.0151C96.5905 59.9166 96.0751 60.3625 95.0429 61.2652C92.9273 59.995 92.0935 59.0384 91.125 56.7687C92.1559 55.8684 92.6714 55.4176 93.7047 54.5186Z" fill="#01B5D6"/>
<path d="M72.1555 104.482C73.4827 106.402 74.4414 107.132 76.6452 107.912C75.8567 108.941 75.465 109.455 74.6789 110.484C72.4751 109.708 71.5225 108.978 70.1953 107.055C70.9752 106.025 71.3682 105.51 72.1555 104.482Z" fill="#01B5D6"/>
<path d="M157.411 130.682C157.274 133.967 157.727 135.595 159.543 138.337L155.148 139.562C153.335 136.821 152.881 135.192 153.019 131.908C154.777 131.414 155.656 131.17 157.411 130.682Z" fill="#01B5D6"/>
<path d="M380.517 19.5642C378.803 19.7014 377.982 20.0407 376.674 21.1565C376.306 20.2746 376.123 19.8336 375.758 18.9517C377.065 17.8322 377.885 17.4929 379.601 17.3594C379.966 18.2388 380.15 18.6798 380.517 19.5642Z" fill="#01B5D6"/>
<path d="M345.023 84.796C346.948 85.0066 347.923 84.8045 349.606 83.8467C349.825 84.8989 349.934 85.4256 350.151 86.4765C348.469 87.4368 347.494 87.6402 345.567 87.4283C345.345 86.3748 345.236 85.8494 345.023 84.796Z" fill="#01B5D6"/>
<path d="M143.618 31.0299C142.861 32.9224 142.793 33.9697 143.291 35.9417L140.475 35.7531C139.977 33.7798 140.046 32.735 140.801 30.8438L143.618 31.0299Z" fill="#01B5D6"/>
<path d="M278.21 127.088C278.952 129.568 279.708 130.663 281.76 132.232L278.808 134.273C276.753 132.703 275.992 131.608 275.258 129.129L278.21 127.088Z" fill="#01B5D6"/>
<path d="M128.668 64.3379C128.136 62.1956 127.536 61.2328 125.852 59.8119C126.89 59.1627 127.41 58.8394 128.448 58.1914C130.136 59.6123 130.736 60.575 131.264 62.7174C130.227 63.3666 129.708 63.6936 128.668 64.3379Z" fill="#01B5D6"/>
<path d="M38.0296 101.762C35.9481 101.419 34.8744 101.583 32.9876 102.528C32.8101 101.369 32.722 100.791 32.5469 99.6322C34.4336 98.6866 35.5062 98.5298 37.5912 98.8654C37.7663 100.024 37.8545 100.604 38.0296 101.762Z" fill="#01B5D6"/>
<path d="M403.199 142.664C404.049 141.166 404.226 140.3 404.037 138.589L406.374 139.07C406.565 140.785 406.386 141.643 405.538 143.144L403.199 142.664Z" fill="url(#paint0_linear_4003_46803)"/>
<path d="M316.06 75.3302C315.698 72.0144 314.996 70.449 312.754 67.9809L316.984 66.0811C319.221 68.5541 319.923 70.1232 320.29 73.4304L316.06 75.3302Z" fill="url(#paint1_linear_4003_46803)"/>
<path d="M247.036 48.3916C248.45 51.1843 249.584 52.3259 252.368 53.7566L249.289 56.8188C246.507 55.3882 245.371 54.2466 243.957 51.4526L247.036 48.3916Z" fill="url(#paint2_linear_4003_46803)"/>
<path d="M48.3398 68.0571C51.6701 68.024 53.2948 67.4802 55.9713 65.4971C56.559 67.2487 56.8528 68.1257 57.4405 69.8797C54.7641 71.8616 53.1393 72.4067 49.8078 72.4397C49.2189 70.6869 48.9275 69.8111 48.3398 68.0571Z" fill="url(#paint3_linear_4003_46803)"/>
<path d="M44.4528 49.2402C44.4675 51.3323 44.8079 52.3527 46.0445 54.0393L43.2909 54.9543C42.0518 53.2701 41.7127 52.2486 41.6992 50.1552L44.4528 49.2402Z" fill="url(#paint4_linear_4003_46803)"/>
<path d="M22.7365 28.2001C22.7365 28.2001 24.9502 26.7499 22.9949 24.6382C22.9949 24.6382 21.9713 23.635 13.9224 24.1029L11.5508 26.1288L11.6573 26.778C11.4626 26.6764 11.6353 26.9152 13.249 26.9005C14.7378 26.8895 19.1871 26.6053 22.7365 28.2001Z" fill="url(#paint5_linear_4003_46803)"/>
<path d="M13.3091 34.2381C13.3091 34.2381 13.0924 35.1605 14.2494 37.5037C14.2494 37.5037 14.4208 35.9113 16.6491 34.8408C18.8774 33.7702 23.4565 31.8876 24.1508 29.4035C24.3046 28.9137 24.381 28.4029 24.3773 27.8895C24.3662 27.1068 23.9463 25.3503 22.995 24.6387C22.995 24.6387 24.6625 26.1085 21.9604 28.5583C20.5462 29.8444 14.0596 33.317 13.3091 34.2381Z" fill="url(#paint6_linear_4003_46803)"/>
<path d="M20.2003 17.6778C20.2003 17.6778 22.4151 16.2263 20.4598 14.1146C20.4598 14.1146 19.4363 13.1126 11.3873 13.5805L9.35859 14.6646L9.12229 16.2569C8.92884 16.1552 9.10025 16.3941 10.714 16.3794C12.1966 16.3672 16.6496 16.083 20.2003 17.6778Z" fill="url(#paint7_linear_4003_46803)"/>
<path d="M10.7737 23.7149C10.7737 23.7149 10.5582 24.6373 11.714 26.9805C11.714 26.9805 11.8854 25.3881 14.1138 24.3163C16.3421 23.2446 20.9212 21.3644 21.6166 18.8803C21.7695 18.3903 21.8455 17.8796 21.8419 17.3663C21.8321 16.5836 21.4097 14.8271 20.4596 14.1143C20.4596 14.1143 22.1272 15.5841 19.425 18.0339C18.006 19.3213 11.5206 22.7901 10.7737 23.7149Z" fill="url(#paint8_linear_4003_46803)"/>
<path d="M8.2034 13.0426C8.2034 13.0426 7.98791 13.9649 9.1437 16.3094C9.1437 16.3094 9.31634 14.717 11.5434 13.6453C13.7706 12.5735 18.3558 10.6933 19.05 8.20675L18.0546 5.92969C17.7374 6.47002 17.3342 6.95492 16.8608 7.36526C15.4455 8.64894 8.9576 12.1178 8.2034 13.0426Z" fill="url(#paint9_linear_4003_46803)"/>
<path d="M252.852 23.733C252.852 23.733 256.936 24.3454 256.851 19.855C256.851 19.855 256.702 17.6245 246.846 9.81091L241.984 9.70312L241.433 10.5703C241.31 10.2507 241.265 10.7075 243.147 12.366C244.901 13.8971 250.379 18.1891 252.852 23.733Z" fill="url(#paint10_linear_4003_46803)"/>
<path d="M235.613 20.9679C235.613 20.9679 234.404 21.818 233.316 25.745C233.316 25.745 235.174 24.0644 238.876 25.1325C242.579 26.2006 249.865 28.7704 253.251 26.6024C253.939 26.1924 254.559 25.6775 255.088 25.0762C255.887 24.1538 257.221 21.671 256.852 19.8545C256.852 19.8545 257.264 23.3038 251.576 23.3479C248.598 23.3711 237.445 20.6715 235.613 20.9679Z" fill="url(#paint11_linear_4003_46803)"/>
<path d="M260.822 8.84319C260.822 8.84319 264.907 9.45563 264.822 4.96519C264.822 4.96519 264.672 2.73467 254.816 -5.07889L251.329 -5.92773L249.401 -4.32191C249.279 -4.64283 249.234 -4.18594 251.123 -2.52745C252.872 -0.992662 258.348 3.30669 260.822 8.84319Z" fill="url(#paint12_linear_4003_46803)"/>
<path d="M243.582 6.07779C243.582 6.07779 242.372 6.92786 241.285 10.8548C241.285 10.8548 243.144 9.17308 246.845 10.2424C250.546 11.3117 257.834 13.8791 261.221 11.7123C261.909 11.3006 262.528 10.7849 263.058 10.1836C263.857 9.26127 265.191 6.77965 264.822 4.96191C264.822 4.96191 265.234 8.41242 259.546 8.45529C256.566 8.48224 245.414 5.78136 243.582 6.07779Z" fill="url(#paint13_linear_4003_46803)"/>
<path d="M91.4253 101.964C91.4253 101.964 93.47 98.9018 89.814 97.2617C89.814 97.2617 87.9579 96.5341 77.9047 101.527L75.9727 105.415L76.4624 106.187C76.1563 106.164 76.5077 106.375 78.5634 105.479C80.4673 104.65 86.0124 101.857 91.4253 101.964Z" fill="#E32A3A"/>
<path d="M82.6445 114.839C82.6445 114.839 82.871 116.138 85.6295 118.513C85.6295 118.513 84.9794 116.375 87.2506 113.793C89.5218 111.211 94.3592 106.299 93.8927 102.738C93.8223 102.027 93.6418 101.33 93.3577 100.674C92.9169 99.6784 91.4195 97.6586 89.8131 97.2666C89.8131 97.2666 92.7516 98.2465 90.6286 102.855C89.5181 105.263 83.1024 113.246 82.6445 114.839Z" fill="#FF4F5D"/>
<path d="M82.4336 89.8721C82.4336 89.8721 84.4795 86.8098 80.8248 85.1697C80.8248 85.1697 78.9674 84.4433 68.9142 89.436L66.9062 91.9299L67.4719 94.0967C67.167 94.0722 67.5172 94.2841 69.5741 93.3875C71.478 92.5595 77.0219 89.7667 82.4336 89.8721Z" fill="#E32A3A"/>
<path d="M73.6562 102.748C73.6562 102.748 73.8828 104.048 76.64 106.423C76.64 106.423 75.9899 104.284 78.2623 101.702C80.5347 99.1201 85.3636 94.2071 84.9044 90.6464C84.834 89.9352 84.6535 89.2394 84.3694 88.5837C83.9286 87.5866 82.4312 85.568 80.8261 85.1748C80.8261 85.1748 83.7646 86.1547 81.6403 90.7627C80.5274 93.1721 74.1129 101.156 73.6562 102.748Z" fill="#FF4F5D"/>
<path d="M64.5547 90.4806C64.5547 90.4806 64.7812 91.779 67.5384 94.1492C67.5384 94.1492 66.8895 92.0105 69.1607 89.4297C71.4319 86.8488 76.2681 81.9334 75.8029 78.3738L73.2868 76C73.217 76.6798 72.9942 77.5017 72.5387 78.4902C71.4258 80.9032 65.0114 88.887 64.5547 90.4806Z" fill="#FF4F5D"/>
<defs>
<linearGradient id="paint0_linear_4003_46803" x1="403.199" y1="140.867" x2="406.444" y2="140.867" gradientUnits="userSpaceOnUse">
<stop stop-color="#CE38BF"/>
<stop offset="0.73" stop-color="#E051CA"/>
<stop offset="1" stop-color="#E85CCF"/>
</linearGradient>
<linearGradient id="paint1_linear_4003_46803" x1="314.96" y1="65.9267" x2="318.474" y2="74.8845" gradientUnits="userSpaceOnUse">
<stop stop-color="#CE38BF"/>
<stop offset="0.73" stop-color="#E051CA"/>
<stop offset="1" stop-color="#E85CCF"/>
</linearGradient>
<linearGradient id="paint2_linear_4003_46803" x1="244.334" y1="49.0016" x2="253.117" y2="58.3082" gradientUnits="userSpaceOnUse">
<stop stop-color="#CE38BF"/>
<stop offset="0.73" stop-color="#E051CA"/>
<stop offset="1" stop-color="#E85CCF"/>
</linearGradient>
<linearGradient id="paint3_linear_4003_46803" x1="48.3398" y1="68.9684" x2="57.4405" y2="68.9684" gradientUnits="userSpaceOnUse">
<stop stop-color="#CE38BF"/>
<stop offset="0.73" stop-color="#E051CA"/>
<stop offset="1" stop-color="#E85CCF"/>
</linearGradient>
<linearGradient id="paint4_linear_4003_46803" x1="43.3827" y1="51.3091" x2="45.2193" y2="55.2514" gradientUnits="userSpaceOnUse">
<stop stop-color="#CE38BF"/>
<stop offset="0.73" stop-color="#E051CA"/>
<stop offset="1" stop-color="#E85CCF"/>
</linearGradient>
<linearGradient id="paint5_linear_4003_46803" x1="11.769" y1="27.3037" x2="23.7801" y2="25.3633" gradientUnits="userSpaceOnUse">
<stop stop-color="#5C5894"/>
<stop offset="0.47" stop-color="#6862C1"/>
<stop offset="1" stop-color="#7E78E1"/>
</linearGradient>
<linearGradient id="paint6_linear_4003_46803" x1="12.9321" y1="33.8802" x2="26.154" y2="27.677" gradientUnits="userSpaceOnUse">
<stop stop-color="#7E78E1"/>
<stop offset="0.09" stop-color="#7068DC"/>
<stop offset="0.18" stop-color="#6661B8"/>
<stop offset="0.26" stop-color="#6661B6"/>
<stop offset="0.29" stop-color="#645FAF"/>
<stop offset="0.3" stop-color="#625DA9"/>
<stop offset="0.31" stop-color="#6761BA"/>
<stop offset="0.32" stop-color="#6C66CB"/>
<stop offset="0.34" stop-color="#6F69D6"/>
<stop offset="0.36" stop-color="#716BDD"/>
<stop offset="0.43" stop-color="#726BDF"/>
<stop offset="0.49" stop-color="#716ADD"/>
<stop offset="0.51" stop-color="#6F68D6"/>
<stop offset="0.52" stop-color="#6B64CB"/>
<stop offset="0.53" stop-color="#6A63C8"/>
<stop offset="0.58" stop-color="#6C65C9"/>
<stop offset="0.61" stop-color="#726CCE"/>
<stop offset="0.62" stop-color="#7E77D7"/>
<stop offset="0.63" stop-color="#8E88E3"/>
<stop offset="0.64" stop-color="#948EE7"/>
<stop offset="0.69" stop-color="#928CE6"/>
<stop offset="0.71" stop-color="#8B85E5"/>
<stop offset="0.72" stop-color="#7E78E1"/>
<stop offset="0.9" stop-color="#645EB1"/>
<stop offset="1" stop-color="#5F5A9C"/>
</linearGradient>
<linearGradient id="paint7_linear_4003_46803" x1="9.24557" y1="16.7461" x2="21.2567" y2="14.8058" gradientUnits="userSpaceOnUse">
<stop stop-color="#5C5894"/>
<stop offset="0.47" stop-color="#6862C1"/>
<stop offset="1" stop-color="#7E78E1"/>
</linearGradient>
<linearGradient id="paint8_linear_4003_46803" x1="10.4084" y1="23.322" x2="23.6315" y2="17.1186" gradientUnits="userSpaceOnUse">
<stop stop-color="#7E78E1"/>
<stop offset="0.09" stop-color="#7068DC"/>
<stop offset="0.18" stop-color="#6661B8"/>
<stop offset="0.26" stop-color="#6661B6"/>
<stop offset="0.29" stop-color="#645FAF"/>
<stop offset="0.3" stop-color="#625DA9"/>
<stop offset="0.31" stop-color="#6761BA"/>
<stop offset="0.32" stop-color="#6C66CB"/>
<stop offset="0.34" stop-color="#6F69D6"/>
<stop offset="0.36" stop-color="#716BDD"/>
<stop offset="0.43" stop-color="#726BDF"/>
<stop offset="0.49" stop-color="#716ADD"/>
<stop offset="0.51" stop-color="#6F68D6"/>
<stop offset="0.52" stop-color="#6B64CB"/>
<stop offset="0.53" stop-color="#6A63C8"/>
<stop offset="0.58" stop-color="#6C65C9"/>
<stop offset="0.61" stop-color="#726CCE"/>
<stop offset="0.62" stop-color="#7E77D7"/>
<stop offset="0.63" stop-color="#8E88E3"/>
<stop offset="0.64" stop-color="#948EE7"/>
<stop offset="0.69" stop-color="#928CE6"/>
<stop offset="0.71" stop-color="#8B85E5"/>
<stop offset="0.72" stop-color="#7E78E1"/>
<stop offset="0.9" stop-color="#645EB1"/>
<stop offset="1" stop-color="#5F5A9C"/>
</linearGradient>
<linearGradient id="paint9_linear_4003_46803" x1="8.33029" y1="13.6789" x2="20.3914" y2="8.02131" gradientUnits="userSpaceOnUse">
<stop stop-color="#7E78E1"/>
<stop offset="0.09" stop-color="#7068DC"/>
<stop offset="0.18" stop-color="#6661B8"/>
<stop offset="0.26" stop-color="#6661B6"/>
<stop offset="0.29" stop-color="#645FAF"/>
<stop offset="0.3" stop-color="#625DA9"/>
<stop offset="0.31" stop-color="#6761BA"/>
<stop offset="0.32" stop-color="#6C66CB"/>
<stop offset="0.34" stop-color="#6F69D6"/>
<stop offset="0.36" stop-color="#716BDD"/>
<stop offset="0.43" stop-color="#726BDF"/>
<stop offset="0.49" stop-color="#716ADD"/>
<stop offset="0.51" stop-color="#6F68D6"/>
<stop offset="0.52" stop-color="#6B64CB"/>
<stop offset="0.53" stop-color="#6A63C8"/>
<stop offset="0.58" stop-color="#6C65C9"/>
<stop offset="0.61" stop-color="#726CCE"/>
<stop offset="0.62" stop-color="#7E77D7"/>
<stop offset="0.63" stop-color="#8E88E3"/>
<stop offset="0.64" stop-color="#948EE7"/>
<stop offset="0.69" stop-color="#928CE6"/>
<stop offset="0.71" stop-color="#8B85E5"/>
<stop offset="0.72" stop-color="#7E78E1"/>
<stop offset="0.9" stop-color="#645EB1"/>
<stop offset="1" stop-color="#5F5A9C"/>
</linearGradient>
<linearGradient id="paint10_linear_4003_46803" x1="240.273" y1="11.5626" x2="256.177" y2="21.7822" gradientUnits="userSpaceOnUse">
<stop stop-color="#5C5894"/>
<stop offset="0.47" stop-color="#6862C1"/>
<stop offset="1" stop-color="#7E78E1"/>
</linearGradient>
<linearGradient id="paint11_linear_4003_46803" x1="234.797" y1="20.3718" x2="256.522" y2="26.9158" gradientUnits="userSpaceOnUse">
<stop stop-color="#7E78E1"/>
<stop offset="0.09" stop-color="#7068DC"/>
<stop offset="0.18" stop-color="#6661B8"/>
<stop offset="0.26" stop-color="#6661B6"/>
<stop offset="0.29" stop-color="#645FAF"/>
<stop offset="0.3" stop-color="#625DA9"/>
<stop offset="0.31" stop-color="#6761BA"/>
<stop offset="0.32" stop-color="#6C66CB"/>
<stop offset="0.34" stop-color="#6F69D6"/>
<stop offset="0.36" stop-color="#716BDD"/>
<stop offset="0.43" stop-color="#726BDF"/>
<stop offset="0.49" stop-color="#716ADD"/>
<stop offset="0.51" stop-color="#6F68D6"/>
<stop offset="0.52" stop-color="#6B64CB"/>
<stop offset="0.53" stop-color="#6A63C8"/>
<stop offset="0.58" stop-color="#6C65C9"/>
<stop offset="0.61" stop-color="#726CCE"/>
<stop offset="0.62" stop-color="#7E77D7"/>
<stop offset="0.63" stop-color="#8E88E3"/>
<stop offset="0.64" stop-color="#948EE7"/>
<stop offset="0.69" stop-color="#928CE6"/>
<stop offset="0.71" stop-color="#8B85E5"/>
<stop offset="0.72" stop-color="#7E78E1"/>
<stop offset="0.9" stop-color="#645EB1"/>
<stop offset="1" stop-color="#5F5A9C"/>
</linearGradient>
<linearGradient id="paint12_linear_4003_46803" x1="248.311" y1="-3.26184" x2="264.214" y2="6.95709" gradientUnits="userSpaceOnUse">
<stop stop-color="#5C5894"/>
<stop offset="0.47" stop-color="#6862C1"/>
<stop offset="1" stop-color="#7E78E1"/>
</linearGradient>
<linearGradient id="paint13_linear_4003_46803" x1="242.835" y1="5.54599" x2="264.559" y2="12.091" gradientUnits="userSpaceOnUse">
<stop stop-color="#7E78E1"/>
<stop offset="0.09" stop-color="#7068DC"/>
<stop offset="0.18" stop-color="#6661B8"/>
<stop offset="0.26" stop-color="#6661B6"/>
<stop offset="0.29" stop-color="#645FAF"/>
<stop offset="0.3" stop-color="#625DA9"/>
<stop offset="0.31" stop-color="#6761BA"/>
<stop offset="0.32" stop-color="#6C66CB"/>
<stop offset="0.34" stop-color="#6F69D6"/>
<stop offset="0.36" stop-color="#716BDD"/>
<stop offset="0.43" stop-color="#726BDF"/>
<stop offset="0.49" stop-color="#716ADD"/>
<stop offset="0.51" stop-color="#6F68D6"/>
<stop offset="0.52" stop-color="#6B64CB"/>
<stop offset="0.53" stop-color="#6A63C8"/>
<stop offset="0.58" stop-color="#6C65C9"/>
<stop offset="0.61" stop-color="#726CCE"/>
<stop offset="0.62" stop-color="#7E77D7"/>
<stop offset="0.63" stop-color="#8E88E3"/>
<stop offset="0.64" stop-color="#948EE7"/>
<stop offset="0.69" stop-color="#928CE6"/>
<stop offset="0.71" stop-color="#8B85E5"/>
<stop offset="0.72" stop-color="#7E78E1"/>
<stop offset="0.9" stop-color="#645EB1"/>
<stop offset="1" stop-color="#5F5A9C"/>
</linearGradient>
</defs>
</svg>
