<svg width="379" height="284" viewBox="0 0 379 284" fill="none" xmlns="http://www.w3.org/2000/svg">
<path d="M90.787 63.2015C90.787 63.2015 94.9051 69.174 88.1645 76.1662C81.424 83.1583 83.715 86.8326 83.715 86.8326L87.4644 90.223C87.4644 90.223 87.3753 93.0331 92.7342 88.4863C98.0931 83.9396 104.923 67.3358 98.2277 64.4117C89.2459 60.4825 90.787 63.2015 90.787 63.2015Z" fill="#8943C2"/>
<path d="M100.052 66.0202C100.052 66.0202 97.5459 61.8755 92.3527 58.3835C89.8255 56.6863 80.4687 57.8965 76.8623 65.9207C76.8623 65.9207 75.8266 66.8906 77.5086 70.2374C79.1907 73.5843 80.6158 76.1126 81.7116 75.8908C81.7116 75.8908 82.012 73.3563 84.4045 70.9565C85.9084 69.4417 87.2217 68.7184 90.5423 66.9818C95.8866 64.1551 99.2403 64.6669 100.052 66.0202Z" fill="#B459FF"/>
<path d="M88.0856 91.0353C88.0856 91.0353 86.1011 91.5161 82.3787 85.5415C80.6677 82.7956 80.8914 79.1731 83.1223 76.8376C84.0622 75.8644 85.0761 74.9658 86.155 74.1497C92.8437 69.0621 100.564 67.7047 103.692 70.4319C110.058 75.9796 111.706 79.3638 112.146 81.1025C112.146 81.1025 109.66 75.4097 100.96 77.7473C91.0561 80.4165 84.9825 88.6397 88.0856 91.0353Z" fill="#B459FF"/>
<path d="M91.2812 212.568C94.3698 212.054 95.8012 211.312 97.999 209.082C98.8007 210.626 99.1984 211.397 100 212.939C97.8001 215.169 96.3708 215.913 93.2823 216.426C92.4848 214.885 92.0829 214.114 91.2812 212.568Z" fill="#FF4F5D"/>
<path d="M79.9297 125.319C84.1928 124.155 86.0964 122.909 88.866 119.465L92.2259 124.596C89.4543 128.04 87.5527 129.286 83.2896 130.452C81.9431 128.399 81.272 127.379 79.9297 125.319Z" fill="#FF4F5D"/>
<path d="M28.0214 184.785C27.6651 179.917 26.7205 177.592 23.5781 173.86L29.8464 171.309C32.9867 175.039 33.9313 177.364 34.2876 182.232C31.7811 183.252 30.5196 183.761 28.0214 184.785Z" fill="#FF4F5D"/>
<path d="M39.3594 198.478C41.3542 198.091 42.2698 197.587 43.6556 196.104C44.2025 197.09 44.4842 197.583 45.0207 198.572C43.6307 200.053 42.7172 200.561 40.7245 200.947L39.3594 198.478Z" fill="#FF4F5D"/>
<path d="M93.3906 245.693C95.6361 248.941 97.2581 250.176 100.987 251.496C99.6527 253.237 98.9898 254.107 97.6599 255.848C93.9313 254.534 92.3197 253.299 90.0742 250.045C91.3937 248.302 92.0587 247.432 93.3906 245.693Z" fill="#01B5D6"/>
<path d="M89.6531 154.402C89.4211 159.96 90.1875 162.715 93.2595 167.355L85.825 169.427C82.7571 164.789 81.9886 162.033 82.2227 156.477C85.1973 155.642 86.6847 155.229 89.6531 154.402Z" fill="#01B5D6"/>
<path d="M38.5903 133.593C35.1268 131.696 33.1299 131.313 29.2148 131.812C29.6291 129.659 29.8363 128.584 30.2381 126.424C34.1532 125.929 36.148 126.308 39.6115 128.206C39.2034 130.364 39.0004 131.437 38.5903 133.593Z" fill="#01B5D6"/>
<path d="M77.9362 205.785C74.4147 205.205 72.598 205.483 69.4059 207.081C69.1055 205.12 68.9564 204.142 68.6602 202.182C71.8523 200.582 73.6669 200.316 77.1946 200.884C77.4908 202.845 77.64 203.825 77.9362 205.785Z" fill="#01B5D6"/>
<path d="M150.249 236.647C150.249 236.647 153.709 231.466 147.523 228.692C147.523 228.692 144.383 227.461 127.374 235.908L124.105 242.485L124.934 243.793C124.416 243.754 125.011 244.11 128.489 242.595C131.71 241.192 141.091 236.467 150.249 236.647Z" fill="#E32A3A"/>
<path d="M135.395 258.431C135.395 258.431 135.778 260.63 140.445 264.648C140.445 264.648 139.345 261.03 143.187 256.661C147.03 252.293 155.214 243.983 154.425 237.958C154.306 236.755 154.001 235.576 153.52 234.466C152.774 232.782 150.241 229.364 147.523 228.701C147.523 228.701 152.494 230.359 148.903 238.155C147.024 242.23 136.169 255.737 135.395 258.431Z" fill="#FF4F5D"/>
<path d="M135.044 216.19C135.044 216.19 138.505 211.009 132.322 208.234C132.322 208.234 129.179 207.005 112.171 215.452L108.773 219.672L109.73 223.338C109.215 223.296 109.807 223.655 113.287 222.138C116.508 220.737 125.888 216.012 135.044 216.19Z" fill="#E32A3A"/>
<path d="M120.18 237.974C120.18 237.974 120.563 240.173 125.228 244.191C125.228 244.191 124.128 240.573 127.973 236.205C131.817 231.836 139.987 223.524 139.21 217.499C139.091 216.296 138.786 215.119 138.305 214.01C137.559 212.323 135.026 208.907 132.31 208.242C132.31 208.242 137.282 209.9 133.688 217.696C131.805 221.773 120.952 235.28 120.18 237.974Z" fill="#FF4F5D"/>
<path d="M104.797 217.222C104.797 217.222 105.18 219.419 109.845 223.429C109.845 223.429 108.747 219.81 112.59 215.444C116.432 211.078 124.615 202.761 123.827 196.739L119.571 192.723C119.452 193.873 119.075 195.263 118.305 196.936C116.422 201.018 105.57 214.526 104.797 217.222Z" fill="#FF4F5D"/>
<path d="M260.971 34.7894C260.971 34.7894 265.089 40.7619 258.348 47.7541C251.608 54.7462 253.899 58.4205 253.899 58.4205L257.648 61.8109C257.648 61.8109 257.559 64.621 262.918 60.0742C268.277 55.5275 275.106 38.9237 268.411 35.9996C259.429 32.0704 260.971 34.7894 260.971 34.7894Z" fill="#8943C2"/>
<path d="M270.236 37.6061C270.236 37.6061 267.729 33.4614 262.536 29.9695C260.009 28.2722 250.652 29.4825 247.046 37.5067C247.046 37.5067 246.01 38.4765 247.692 41.8234C249.374 45.1702 250.799 47.6985 251.895 47.4768C251.895 47.4768 252.196 44.9423 254.588 42.5425C256.092 41.0276 257.405 40.3043 260.726 38.5677C266.07 35.741 269.424 36.2529 270.236 37.6061Z" fill="#B459FF"/>
<path d="M237.789 73.8263C237.789 73.8263 235.804 74.3071 232.082 68.3325C230.371 65.5866 230.595 61.9641 232.825 59.6286C233.765 58.6555 234.779 57.7568 235.858 56.9407C242.547 51.8531 250.267 50.4957 253.395 53.2229C259.761 58.7706 261.41 62.1548 261.849 63.8935C261.849 63.8935 259.363 58.2007 250.663 60.5384C240.759 63.2076 234.686 71.4307 237.789 73.8263Z" fill="#B459FF"/>
<path d="M207.737 228.114C207.737 228.114 209.587 232.405 216.482 234.673C223.378 236.94 228.416 234.449 234.672 242.983C234.672 242.983 232.677 234.041 224.702 231.027C216.727 228.014 210.767 229.73 207.285 223.152L207.737 228.114Z" fill="#B459FF"/>
<path d="M299.424 36.2994C295.447 41.8824 293.968 45.1982 292.468 51.8836L286.902 49.3968C288.402 42.7093 289.883 39.3935 293.856 33.8105L299.424 36.2994Z" fill="#FFCB00"/>
<path d="M355.69 197.23C358.319 198.665 359.833 198.951 362.799 198.567C362.491 200.2 362.34 201.017 362.033 202.65C359.063 203.031 357.552 202.745 354.926 201.311C355.222 199.68 355.386 198.863 355.69 197.23Z" fill="#FFCB00"/>
<path d="M0.764383 103.006C3.39307 104.44 4.9073 104.726 7.87364 104.343C7.56499 105.976 7.41378 106.792 7.10721 108.425C4.13673 108.806 2.62662 108.52 0 107.086C0.296219 105.455 0.459878 104.639 0.764383 103.006Z" fill="#FFCB00"/>
<path d="M302.425 176.128C301.275 171.482 299.975 169.389 296.316 166.303L301.955 162.795C305.615 165.883 306.914 167.976 308.064 172.622L302.425 176.128Z" fill="#FF4F5D"/>
<path d="M326.8 197.701C327.506 200.018 328.221 201.038 330.151 202.499L327.401 204.424C325.47 202.973 324.757 201.937 324.047 199.628L326.8 197.701Z" fill="#FF4F5D"/>
<path d="M295.296 87.2033C293.846 91.1408 293.776 93.3023 294.925 97.3413L289.109 97.1341C287.961 93.0971 288.04 90.9377 289.477 86.9961L295.296 87.2033Z" fill="#FF4F5D"/>
<path d="M289.969 129.609C292.96 132.6 294.899 133.59 299.083 134.254L296.419 139.482C292.241 138.817 290.304 137.824 287.305 134.838C288.371 132.745 288.904 131.7 289.969 129.609Z" fill="#FF4F5D"/>
<path d="M222.347 3.38086C225.339 6.37127 227.278 7.36186 231.462 8.02501L228.798 13.2536C224.62 12.5884 222.683 11.5957 219.684 8.60942C220.75 6.51634 221.283 5.47187 222.347 3.38086Z" fill="#FF4F5D"/>
<path d="M353.727 144.68C351.759 147.066 351.174 148.547 350.98 151.631L346.992 150.052C347.187 146.97 347.771 145.493 349.737 143.105L353.727 144.68Z" fill="#FF4F5D"/>
<path d="M332.233 110.453C327.715 108.984 325.266 108.984 320.742 110.435C320.742 107.797 320.742 106.479 320.742 103.838C325.268 102.388 327.711 102.388 332.235 103.851C332.237 106.497 332.235 107.815 332.233 110.453Z" fill="#FFCB00"/>
<path d="M378.718 168.056C376.491 167.517 375.316 167.604 373.197 168.47C373.102 167.202 373.052 166.568 372.957 165.302C375.076 164.431 376.251 164.342 378.477 164.887C378.573 166.16 378.618 166.781 378.718 168.056Z" fill="#FFCB00"/>
<path d="M46.3545 51.765C44.1277 51.2261 42.9531 51.3132 40.834 52.1794C40.7387 50.9111 40.689 50.277 40.5938 49.0108C42.7129 48.1404 43.8874 48.0513 46.1142 48.5963C46.2095 49.8687 46.2551 50.4905 46.3545 51.765Z" fill="#FFCB00"/>
<path d="M352.758 67.4609C354.163 70.6462 355.352 71.9808 358.351 73.734L354.753 76.9503C351.752 75.1971 350.558 73.8625 349.16 70.6814C350.598 69.4027 351.319 68.7499 352.758 67.4609Z" fill="#FF4F5D"/>
<path d="M311.477 63.9951C309.739 64.3246 308.939 64.7639 307.728 66.053L306.547 63.8977C307.759 62.6087 308.56 62.1714 310.296 61.8398C310.771 62.7019 311.005 63.133 311.477 63.9951Z" fill="#01B5D6"/>
<path d="M263.02 205.322C262.788 210.88 263.555 213.635 266.627 218.275L259.192 220.347C256.124 215.709 255.356 212.953 255.59 207.397C258.565 206.562 260.052 206.149 263.02 205.322Z" fill="#01B5D6"/>
<path d="M363.518 108.195C365.911 112.92 367.829 114.852 372.54 117.272L367.33 122.453C362.623 120.033 360.701 118.101 358.309 113.374L363.518 108.195Z" fill="url(#paint0_linear_5716_72239)"/>
<path d="M142.62 0C145.012 4.72498 146.931 6.65642 151.641 9.07693L146.431 14.2578C141.725 11.8373 139.803 9.90588 137.41 5.17882L142.62 0Z" fill="url(#paint1_linear_5716_72239)"/>
<path d="M96.5575 20.2871C91.7579 25.6752 88.6983 27.9797 82.1836 31.0924C83.7268 33.144 84.4974 34.1761 86.0427 36.2277C92.5575 33.1192 95.617 30.8209 100.417 25.4245L96.5575 20.2871Z" fill="#FF4F5D"/>
<path d="M115.207 13.5938C117.772 14.5575 119.002 15.3284 120.991 17.2122C121.506 16.3832 121.765 15.9688 122.283 15.1398C120.292 13.256 119.062 12.4831 116.5 11.5215L115.207 13.5938Z" fill="#FFCB00"/>
<path d="M58.6431 67.7409C54.6659 73.3238 53.1869 76.6396 51.6871 83.325L46.1211 80.8382C47.6208 74.1507 49.1019 70.8349 53.075 65.252L58.6431 67.7409Z" fill="#FFCB00"/>
<path d="M180.193 27.1332C176.997 24.922 175.106 24.1076 171.305 23.3097C171.849 22.0394 172.133 21.4032 172.67 20.1328C176.471 20.9307 178.362 21.7451 181.558 23.9563C181.012 25.2267 180.74 25.8629 180.193 27.1332Z" fill="#FFCB00"/>
<path d="M133.268 53.5793C129.405 53.542 127.508 54.1367 124.361 56.3749C123.721 54.3274 123.398 53.3057 122.758 51.2541C125.909 49.018 127.806 48.4253 131.665 48.4647C132.309 50.5101 132.628 51.5318 133.268 53.5793Z" fill="#FF4F5D"/>
<path d="M70.6957 95.4346C68.9577 95.7641 68.1582 96.2034 66.9463 97.4924L65.7656 95.3372C66.9774 94.0481 67.7791 93.6109 69.515 93.2793C69.9893 94.1414 70.2234 94.5725 70.6957 95.4346Z" fill="#01B5D6"/>
<path d="M183.717 55.8227C183.717 55.8227 190.626 56.8589 190.483 49.2617C190.483 49.2617 190.23 45.4879 173.555 32.2683L165.329 32.0859L164.397 33.5532C164.19 33.0123 164.113 33.7853 167.297 36.5912C170.265 39.1817 179.533 46.4432 183.717 55.8227Z" fill="url(#paint2_linear_5716_72239)"/>
<path d="M154.546 51.1416C154.546 51.1416 152.5 52.5798 150.66 59.2238C150.66 59.2238 153.803 56.3805 160.067 58.1876C166.331 59.9947 178.658 64.3425 184.388 60.6744C185.552 59.9808 186.6 59.1096 187.495 58.0923C188.848 56.5318 191.103 52.3311 190.48 49.2578C190.48 49.2578 191.176 55.0936 181.554 55.1682C176.514 55.2076 157.645 50.6401 154.546 51.1416Z" fill="url(#paint3_linear_5716_72239)"/>
<path d="M197.192 30.6253C197.192 30.6253 204.102 31.6615 203.96 24.0643C203.96 24.0643 203.705 20.2905 187.029 7.07091L181.13 5.63477L177.869 8.35163C177.662 7.80867 177.586 8.58166 180.782 11.3876C183.742 13.9843 193.006 21.2583 197.192 30.6253Z" fill="url(#paint4_linear_5716_72239)"/>
<path d="M168.027 25.9504C168.027 25.9504 165.98 27.3886 164.141 34.0326C164.141 34.0326 167.285 31.1873 173.547 32.9964C179.809 34.8056 192.139 39.1493 197.87 35.4833C199.033 34.7867 200.081 33.9143 200.977 32.897C202.33 31.3365 204.586 27.1379 203.962 24.0625C203.962 24.0625 204.658 29.9003 195.037 29.9729C189.995 30.0185 171.126 25.4489 168.027 25.9504Z" fill="url(#paint5_linear_5716_72239)"/>
<path d="M270.897 231.571C270.897 231.571 272.308 223.12 283.771 222.727C295.235 222.333 296.306 217.339 296.306 217.339L295.908 211.383C295.908 211.383 298.29 209.068 290.009 208.525C281.727 207.982 262.299 216.456 265.576 224.43C269.971 235.15 270.897 231.571 270.897 231.571Z" fill="#8943C2"/>
<path d="M265.338 221.574C265.338 221.574 264.058 227.157 265.603 234.381C266.351 237.904 275.289 244.563 284.936 240.719C284.936 240.719 286.603 240.739 287.931 236.522C289.259 232.305 290.114 228.977 289.008 228.27C289.008 228.27 286.674 230.175 282.68 230.255C280.159 230.303 278.452 229.841 274.208 228.581C267.351 226.558 264.925 223.379 265.338 221.574Z" fill="#B459FF"/>
<path d="M261.082 19.5431C261.082 19.5431 258.707 16.3433 252.538 15.8128C246.369 15.2823 242.671 18.339 235.809 12.4805C235.809 12.4805 239.214 19.5141 246.427 20.4508C253.64 21.3875 258.251 18.7929 262.427 23.5717L261.082 19.5431Z" fill="#B459FF"/>
<path d="M298.223 37.2516C315.913 41.5704 324.379 44.9732 337.995 53.2482L347.132 44.3598C333.508 36.089 325.044 32.6842 307.36 28.3633L298.223 37.2516Z" fill="#FF4F5D"/>
<path d="M190.193 229.56C183.695 231.765 180.551 233.592 175.413 238.145L172.348 232.865C177.483 228.306 180.634 226.482 187.128 224.279L190.193 229.56Z" fill="#FFCB00"/>
<path d="M286.184 283.908C286.499 279.633 286.215 277.382 284.848 273.321L288.628 272.842C289.997 276.904 290.285 279.158 289.964 283.432L286.184 283.908Z" fill="#FFCB00"/>
<path d="M207.489 251.034C204.73 255.059 204.017 257.459 204.141 262.341L197.654 260.416C197.531 255.54 198.244 253.136 201.001 249.113L207.489 251.034Z" fill="#FF4F5D"/>
<path d="M251.251 263.443C248.351 263.675 246.963 264.249 244.749 266.137C244.127 264.645 243.817 263.899 243.199 262.407C245.412 260.513 246.797 259.939 249.702 259.713C250.319 261.201 250.63 261.947 251.251 263.443Z" fill="#01B5D6"/>
<defs>
<linearGradient id="paint0_linear_5716_72239" x1="358.947" y1="109.227" x2="373.806" y2="124.973" gradientUnits="userSpaceOnUse">
<stop stop-color="#CE38BF"/>
<stop offset="0.73" stop-color="#E051CA"/>
<stop offset="1" stop-color="#E85CCF"/>
</linearGradient>
<linearGradient id="paint1_linear_5716_72239" x1="138.048" y1="1.03203" x2="152.907" y2="16.7776" gradientUnits="userSpaceOnUse">
<stop stop-color="#CE38BF"/>
<stop offset="0.73" stop-color="#E051CA"/>
<stop offset="1" stop-color="#E85CCF"/>
</linearGradient>
<linearGradient id="paint2_linear_5716_72239" x1="162.435" y1="35.232" x2="189.343" y2="52.5223" gradientUnits="userSpaceOnUse">
<stop stop-color="#5C5894"/>
<stop offset="0.47" stop-color="#6862C1"/>
<stop offset="1" stop-color="#7E78E1"/>
</linearGradient>
<linearGradient id="paint3_linear_5716_72239" x1="153.166" y1="50.1331" x2="189.922" y2="61.2047" gradientUnits="userSpaceOnUse">
<stop stop-color="#7E78E1"/>
<stop offset="0.09" stop-color="#7068DC"/>
<stop offset="0.18" stop-color="#6661B8"/>
<stop offset="0.26" stop-color="#6661B6"/>
<stop offset="0.29" stop-color="#645FAF"/>
<stop offset="0.3" stop-color="#625DA9"/>
<stop offset="0.31" stop-color="#6761BA"/>
<stop offset="0.32" stop-color="#6C66CB"/>
<stop offset="0.34" stop-color="#6F69D6"/>
<stop offset="0.36" stop-color="#716BDD"/>
<stop offset="0.43" stop-color="#726BDF"/>
<stop offset="0.49" stop-color="#716ADD"/>
<stop offset="0.51" stop-color="#6F68D6"/>
<stop offset="0.52" stop-color="#6B64CB"/>
<stop offset="0.53" stop-color="#6A63C8"/>
<stop offset="0.58" stop-color="#6C65C9"/>
<stop offset="0.61" stop-color="#726CCE"/>
<stop offset="0.62" stop-color="#7E77D7"/>
<stop offset="0.63" stop-color="#8E88E3"/>
<stop offset="0.64" stop-color="#948EE7"/>
<stop offset="0.69" stop-color="#928CE6"/>
<stop offset="0.71" stop-color="#8B85E5"/>
<stop offset="0.72" stop-color="#7E78E1"/>
<stop offset="0.9" stop-color="#645EB1"/>
<stop offset="1" stop-color="#5F5A9C"/>
</linearGradient>
<linearGradient id="paint4_linear_5716_72239" x1="176.025" y1="10.1451" x2="202.931" y2="27.4343" gradientUnits="userSpaceOnUse">
<stop stop-color="#5C5894"/>
<stop offset="0.47" stop-color="#6862C1"/>
<stop offset="1" stop-color="#7E78E1"/>
</linearGradient>
<linearGradient id="paint5_linear_5716_72239" x1="166.762" y1="25.0507" x2="203.517" y2="36.1241" gradientUnits="userSpaceOnUse">
<stop stop-color="#7E78E1"/>
<stop offset="0.09" stop-color="#7068DC"/>
<stop offset="0.18" stop-color="#6661B8"/>
<stop offset="0.26" stop-color="#6661B6"/>
<stop offset="0.29" stop-color="#645FAF"/>
<stop offset="0.3" stop-color="#625DA9"/>
<stop offset="0.31" stop-color="#6761BA"/>
<stop offset="0.32" stop-color="#6C66CB"/>
<stop offset="0.34" stop-color="#6F69D6"/>
<stop offset="0.36" stop-color="#716BDD"/>
<stop offset="0.43" stop-color="#726BDF"/>
<stop offset="0.49" stop-color="#716ADD"/>
<stop offset="0.51" stop-color="#6F68D6"/>
<stop offset="0.52" stop-color="#6B64CB"/>
<stop offset="0.53" stop-color="#6A63C8"/>
<stop offset="0.58" stop-color="#6C65C9"/>
<stop offset="0.61" stop-color="#726CCE"/>
<stop offset="0.62" stop-color="#7E77D7"/>
<stop offset="0.63" stop-color="#8E88E3"/>
<stop offset="0.64" stop-color="#948EE7"/>
<stop offset="0.69" stop-color="#928CE6"/>
<stop offset="0.71" stop-color="#8B85E5"/>
<stop offset="0.72" stop-color="#7E78E1"/>
<stop offset="0.9" stop-color="#645EB1"/>
<stop offset="1" stop-color="#5F5A9C"/>
</linearGradient>
</defs>
</svg>
