<svg width="152" height="152" viewBox="0 0 152 152" fill="none" xmlns="http://www.w3.org/2000/svg">
<circle cx="76" cy="76" r="76" fill="#FFCCC9"/>
<path fill-rule="evenodd" clip-rule="evenodd" d="M71.697 60.0809C71.697 47.8038 53.1016 47.8038 53.1016 60.0809C53.1016 60.8937 53.4244 61.6732 53.9992 62.2479C54.5739 62.8226 55.3533 63.1455 56.1661 63.1455C56.9789 63.1455 57.7584 62.8226 58.3331 62.2479C58.9078 61.6732 59.2307 60.8937 59.2307 60.0809C59.2307 59.2681 59.5535 58.4886 60.1283 57.9139C60.703 57.3392 61.4825 57.0163 62.2952 57.0163C63.108 57.0163 63.8875 57.3392 64.4622 57.9139C65.0369 58.4886 65.3598 59.2681 65.3598 60.0809C65.3598 64.0345 71.697 64.0345 71.697 60.0809Z" fill="#FB4034"/>
<path fill-rule="evenodd" clip-rule="evenodd" d="M98.611 60.0809C98.611 47.8038 80.0156 47.8038 80.0156 60.0809C80.0156 60.8937 80.3385 61.6732 80.9132 62.2479C81.4879 62.8226 82.2674 63.1455 83.0802 63.1455C83.8929 63.1455 84.6724 62.8226 85.2471 62.2479C85.8219 61.6732 86.1447 60.8937 86.1447 60.0809C86.2064 59.2828 86.567 58.5374 87.1545 57.9937C87.7419 57.4499 88.5129 57.1479 89.3133 57.1479C90.1138 57.1479 90.8848 57.4499 91.4722 57.9937C92.0596 58.5374 92.4202 59.2828 92.4819 60.0809C92.4819 60.8937 92.8048 61.6732 93.3795 62.2479C93.9542 62.8226 94.7337 63.1455 95.5465 63.1455C96.3593 63.1455 97.1387 62.8226 97.7134 62.2479C98.2882 61.6732 98.611 60.8937 98.611 60.0809Z" fill="#FB4034"/>
<path fill-rule="evenodd" clip-rule="evenodd" d="M104.951 102.436C98.6142 71.3744 54.0835 70.5799 46.7627 101.452C45.779 105.406 39.631 104.025 40.6336 100.071C49.5245 62.6537 103.362 63.6374 111.099 101.055C111.217 101.844 111.031 102.648 110.58 103.306C110.128 103.964 109.445 104.427 108.667 104.602C107.889 104.776 107.073 104.65 106.384 104.249C105.695 103.847 105.183 103.199 104.951 102.436Z" fill="#FB4034"/>
</svg>
