<svg width="147" height="121" viewBox="0 0 147 121" fill="none" xmlns="http://www.w3.org/2000/svg">
<path d="M75.8452 110.224C85.9231 110.239 95.7788 107.277 104.165 101.713C112.552 96.1501 119.092 88.2356 122.958 78.9714C126.825 69.7071 127.844 59.5094 125.886 49.6686C123.929 39.8277 119.083 30.786 111.961 23.6874C104.84 16.5888 95.7638 11.7524 85.8805 9.79009C75.9972 7.8278 65.7513 8.82782 56.4391 12.6636C47.1269 16.4994 39.167 22.9986 33.5665 31.3389C27.966 39.6791 24.9766 49.4856 24.9766 59.5175C24.9673 66.1731 26.2761 72.7652 28.8283 78.9169C31.3805 85.0685 35.126 90.659 39.8505 95.3685C44.575 100.078 50.1859 103.814 56.3622 106.363C62.5385 108.912 69.159 110.224 75.8452 110.224Z" fill="#EEF1FF" stroke="#BBC4D9" stroke-width="2" stroke-miterlimit="10"/>
<path d="M136.175 71.0323C136.944 71.0283 137.696 70.7974 138.334 70.3688C138.972 69.9402 139.468 69.333 139.76 68.6239C140.052 67.9148 140.126 67.1356 139.974 66.3845C139.821 65.6335 139.448 64.9442 138.902 64.4038C138.357 63.8634 137.662 63.496 136.907 63.348C136.152 63.1999 135.369 63.2779 134.659 63.5721C133.948 63.8662 133.34 64.3634 132.913 65.0008C132.486 65.6382 132.258 66.3873 132.258 67.1536C132.256 67.665 132.357 68.1717 132.554 68.6442C132.75 69.1167 133.039 69.5457 133.403 69.9064C133.768 70.2672 134.2 70.5524 134.676 70.7456C135.151 70.9389 135.661 71.0363 136.175 71.0323Z" fill="#EEF1FF"/>
<path d="M29.5032 24.67C30.0103 24.67 30.506 24.5204 30.9276 24.2399C31.3492 23.9595 31.6778 23.5609 31.8719 23.0946C32.0659 22.6283 32.1167 22.1151 32.0178 21.6201C31.9188 21.125 31.6747 20.6703 31.3161 20.3134C30.9576 19.9565 30.5007 19.7134 30.0034 19.615C29.5061 19.5165 28.9906 19.567 28.5221 19.7602C28.0537 19.9533 27.6533 20.2804 27.3715 20.7001C27.0898 21.1198 26.9395 21.6132 26.9395 22.118C26.9381 22.4535 27.0035 22.786 27.1319 23.0962C27.2603 23.4064 27.449 23.6883 27.6874 23.9255C27.9257 24.1628 28.2089 24.3507 28.5205 24.4785C28.8322 24.6063 29.1662 24.6714 29.5032 24.67Z" fill="#EEF1FF"/>
<path d="M71.5415 100.948C71.5434 103.23 71.0718 105.487 70.1561 107.578C69.2405 109.669 67.9007 111.549 66.2206 113.101C65.3172 113.929 64.3203 114.649 63.2499 115.248C60.6961 116.714 57.7997 117.486 54.8515 117.486C51.9032 117.486 49.0069 116.714 46.4531 115.248C46.0556 115.048 45.6804 114.807 45.334 114.529C42.9989 112.893 41.1262 110.686 39.8961 108.121C38.666 105.556 38.1199 102.719 38.3105 99.883C38.5011 97.0469 39.4219 94.3075 40.9843 91.9284C42.5466 89.5492 44.698 87.6105 47.2311 86.2988C49.7643 84.9871 52.5941 84.3466 55.448 84.4389C58.3019 84.5313 61.0839 85.3534 63.5261 86.8261C65.9683 88.2989 67.9886 90.3726 69.3924 92.8477C70.7962 95.3229 71.5363 98.1161 71.5415 100.958V100.948Z" fill="#EEF1FF" stroke="#BBC4D9" stroke-width="2" stroke-miterlimit="10"/>
<path d="M51.478 104.624C51.6915 104.886 51.93 105.127 52.1902 105.343C52.3937 105.546 52.5971 105.647 52.8108 105.85C53.0244 106.052 53.116 106.052 53.2177 106.153C53.2447 106.153 53.2706 106.164 53.2897 106.183C53.3088 106.202 53.3195 106.228 53.3195 106.255L53.4212 106.356V107.784L53.3195 107.683C53.2177 107.581 53.0143 107.48 52.9125 107.379C52.8108 107.278 52.4954 107.075 52.2919 106.974C52.0885 106.873 52.1902 106.873 52.0885 106.873C51.3763 106.457 50.7557 106.052 50.7557 105.546C50.9436 105.201 51.1877 104.89 51.478 104.624ZM65.7212 112.513C65.1739 111.115 64.1564 109.948 62.8421 109.212C62.1031 108.857 61.301 108.65 60.4818 108.604H59.4644C58.3351 108.503 58.2334 108.3 58.2334 108.3V105.951C58.9611 105.327 59.6412 104.65 60.2681 103.926C60.8267 103.167 61.2121 102.296 61.3974 101.373C61.8478 101.276 62.245 101.014 62.5106 100.639C62.7762 100.264 62.8908 99.8031 62.8319 99.348C62.8319 98.9429 62.5267 98.5378 62.5267 98.1226V96.6643C62.4116 95.8837 62.1675 95.1274 61.8044 94.4262C61.2193 93.3185 60.3416 92.3908 59.2659 91.7429C58.1902 91.0951 56.9573 90.7518 55.7001 90.75C55.1827 90.7682 54.6682 90.8361 54.1639 90.9525C53.2173 91.1405 52.3307 91.554 51.5798 92.1577C51.4186 92.2681 51.2775 92.4051 51.1626 92.5628L51.0609 92.664C50.2076 93.4441 49.573 94.4318 49.2195 95.53C48.8663 96.614 48.762 97.7629 48.9143 98.8923V99.0948C48.9143 99.2974 49.016 99.2974 48.9143 99.3986C48.8125 99.4999 48.8125 99.4999 48.8125 99.6012C48.6895 99.7978 48.616 100.021 48.5982 100.252C48.5805 100.483 48.6191 100.715 48.7108 100.928C49.1177 101.941 49.7282 101.849 50.4505 102.356C50.4362 102.356 50.4221 102.359 50.4091 102.364C50.396 102.37 50.3843 102.378 50.3747 102.389C50.3651 102.399 50.3578 102.412 50.3534 102.425C50.3489 102.439 50.3473 102.453 50.3488 102.467L49.6264 102.67C46.3505 103.682 45.2314 106.437 46.6659 108.179C47.3407 108.916 48.2362 109.417 49.2195 109.607C48.9067 109.635 48.6162 109.78 48.4056 110.012C47.0079 111.128 46.0909 112.732 45.8418 114.498V114.802C46.2487 115.015 46.5641 115.319 46.9711 115.521L63.0049 115.146C63.8745 114.604 64.6799 113.965 65.4058 113.243C65.3041 112.756 65.823 112.615 65.7212 112.513Z" fill="white"/>
<path d="M66.2206 113.091C65.3172 113.918 64.3203 114.639 63.2499 115.238C60.6961 116.704 57.7997 117.476 54.8515 117.476C51.9032 117.476 49.0069 116.704 46.4531 115.238C46.0556 115.038 45.6804 114.797 45.334 114.519V114.215C45.5785 112.45 46.4921 110.844 47.8876 109.728C48.1298 109.536 48.4109 109.398 48.7117 109.323C48.2092 109.267 47.7232 109.111 47.2827 108.864C46.8423 108.617 46.4563 108.284 46.1479 107.885H50.0444C50.5971 108.664 51.3308 109.298 52.1828 109.734C53.0349 110.169 53.9801 110.393 54.938 110.387C55.7576 110.387 56.5692 110.225 57.3254 109.91C58.0817 109.596 58.7675 109.134 59.3432 108.554H60.3606C61.1867 108.551 61.9997 108.76 62.7209 109.161C64.1183 109.913 65.2323 111.097 65.8951 112.534C66.1291 112.686 66.1291 112.888 66.2206 113.091Z" fill="#BBC4D9"/>
<path d="M58.3369 105.951V108.098L51.8867 108.301L52.1919 106.873C52.2937 106.873 52.2937 106.974 52.3954 106.974C52.4971 106.974 52.8125 107.278 53.016 107.379C53.1319 107.504 53.2698 107.607 53.4229 107.683C53.4499 107.683 53.4758 107.694 53.4949 107.713C53.514 107.732 53.5247 107.757 53.5247 107.784V106.336L53.4229 106.235C54.5522 106.873 56.0885 107.278 58.3369 105.951Z" fill="#EEF1FF"/>
<path d="M62.5382 97.0794C61.2505 97.5021 59.893 97.674 58.54 97.5857C56.3831 97.3996 54.3399 96.5422 52.7002 95.135C52.3944 95.8945 51.9375 96.5847 51.3571 97.1642C50.7767 97.7437 50.0847 98.2006 49.3226 98.5073C49.137 98.6196 48.9283 98.6889 48.7122 98.7099V98.6086C48.5605 97.4759 48.6647 96.3237 49.0174 95.2362C49.3766 94.1411 50.0145 93.1573 50.869 92.3803L50.9707 92.2791C51.0725 92.1778 51.2861 92.0765 51.3878 91.874C52.1196 91.2666 52.9892 90.846 53.9211 90.6486C54.4254 90.5321 54.9399 90.4643 55.4573 90.446C56.7171 90.4354 57.9551 90.7735 59.033 91.4227C60.1109 92.0718 60.9864 93.0065 61.5616 94.1222C61.9061 94.8311 62.1492 95.5844 62.2839 96.3603C62.4303 96.5738 62.518 96.8217 62.5382 97.0794Z" fill="#BBC4D9"/>
<path d="M54.3375 112.179C53.9876 112.472 53.5786 112.687 53.1381 112.81C52.6975 112.932 52.2357 112.959 51.7839 112.888C52.6995 111.966 52.1909 109.009 48.9149 109.323C44.408 108.503 44.8454 103.814 49.3219 102.386L50.0442 102.173L50.1459 102.275C50.4373 103.134 50.8895 103.932 51.4787 104.624C49.6372 106.153 52.1908 106.569 53.4219 107.784C54.4494 108.361 55.365 110.954 54.3375 112.179Z" fill="#BBC4D9"/>
<path d="M117.618 60.3483C117.612 64.7121 115.934 68.9094 112.928 72.0857C112.707 72.3734 112.43 72.6143 112.114 72.7946C108.953 75.7463 104.78 77.3869 100.445 77.3823C96.9624 77.395 93.5611 76.3336 90.7089 74.3441C89.9151 73.7891 89.1636 73.1764 88.4605 72.5111C86.8334 70.9314 85.544 69.0405 84.6698 66.952C83.7956 64.8636 83.3547 62.6208 83.3736 60.3584C83.4827 55.9033 85.3371 51.6672 88.5411 48.5546C91.7451 45.442 96.0445 43.6997 100.521 43.6997C104.998 43.6997 109.298 45.442 112.502 48.5546C115.706 51.6672 117.56 55.9033 117.669 60.3584L117.618 60.3483Z" fill="white"/>
<path d="M117.618 60.348C117.599 64.8842 115.783 69.2298 112.563 72.4403C109.344 75.6508 104.981 77.4667 100.424 77.4933C95.8916 77.472 91.551 75.6688 88.3478 72.4764C85.1446 69.2841 83.3383 64.9612 83.3223 60.4492C83.4172 55.9933 85.2587 51.7509 88.4535 48.6282C91.6483 45.5055 95.943 43.7501 100.42 43.7369C104.898 43.7237 109.203 45.4537 112.416 48.5574C115.63 51.6612 117.496 55.8926 117.618 60.348Z" fill="#EEF1FF" stroke="#BBC4D9" stroke-width="2" stroke-miterlimit="10"/>
<path d="M112.929 72.0857C112.707 72.3733 112.431 72.6143 112.115 72.7946C108.953 75.7462 104.78 77.3869 100.446 77.3822C96.9628 77.3949 93.5616 76.3336 90.7093 74.344C89.9155 73.789 89.164 73.1763 88.4609 72.511C89.1163 71.8692 89.9306 71.4115 90.8212 71.1843L91.3299 70.9818C92.3473 70.5767 93.7818 70.0602 95.6334 69.25C95.9072 69.1341 96.1508 68.9575 96.3456 68.7336C96.4076 68.6854 96.4581 68.624 96.4933 68.5539C96.5285 68.4838 96.5475 68.4068 96.549 68.3285C96.6647 68.1048 96.7339 67.8603 96.7525 67.6094V64.1257L96.549 63.9231C96.2174 63.4818 96.0389 62.9451 96.0404 62.3939L95.8369 62.2926C94.9111 62.4952 95.0128 61.5736 94.8195 59.7406C94.7178 59.0216 94.8195 58.819 95.2265 58.7279L95.5317 58.3228C94.9844 57.1343 94.6734 55.8515 94.616 54.5453C94.5487 53.8775 94.6772 53.2046 94.9859 52.6079C95.2947 52.0112 95.7704 51.5163 96.3557 51.1831C96.0513 50.6789 95.8443 50.1224 95.7453 49.5425C97.3316 49.8393 98.9436 49.9784 100.557 49.9577C102.094 49.6438 104.546 50.059 105.471 52.0945C106.047 52.2782 106.559 52.6183 106.951 53.0763C107.343 53.5344 107.599 54.0923 107.689 54.6871C107.893 56.3176 106.977 58.0493 106.774 58.738V58.8393C106.977 58.9405 107.079 59.1431 106.977 59.852C106.774 61.5837 106.774 62.6066 105.96 62.404L105.146 63.832C105.146 64.0345 105.146 64.0345 105.044 64.1358V67.7006C105.034 68.0339 105.142 68.3603 105.349 68.6222C105.451 68.7234 105.451 68.8247 105.553 68.8247C105.756 69.0272 105.96 69.2399 106.163 69.2399C108.198 70.0501 109.643 70.6679 110.772 71.0729C111.529 71.3224 112.254 71.6625 112.929 72.0857Z" fill="white"/>
<path d="M112.929 72.0855C112.707 72.3732 112.431 72.6141 112.115 72.7944C108.953 75.7461 104.78 77.3867 100.446 77.382C96.9628 77.3948 93.5616 76.3334 90.7093 74.3439C89.9155 73.7888 89.164 73.1762 88.4609 72.5108C89.1163 71.869 89.9306 71.4113 90.8212 71.1842L91.3299 70.9816C92.3473 70.5765 93.7818 70.0601 95.6334 69.2499C95.9072 69.134 96.1508 68.9573 96.3456 68.7334C96.8662 69.4663 97.5573 70.0627 98.3599 70.4719C99.1624 70.881 100.053 71.0907 100.954 71.0829C101.822 71.075 102.676 70.8712 103.454 70.4871C104.231 70.1029 104.91 69.5483 105.441 68.865C105.644 69.0676 105.848 69.2803 106.051 69.2803C108.086 70.0904 109.531 70.7082 110.66 71.1133C111.457 71.3322 112.221 71.6593 112.929 72.0855Z" fill="#BBC4D9"/>
<path d="M106.671 58.6163C106.723 58.151 106.612 57.6822 106.356 57.2896C106.356 57.1883 106.254 57.1883 106.254 57.087C105.874 56.4563 105.333 55.9367 104.687 55.581C104.04 55.2253 103.31 55.0461 102.571 55.0616C98.7867 54.8591 98.5018 55.5781 97.3522 54.5552C97.5662 54.9378 97.6612 55.375 97.625 55.8114C97.5887 56.2478 97.423 56.6637 97.1487 57.006C96.727 57.6699 96.0634 58.1453 95.2971 58.3327C93.5574 54.454 94.4832 52.0032 96.1212 51.2436C95.8121 50.7407 95.6015 50.184 95.5006 49.603C97.0902 49.9001 98.7056 50.0392 100.323 50.0182C101.849 49.7043 104.311 50.1195 105.237 52.1551C105.81 52.3294 106.323 52.6582 106.72 53.105C107.117 53.5519 107.382 54.0994 107.485 54.6869C107.841 56.1655 106.875 57.8972 106.671 58.6163Z" fill="#BBC4D9"/>
<path d="M96.8343 67.5888V64.1253L96.6309 63.9228V63.7202C96.8124 64.0374 97.0584 64.3133 97.3532 64.5304L100.11 66.4748C100.416 66.7198 100.796 66.8533 101.189 66.8533C101.581 66.8533 101.962 66.7198 102.267 66.4748L104.79 64.2266C104.892 64.1253 105.004 64.1253 105.106 64.024V67.5888C105.089 67.7671 105.124 67.9465 105.207 68.1053H96.8343C96.7326 67.9028 96.8343 67.8521 96.8343 67.5888Z" fill="#BBC4D9"/>
<path d="M2.83789 72.187C2.84058 73.7548 3.46742 75.2575 4.58107 76.3661C5.69473 77.4747 7.2044 78.0986 8.77934 78.1013H61.408C61.9003 78.0978 62.3759 78.2785 62.7407 78.6077L70.1065 85.96C70.2221 86.1115 70.3893 86.2157 70.5767 86.253C70.764 86.2903 70.9586 86.2581 71.1239 86.1626C71.2895 86.0919 71.4333 85.9787 71.5405 85.8346C71.6478 85.6905 71.7146 85.5206 71.7343 85.3423V51.3756C71.7356 50.5989 71.5833 49.8296 71.2859 49.1115C70.9886 48.3935 70.552 47.7407 70.0013 47.1906C69.4505 46.6405 68.7963 46.2037 68.0759 45.9052C67.3556 45.6068 66.5832 45.4525 65.803 45.4512H8.77934C7.20263 45.4539 5.69143 46.0792 4.57748 47.19C3.46354 48.3007 2.83789 49.8061 2.83789 51.3756V72.187Z" fill="white" stroke="#BBC4D9" stroke-width="2" stroke-miterlimit="10"/>
<path d="M46.5859 21.0243C46.5859 22.5938 47.2116 24.0992 48.3255 25.2099C49.4395 26.3207 50.9507 26.946 52.5274 26.9487H61.409C61.9014 26.9452 62.377 27.1259 62.7418 27.4551L70.1076 34.7973C70.2203 34.9525 70.3877 35.0596 70.5763 35.0972C70.765 35.1348 70.9609 35.1 71.1249 34.9999C71.2892 34.93 71.432 34.8184 71.5392 34.6762C71.6463 34.534 71.714 34.3662 71.7354 34.1897V10.3401C71.7354 8.77326 71.1108 7.27047 69.9987 6.16161C68.8867 5.05276 67.3781 4.42846 65.8041 4.42578H52.5274C50.9524 4.42846 49.4428 5.05243 48.3291 6.161C47.2155 7.26956 46.5886 8.77233 46.5859 10.3401V21.0243Z" fill="white" stroke="#BBC4D9" stroke-width="2" stroke-miterlimit="10"/>
<path d="M58.8443 58.7377H13.5916C13.377 58.7256 13.1744 58.6353 13.0224 58.484C12.8705 58.3327 12.7797 58.131 12.7676 57.9174V55.2438C12.7821 55.0319 12.8739 54.8327 13.0257 54.6835C13.1774 54.5343 13.3787 54.4454 13.5916 54.4336H58.8443C59.0573 54.4454 59.2586 54.5343 59.4103 54.6835C59.5621 54.8327 59.6539 55.0319 59.6684 55.2438V57.8971C59.6828 58.0091 59.6716 58.123 59.6356 58.2301C59.5995 58.3372 59.5397 58.4348 59.4604 58.5156C59.3812 58.5965 59.2846 58.6584 59.1779 58.6969C59.0712 58.7353 58.9572 58.7493 58.8443 58.7377Z" fill="#EEF1FF" stroke="#BBC4D9" stroke-width="2" stroke-miterlimit="10"/>
<path d="M41.4371 69.878H13.5916C13.377 69.8659 13.1744 69.7756 13.0224 69.6243C12.8705 69.473 12.7797 69.2713 12.7676 69.0577V66.374C12.7797 66.1604 12.8705 65.9587 13.0224 65.8074C13.1744 65.6561 13.377 65.5658 13.5916 65.5537H41.4371C41.6517 65.5658 41.8543 65.6561 42.0063 65.8074C42.1583 65.9587 42.249 66.1604 42.2612 66.374V69.0172C42.279 69.1308 42.2703 69.2469 42.2359 69.3566C42.2014 69.4663 42.142 69.5667 42.0624 69.6499C41.9827 69.7331 41.8849 69.797 41.7765 69.8365C41.668 69.8761 41.5519 69.8903 41.4371 69.878Z" fill="#EEF1FF" stroke="#BBC4D9" stroke-width="2" stroke-miterlimit="10"/>
<path d="M145.27 32.093C145.276 32.7906 145.142 33.4822 144.876 34.1278C144.611 34.7734 144.22 35.3601 143.724 35.8538C143.229 36.3475 142.641 36.7384 141.993 37.0038C141.345 37.2692 140.65 37.4037 139.949 37.3997H92.6416C92.183 37.4135 91.7452 37.5935 91.4106 37.9061L84.757 44.5596C84.6308 44.6657 84.4805 44.7395 84.3192 44.7748C84.1579 44.8101 83.9904 44.8058 83.8312 44.7622C83.6828 44.7084 83.5545 44.6107 83.4635 44.4821C83.3726 44.3536 83.3234 44.2004 83.3225 44.0432V13.4184C83.3158 12.7201 83.4486 12.0273 83.7134 11.3806C83.9781 10.7338 84.3695 10.1459 84.8646 9.6511C85.3598 9.15631 85.9489 8.7645 86.5976 8.4985C87.2464 8.23249 87.9418 8.09759 88.6434 8.10165H139.848C140.548 8.09761 141.243 8.23218 141.891 8.49756C142.539 8.76294 143.128 9.15383 143.623 9.64754C144.118 10.1413 144.509 10.7279 144.775 11.3735C145.04 12.0191 145.174 12.7108 145.169 13.4083V32.093H145.27Z" fill="white" stroke="#BBC4D9" stroke-width="2" stroke-miterlimit="10"/>
<path d="M134.72 20.0519H94.0762C93.9814 20.0546 93.8871 20.0382 93.7989 20.0037C93.7107 19.9692 93.6304 19.9172 93.5629 19.851C93.4954 19.7848 93.4421 19.7056 93.4061 19.6183C93.3702 19.531 93.3524 19.4373 93.3538 19.343V16.8922C93.351 16.797 93.3678 16.7022 93.4031 16.6137C93.4384 16.5252 93.4915 16.4449 93.5591 16.3775C93.6268 16.3102 93.7075 16.2573 93.7964 16.2222C93.8853 16.187 93.9805 16.1704 94.0762 16.1732H134.72C134.816 16.1704 134.911 16.187 135 16.2222C135.089 16.2573 135.17 16.3102 135.237 16.3775C135.305 16.4449 135.358 16.5252 135.393 16.6137C135.429 16.7022 135.445 16.797 135.442 16.8922V19.343C135.444 19.4373 135.426 19.531 135.39 19.6183C135.354 19.7056 135.301 19.7848 135.233 19.851C135.166 19.9172 135.086 19.9692 134.997 20.0037C134.909 20.0382 134.815 20.0546 134.72 20.0519Z" fill="#EEF1FF" stroke="#BBC4D9" stroke-width="2" stroke-miterlimit="10"/>
<path d="M119.154 30.0475H94.0762C93.9814 30.0502 93.8871 30.0338 93.7989 29.9993C93.7107 29.9648 93.6304 29.9128 93.5629 29.8466C93.4954 29.7804 93.4421 29.7012 93.4061 29.6139C93.3702 29.5266 93.3524 29.4329 93.3538 29.3386V26.8878C93.351 26.7926 93.3678 26.6979 93.4031 26.6094C93.4384 26.5208 93.4915 26.4405 93.5591 26.3731C93.6268 26.3058 93.7075 26.2529 93.7964 26.2178C93.8853 26.1826 93.9805 26.166 94.0762 26.1688H119.154C119.25 26.166 119.345 26.1826 119.434 26.2178C119.523 26.2529 119.604 26.3058 119.671 26.3731C119.739 26.4405 119.792 26.5208 119.827 26.6094C119.863 26.6979 119.88 26.7926 119.877 26.8878V29.369C119.841 29.5422 119.752 29.7003 119.623 29.8217C119.494 29.9431 119.33 30.022 119.154 30.0475Z" fill="#EEF1FF" stroke="#BBC4D9" stroke-width="2" stroke-miterlimit="10"/>
<path d="M59.191 9.11426C57.8831 9.11426 56.6046 9.50033 55.5171 10.2236C54.4296 10.947 53.582 11.975 53.0815 13.1779C52.581 14.3807 52.45 15.7043 52.7052 16.9812C52.9604 18.2581 53.5902 19.431 54.515 20.3516C55.4398 21.2722 56.6181 21.8992 57.9009 22.1532C59.1837 22.4072 60.5133 22.2768 61.7217 21.7786C62.93 21.2803 63.9628 20.4366 64.6895 19.3541C65.4161 18.2716 65.804 16.9989 65.804 15.6969C65.804 14.8325 65.6329 13.9765 65.3006 13.1779C64.9682 12.3792 64.4811 11.6535 63.8671 11.0423C63.253 10.431 62.524 9.94615 61.7217 9.61534C60.9194 9.28452 60.0595 9.11426 59.191 9.11426ZM61.7141 12.436C61.9303 12.434 62.1421 12.4961 62.3227 12.6144C62.5033 12.7327 62.6444 12.9018 62.728 13.1002C62.8117 13.2986 62.8341 13.5173 62.7924 13.7285C62.7507 13.9396 62.6468 14.1336 62.494 14.2858C62.3411 14.4379 62.1462 14.5413 61.9341 14.5828C61.722 14.6243 61.5023 14.602 61.303 14.5187C61.1037 14.4355 60.9338 14.295 60.8149 14.1153C60.6961 13.9355 60.6337 13.7246 60.6357 13.5095C60.6343 13.3681 60.6613 13.2279 60.715 13.0971C60.7687 12.9662 60.8481 12.8473 60.9485 12.7474C61.049 12.6474 61.1684 12.5684 61.2998 12.5149C61.4313 12.4615 61.5721 12.4346 61.7141 12.436ZM56.6985 12.436C56.9677 12.462 57.2176 12.5868 57.3994 12.7862C57.5812 12.9856 57.682 13.2453 57.682 13.5145C57.682 13.7838 57.5812 14.0434 57.3994 14.2428C57.2176 14.4422 56.9677 14.5671 56.6985 14.5931C56.4098 14.5931 56.1329 14.4789 55.9287 14.2757C55.7246 14.0725 55.6099 13.7969 55.6099 13.5095C55.6086 13.3658 55.6356 13.2233 55.6896 13.0901C55.7436 12.9569 55.8234 12.8356 55.9245 12.7331C56.0256 12.6306 56.146 12.5489 56.2788 12.4927C56.4116 12.4365 56.5542 12.4069 56.6985 12.4056V12.436ZM63.0062 17.216C62.8176 17.7156 62.5317 18.1731 62.1649 18.5623C61.7981 18.9515 61.3577 19.2647 60.8689 19.484C60.3802 19.7033 59.8527 19.8242 59.3168 19.84C58.781 19.8557 58.2473 19.7659 57.7464 19.5757C57.2091 19.3664 56.7211 19.0488 56.3132 18.6427C55.9052 18.2366 55.5861 17.7509 55.3759 17.216C55.3518 17.1557 55.3404 17.0911 55.3423 17.0262C55.3443 16.9613 55.3595 16.8975 55.3872 16.8386C55.4148 16.7798 55.4542 16.7273 55.503 16.6842C55.5518 16.6411 55.609 16.6084 55.6709 16.5881C55.7311 16.5735 55.7939 16.5735 55.8541 16.5881H62.528C62.6621 16.5907 62.79 16.6449 62.8848 16.7393C62.9797 16.8337 63.0341 16.961 63.0367 17.0945C63.0343 17.1366 63.024 17.1778 63.0062 17.216Z" fill="#BBC4D9"/>
</svg>
