<svg width="18" height="18" viewBox="0 0 18 18" fill="none" xmlns="http://www.w3.org/2000/svg">
<path fill-rule="evenodd" clip-rule="evenodd" d="M9.00288 0.466797C6.68535 0.466797 6.3945 0.47693 5.48427 0.518353C4.57582 0.559953 3.95572 0.703777 3.41314 0.914802C2.85189 1.13276 2.37579 1.42432 1.90148 1.89881C1.4268 2.37313 1.13525 2.84922 0.916577 3.41029C0.705019 3.95305 0.561018 4.57333 0.520128 5.48143C0.479417 6.39166 0.46875 6.68268 0.46875 9.00022C0.46875 11.3178 0.479061 11.6077 0.520306 12.5179C0.562084 13.4264 0.705908 14.0465 0.916755 14.5891C1.13489 15.1503 1.42645 15.6264 1.90094 16.1007C2.37508 16.5754 2.85117 16.8677 3.41207 17.0856C3.95501 17.2967 4.57528 17.4405 5.48356 17.4821C6.39379 17.5235 6.68446 17.5336 9.00182 17.5336C11.3195 17.5336 11.6095 17.5235 12.5197 17.4821C13.4282 17.4405 14.049 17.2967 14.5919 17.0856C15.153 16.8677 15.6284 16.5754 16.1025 16.1007C16.5772 15.6264 16.8687 15.1503 17.0874 14.5893C17.2972 14.0465 17.4412 13.4262 17.4839 12.5181C17.5248 11.6079 17.5354 11.3178 17.5354 9.00022C17.5354 6.68268 17.5248 6.39184 17.4839 5.4816C17.4412 4.57315 17.2972 3.95306 17.0874 3.41047C16.8687 2.84922 16.5772 2.37313 16.1025 1.89881C15.6278 1.42414 15.1532 1.13258 14.5914 0.914802C14.0474 0.703777 13.4269 0.559953 12.5185 0.518353C11.6082 0.47693 11.3185 0.466797 9.00022 0.466797H9.00288ZM8.23733 2.00457C8.46453 2.00421 8.71804 2.00457 9.00285 2.00457C11.2813 2.00457 11.5513 2.01274 12.4511 2.05363C13.2831 2.09168 13.7346 2.2307 14.0354 2.3475C14.4337 2.50217 14.7176 2.68706 15.0161 2.98573C15.3147 3.2844 15.4996 3.56885 15.6546 3.96708C15.7715 4.26752 15.9107 4.71908 15.9485 5.55109C15.9894 6.45066 15.9983 6.72088 15.9983 8.99824C15.9983 11.2756 15.9894 11.5458 15.9485 12.4454C15.9105 13.2774 15.7715 13.729 15.6546 14.0294C15.5 14.4276 15.3147 14.7112 15.0161 15.0097C14.7174 15.3084 14.4338 15.4932 14.0354 15.6479C13.735 15.7652 13.2831 15.9039 12.4511 15.942C11.5515 15.9828 11.2813 15.9917 9.00285 15.9917C6.72425 15.9917 6.4542 15.9828 5.55463 15.942C4.72262 15.9036 4.27106 15.7645 3.97008 15.6477C3.57186 15.4931 3.28741 15.3082 2.98874 15.0095C2.69007 14.7108 2.50518 14.4271 2.35016 14.0287C2.23335 13.7282 2.09415 13.2767 2.05629 12.4447C2.0154 11.5451 2.00722 11.2749 2.00722 8.99611C2.00722 6.71733 2.0154 6.44852 2.05629 5.54896C2.09433 4.71695 2.23335 4.26539 2.35016 3.96459C2.50482 3.56636 2.69007 3.28191 2.98874 2.98324C3.28741 2.68457 3.57186 2.49968 3.97008 2.34466C4.27089 2.22732 4.72262 2.08866 5.55463 2.05043C6.34184 2.01488 6.64691 2.00421 8.23733 2.00243V2.00457ZM13.5579 3.42147C12.9926 3.42147 12.5339 3.87961 12.5339 4.44513C12.5339 5.01047 12.9926 5.46914 13.5579 5.46914C14.1233 5.46914 14.5819 5.01047 14.5819 4.44513C14.5819 3.87979 14.1233 3.42147 13.5579 3.42147ZM9.0029 4.61793C6.58278 4.61793 4.62063 6.58008 4.62063 9.0002C4.62063 11.4203 6.58278 13.3816 9.0029 13.3816C11.423 13.3816 13.3845 11.4203 13.3845 9.0002C13.3845 6.58008 11.423 4.61793 9.0029 4.61793ZM9.00286 6.15572C10.5737 6.15572 11.8473 7.42916 11.8473 9.0002C11.8473 10.5711 10.5737 11.8447 9.00286 11.8447C7.43183 11.8447 6.15839 10.5711 6.15839 9.0002C6.15839 7.42916 7.43183 6.15572 9.00286 6.15572Z" fill="#5C00DD"/>
</svg>
