<svg width="18" height="18" viewBox="0 0 18 18" fill="none" xmlns="http://www.w3.org/2000/svg">
<path d="M1.66667 0.75H16.3333C16.5764 0.75 16.8096 0.846577 16.9815 1.01849C17.1534 1.19039 17.25 1.42355 17.25 1.66667V16.3333C17.25 16.5764 17.1534 16.8096 16.9815 16.9815C16.8096 17.1534 16.5764 17.25 16.3333 17.25H1.66667C1.42355 17.25 1.19039 17.1534 1.01849 16.9815C0.846577 16.8096 0.75 16.5764 0.75 16.3333V1.66667C0.75 1.42355 0.846577 1.19039 1.01849 1.01849C1.19039 0.846577 1.42355 0.75 1.66667 0.75ZM2.58333 2.58333V15.4167H15.4167V2.58333H2.58333ZM4.875 6.25C4.51033 6.25 4.16059 6.10513 3.90273 5.84727C3.64487 5.58941 3.5 5.23967 3.5 4.875C3.5 4.51033 3.64487 4.16059 3.90273 3.90273C4.16059 3.64487 4.51033 3.5 4.875 3.5C5.23967 3.5 5.58941 3.64487 5.84727 3.90273C6.10513 4.16059 6.25 4.51033 6.25 4.875C6.25 5.23967 6.10513 5.58941 5.84727 5.84727C5.58941 6.10513 5.23967 6.25 4.875 6.25ZM3.95833 7.16667H5.79167V14.0417H3.95833V7.16667ZM9 7.56083C9.53533 7.04292 10.1605 6.70833 10.8333 6.70833C12.7318 6.70833 14.0417 8.24742 14.0417 10.1458V14.0417H12.2083V10.1458C12.2083 9.72038 12.0393 9.31236 11.7385 9.01152C11.4376 8.71068 11.0296 8.54167 10.6042 8.54167C10.1787 8.54167 9.77069 8.71068 9.46985 9.01152C9.16901 9.31236 9 9.72038 9 10.1458V14.0417H7.16667V7.16667H9V7.56083Z" fill="#5C00DD"/>
</svg>
