<svg width="40" height="28" viewBox="0 0 40 28" fill="none" xmlns="http://www.w3.org/2000/svg">
<g id="Logo" clip-path="url(#clip0_9106_85069)">
<path id="Vector" fill-rule="evenodd" clip-rule="evenodd" d="M1.04946 8.6424C0.0137309 11.2006 -0.257265 14.0155 0.270785 16.7313C0.798771 19.447 2.10209 21.9416 4.01583 23.8995C5.92957 25.8574 8.3679 27.1908 11.0223 27.731C13.6769 28.2712 16.4283 27.9939 18.9288 26.9343C21.4292 25.8747 23.5664 24.0802 25.07 21.778C25.1101 21.7166 25.1497 21.6549 25.1888 21.5929C25.2164 21.5492 25.2438 21.5052 25.271 21.4611V28H26.3236C29.0301 28 31.6758 27.1789 33.9261 25.6405C36.1765 24.1023 37.9304 21.9157 38.9661 19.3575C40.0019 16.7994 40.2729 13.9845 39.7448 11.2687C39.2168 8.55301 37.9136 6.05842 35.9998 4.10052C34.086 2.14255 31.6477 0.809212 28.9933 0.269041C26.3387 -0.271195 23.5873 0.00605547 21.0868 1.06569C18.5864 2.12533 16.4492 3.91976 14.9456 6.22202C14.8772 6.3268 14.8102 6.43249 14.7446 6.53891V8.34754e-06H13.692C10.9855 8.34754e-06 8.33982 0.821109 6.08949 2.35946C3.83915 3.89774 2.0852 6.08425 1.04946 8.6424ZM12.6394 14V2.20289C10.7208 2.38207 8.87025 3.04897 7.25911 4.15027C5.35495 5.45193 3.87089 7.3021 2.99449 9.46666C2.11809 11.6313 1.88879 14.0131 2.33557 16.3111C2.78235 18.609 3.88516 20.7198 5.50445 22.3765C7.12381 24.0332 9.18699 25.1614 11.4331 25.6185C13.6792 26.0756 16.0073 25.841 18.1231 24.9444C20.1539 24.0838 21.9015 22.6504 23.1637 20.814C22.2071 21.2786 21.1371 21.5385 20.0078 21.5385C15.9384 21.5385 12.6394 18.1633 12.6394 14ZM27.3762 25.7971V14C27.3762 9.83665 24.0772 6.46154 20.0078 6.46154C18.8785 6.46154 17.8085 6.72144 16.8519 7.18602C18.1141 5.34959 19.8617 3.91614 21.8925 3.0556C24.0083 2.15898 26.3364 1.92439 28.5825 2.38148C30.8286 2.83856 32.8918 3.96682 34.5112 5.62348C36.1305 7.28021 37.2333 9.391 37.68 11.6889C38.1268 13.9869 37.8975 16.3687 37.0211 18.5333C36.1448 20.6979 34.6607 22.5481 32.7565 23.8497C31.1454 24.951 29.2948 25.6179 27.3762 25.7971ZM19.9025 19.3836C17.0793 19.3269 14.8011 16.996 14.7457 14.1077H16.7369C18.3077 14.474 19.5443 15.739 19.9025 17.3461V19.3836ZM20.113 19.3836C22.9362 19.3269 25.2145 16.996 25.2699 14.1077H23.2787C21.7077 14.474 20.4711 15.7392 20.113 17.3465V19.3836ZM25.2699 13.8923C25.2145 11.004 22.9362 8.6731 20.113 8.61644V10.6535C20.4711 12.2607 21.7076 13.5259 23.2784 13.8923H25.2699ZM19.9025 8.61644C17.0794 8.6731 14.8011 11.004 14.7457 13.8923H16.7372C18.3079 13.5259 19.5444 12.2609 19.9025 10.6539V8.61644Z" fill="#8046FD"/>
</g>
<defs>
<clipPath id="clip0_9106_85069">
<rect width="40" height="28" fill="white" transform="translate(0.0078125)"/>
</clipPath>
</defs>
</svg>
