<svg width="92" height="85" viewBox="0 0 92 85" fill="none" xmlns="http://www.w3.org/2000/svg">
<path d="M83.9499 24.5683C85.8392 24.5683 87.3177 23.0843 87.3177 21.1881C87.3177 19.2919 85.8392 17.8079 83.9499 17.8079C82.0606 17.8079 80.582 19.2919 80.582 21.1881C80.582 23.0843 82.0606 24.5683 83.9499 24.5683Z" fill="#EEF1FF"/>
<path d="M88.8781 11.3774C90.1103 11.3774 91.1781 10.388 91.1781 9.06894C91.1781 7.83227 90.1103 6.7605 88.8781 6.7605C87.5638 6.7605 86.5781 7.74983 86.5781 9.06894C86.5781 10.388 87.646 11.3774 88.8781 11.3774Z" fill="#EEF1FF"/>
<path d="M41.9744 80.9603C63.3316 80.9603 80.6637 63.5646 80.6637 42.1291C80.6637 20.6936 63.3316 3.29785 41.9744 3.29785C20.6173 3.29785 3.28516 20.6936 3.28516 42.1291C3.28516 63.5646 20.6173 80.9603 41.9744 80.9603Z" fill="#EEF1FF" stroke="#BBC4D9" stroke-width="2" stroke-miterlimit="10"/>
<path d="M80.5829 41.964C80.5829 53.5062 76.0651 63.8117 68.0972 70.902H3.77935C2.95792 70.902 2.30078 70.2424 2.30078 69.418V15.8292C2.30078 15.0048 2.95792 14.3452 3.77935 14.3452H68.8365C76.0651 21.1881 80.5829 31.0814 80.5829 41.964Z" fill="#F1F3F9" stroke="#BBC4D9" stroke-width="2" stroke-miterlimit="10"/>
<path d="M68.0159 70.8195H67.8516C68.9194 69.8302 69.7408 68.8408 70.6444 67.769C69.7408 68.9233 69.0837 69.9126 68.0159 70.8195Z" fill="#F1F3F9"/>
<path d="M30.3093 47.5703H4.68069C4.26998 47.5703 3.94141 47.2405 3.94141 46.8283V28.2784C3.94141 27.8662 4.26998 27.5364 4.68069 27.5364H30.3093C30.72 27.5364 31.0485 27.8662 31.0485 28.2784V46.7459C31.0485 47.1581 30.72 47.5703 30.3093 47.5703Z" fill="white"/>
<path d="M77.1307 26.0524H4.68069C4.26998 26.0524 3.94141 25.7227 3.94141 25.3104V16.5713C3.94141 16.1591 4.26998 15.8293 4.68069 15.8293H70.395C71.3807 16.9011 72.2843 18.0553 73.1878 19.2096C74.0914 20.4462 74.995 21.8478 75.7343 23.1669C76.2271 24.1562 76.72 25.0631 77.1307 26.0524Z" fill="white"/>
<path d="M75.7347 23.2493H64.399C64.1526 23.2493 63.9883 23.0844 63.9883 22.8371V19.7042C63.9883 19.4569 64.1526 19.292 64.399 19.292H73.1061C74.0919 20.5287 74.9133 21.8478 75.7347 23.2493Z" fill="#BBC4D9"/>
<path d="M73.7638 21.6003H66.8638C66.6174 21.6003 66.4531 21.4354 66.4531 21.1881C66.4531 20.9408 66.6174 20.7759 66.8638 20.7759H73.7638C74.0103 20.7759 74.1746 20.9408 74.1746 21.1881C74.1746 21.4354 74.0103 21.6003 73.7638 21.6003Z" fill="white"/>
<path d="M58.7311 47.5703H33.1026C32.6919 47.5703 32.3633 47.2405 32.3633 46.8283V28.2784C32.3633 27.8662 32.6919 27.5364 33.1026 27.5364H58.7311C59.1419 27.5364 59.4704 27.8662 59.4704 28.2784V46.7459C59.5526 47.1581 59.224 47.5703 58.7311 47.5703Z" fill="white"/>
<path d="M80.0886 35.9457C79.5958 32.9777 78.8565 30.1746 77.7886 27.5364H61.6065C61.1958 27.5364 60.8672 27.8662 60.8672 28.3608V46.8283C60.8672 47.2405 61.1958 47.5703 61.6065 47.5703H80.1708C80.4172 45.7565 80.5815 43.8603 80.5815 42.0466C80.5815 40.3977 80.4993 38.7488 80.2529 37.0999L80.0886 35.9457Z" fill="white"/>
<path d="M30.3093 69.0057H4.68069C4.26998 69.0057 3.94141 68.6759 3.94141 68.2637V49.7962C3.94141 49.384 4.26998 49.0542 4.68069 49.0542H30.3093C30.72 49.0542 31.0485 49.384 31.0485 49.7962V68.2637C31.0485 68.6759 30.72 69.0057 30.3093 69.0057Z" fill="white"/>
<path d="M58.7311 69.0057H33.1026C32.6919 69.0057 32.3633 68.6759 32.3633 68.2637V49.7962C32.3633 49.384 32.6919 49.0542 33.1026 49.0542H58.7311C59.1419 49.0542 59.4704 49.384 59.4704 49.7962V68.2637C59.5526 68.6759 59.224 69.0057 58.7311 69.0057Z" fill="white"/>
<path d="M79.9246 49.0542C79.7603 50.0435 79.5138 50.9504 79.2674 51.8573C79.1853 52.1871 79.1031 52.4344 79.021 52.7642C78.7745 53.6711 78.446 54.578 78.1174 55.4849C77.871 56.1444 77.5424 56.8864 77.296 57.546C77.0496 58.0406 76.8031 58.5353 76.5567 59.03C76.4746 59.2773 76.3103 59.5246 76.146 59.7719C75.6531 60.6788 75.1603 61.5857 74.5853 62.4926C74.421 62.7399 74.2567 63.0697 74.0103 63.3171C73.4353 64.1415 72.8603 64.9659 72.2853 65.7904C72.0388 66.1202 71.7924 66.3675 71.546 66.6973C70.8888 67.5217 70.1496 68.3462 69.4103 69.0882H61.4424C61.0317 69.0882 60.7031 68.7584 60.7031 68.3462V49.7962C60.7031 49.384 61.0317 49.0542 61.4424 49.0542H79.9246Z" fill="white"/>
<path d="M20.7837 60.0195C20.7837 60.1019 20.7837 60.1843 20.7016 60.2668C20.6194 60.4317 20.6194 60.5966 20.6194 60.7615C20.5373 60.8439 20.5373 60.9263 20.5373 61.0088C20.4551 61.1737 20.4551 61.3386 20.373 61.421V61.5035C20.2908 61.5859 20.2908 61.6683 20.2908 61.6683C20.2087 61.7508 20.2087 61.8332 20.1266 61.8332L21.6051 63.1523C21.6873 63.0699 21.6873 62.9875 21.7694 62.905C21.9337 62.6577 22.098 62.4103 22.1801 62.163C22.2623 62.0806 22.2623 61.9981 22.2623 61.9157C22.3444 61.6683 22.4266 61.421 22.5908 61.1737C22.5908 61.0912 22.673 61.0088 22.673 61.0088C22.7551 60.8439 22.7551 60.679 22.7551 60.5966C22.7551 60.5141 22.8373 60.4317 22.8373 60.4317C22.8373 60.3492 22.8373 60.2668 22.9194 60.2668V60.1844C22.9194 60.1019 22.9194 60.0195 22.9194 60.0195H20.7837ZM16.5944 63.7295C14.2944 63.7295 12.323 61.8332 12.323 59.5248C12.323 57.2988 13.9658 55.5675 16.0194 55.3201V53.3415C12.898 53.5888 10.3516 56.3095 10.3516 59.6072C10.3516 63.0699 13.1444 65.873 16.5944 65.873C18.3194 65.873 19.8801 65.2134 20.948 64.0592L19.4694 62.6577C18.7301 63.3997 17.6623 63.7295 16.5944 63.7295ZM17.0873 53.259V55.2377C19.0587 55.485 20.5373 56.969 20.7837 58.8652H22.8373C22.5908 55.8973 20.1266 53.5064 17.0873 53.259Z" fill="#F1F3F9"/>
<path d="M22.8358 58.9475H20.8644C20.618 56.9689 19.0573 55.4849 17.168 55.32V53.3413C20.1251 53.5062 22.5894 55.8971 22.8358 58.9475Z" fill="#BBC4D9"/>
<path d="M22.8357 60.0193C22.8357 60.1017 22.8357 60.1842 22.8357 60.1842V60.2666C22.8357 60.3491 22.8357 60.4315 22.7536 60.4315C22.7536 60.514 22.7536 60.5964 22.6714 60.5964C22.5893 60.7613 22.5893 60.9262 22.5893 61.0086C22.5893 61.0911 22.5071 61.1735 22.5071 61.1735C22.425 61.4208 22.3429 61.6682 22.1786 61.9155C22.0964 61.9979 22.0964 62.0804 22.0964 62.1628C22.0143 62.4102 21.85 62.6575 21.6857 62.9048C21.6036 62.9873 21.6036 63.0697 21.5214 63.1522L20.125 61.8331C20.2071 61.7506 20.2071 61.6682 20.2893 61.6682C20.3714 61.5857 20.3714 61.5033 20.3714 61.5033V61.4208C20.4536 61.2559 20.5357 61.0911 20.5357 61.0086C20.6179 60.9262 20.6179 60.8437 20.6179 60.7613C20.7 60.5964 20.7 60.4315 20.7 60.2666C20.7 60.1842 20.7821 60.1017 20.7821 60.0193H22.8357Z" fill="#D6DCE8"/>
<path d="M80.2536 37.0173C80.2536 36.6876 80.1714 36.3578 80.0893 35.9456L75.7357 40.3151C75.5714 40.2327 75.325 40.1502 75.1607 40.1502C74.9964 40.1502 74.75 40.2327 74.5857 40.3151L70.6429 36.3578C70.725 36.1929 70.725 36.1105 70.725 35.8631C70.725 35.1211 70.15 34.6265 69.4929 34.6265C68.8357 34.6265 68.2607 35.2036 68.2607 35.8631C68.2607 36.028 68.2607 36.1929 68.3429 36.3578L64.975 39.5731C64.8107 39.4907 64.6464 39.4907 64.4821 39.4907C63.7429 39.4907 63.25 40.0678 63.25 40.7273C63.25 41.3869 63.825 41.964 64.4821 41.964C65.1393 41.964 65.7143 41.3869 65.7143 40.7273C65.7143 40.5625 65.6321 40.3976 65.55 40.2327L68.7536 36.9349C69 37.0173 69.0821 37.0998 69.2464 37.0998C69.4107 37.0998 69.6571 37.0173 69.7393 36.9349L73.6821 40.8922C73.6 41.0571 73.6 41.1396 73.6 41.3044C73.6 42.0464 74.175 42.5411 74.8321 42.5411C75.5714 42.5411 76.0643 41.964 76.0643 41.3044C76.0643 41.1396 76.0643 41.0571 75.9821 40.8922L80.2536 37.0173ZM64.5643 41.4693C64.2357 41.4693 63.9893 41.222 63.9893 40.8922C63.9893 40.5624 64.2357 40.3151 64.5643 40.3151C64.8929 40.3151 65.1393 40.5624 65.1393 40.8922C65.1393 41.1396 64.8929 41.4693 64.5643 41.4693ZM69.4929 36.4402C69.1643 36.4402 68.9179 36.1929 68.9179 35.8631C68.9179 35.5334 69.1643 35.286 69.4929 35.286C69.8214 35.286 70.0679 35.5334 70.0679 35.8631C70.0679 36.1929 69.9036 36.4402 69.4929 36.4402ZM75.2429 42.0464C74.9143 42.0464 74.6679 41.7991 74.6679 41.4693C74.6679 41.1396 74.9143 40.8922 75.2429 40.8922C75.5714 40.8922 75.8179 41.1396 75.8179 41.4693C75.9 41.7991 75.6536 42.0464 75.2429 42.0464Z" fill="#D6DCE8"/>
<path d="M37.291 40.9748H36.141C36.0588 40.9748 35.8945 40.8099 35.8945 40.7275V34.4617C35.8945 34.2968 35.9767 34.2144 36.141 34.2144H37.291C37.3731 34.2144 37.5374 34.3792 37.5374 34.4617V40.7275C37.4552 40.8099 37.3731 40.9748 37.291 40.9748Z" fill="#BBC4D9"/>
<path d="M37.9512 40.9748H36.6369C36.5548 40.9748 36.4727 40.8924 36.4727 40.81V37.9244C36.4727 37.7595 36.5548 37.7595 36.6369 37.7595H37.9512C38.0334 37.7595 38.1155 37.842 38.1155 37.9244V40.81C38.1155 40.8924 38.0334 40.9748 37.9512 40.9748Z" fill="#D6DCE8"/>
<path d="M40.2519 40.9748H39.1019C39.0198 40.9748 38.8555 40.8099 38.8555 40.7275V36.3579C38.8555 36.193 38.9376 36.1106 39.1019 36.1106H40.2519C40.334 36.1106 40.4983 36.2755 40.4983 36.3579V40.7275C40.4983 40.8099 40.334 40.9748 40.2519 40.9748Z" fill="#BBC4D9"/>
<path d="M43.2089 40.9748H42.0589C41.9768 40.9748 41.8125 40.8099 41.8125 40.7274V37.9243C41.8125 37.7594 41.8946 37.677 42.0589 37.677H43.2089C43.2911 37.677 43.4554 37.8419 43.4554 37.9243V40.645C43.4554 40.8099 43.2911 40.9748 43.2089 40.9748Z" fill="#BBC4D9"/>
<path d="M46.166 40.9748H45.016C44.9338 40.9748 44.7695 40.8099 44.7695 40.7275V35.5335C44.7695 35.3686 44.8517 35.2861 45.016 35.2861H46.166C46.2481 35.2861 46.4124 35.451 46.4124 35.5335V40.7275C46.4124 40.8099 46.3302 40.9748 46.166 40.9748Z" fill="#BBC4D9"/>
<path d="M49.205 40.9747H48.055C47.9729 40.9747 47.8086 40.8098 47.8086 40.7274V37.5945C47.8086 37.4296 47.8907 37.3472 48.055 37.3472H49.205C49.2872 37.3472 49.4515 37.5121 49.4515 37.5945V40.7274C49.4515 40.8098 49.3693 40.9747 49.205 40.9747Z" fill="#BBC4D9"/>
<path d="M52.1621 40.9748H51.0121C50.9299 40.9748 50.7656 40.8099 50.7656 40.7275V36.3579C50.7656 36.193 50.8478 36.1106 51.0121 36.1106H52.1621C52.2442 36.1106 52.4085 36.2755 52.4085 36.3579V40.7275C52.4085 40.8099 52.3263 40.9748 52.1621 40.9748Z" fill="#BBC4D9"/>
<path d="M55.2011 40.9748H54.0511C53.969 40.9748 53.8047 40.8099 53.8047 40.7274V37.9243C53.8047 37.7594 53.8868 37.677 54.0511 37.677H55.2011C55.2833 37.677 55.4475 37.8419 55.4475 37.9243V40.645C55.3654 40.8099 55.2833 40.9748 55.2011 40.9748Z" fill="#BBC4D9"/>
<path d="M40.9083 40.9747H39.5118C39.4297 40.9747 39.4297 40.8922 39.4297 40.8098V39.0785C39.4297 38.996 39.5118 38.9136 39.5118 38.9136H40.9083C40.9904 38.9136 40.9904 38.996 40.9904 39.0785V40.8098C41.0725 40.8922 40.9904 40.9747 40.9083 40.9747Z" fill="#D6DCE8"/>
<path d="M43.9473 40.9748H42.5509C42.4687 40.9748 42.4688 40.8923 42.4688 40.8099V39.9854C42.4688 39.903 42.5509 39.8206 42.5509 39.8206H43.9473C44.0295 39.8206 44.0295 39.903 44.0295 39.9854V40.8099C44.0295 40.8923 44.0295 40.9748 43.9473 40.9748Z" fill="#D6DCE8"/>
<path d="M46.9044 40.9749H45.5079C45.4258 40.9749 45.4258 40.8924 45.4258 40.81V39.5733C45.4258 39.4909 45.5079 39.4084 45.5079 39.4084H46.9044C46.9865 39.4084 46.9865 39.4909 46.9865 39.5733V40.81C47.0686 40.8924 47.0686 40.9749 46.9044 40.9749Z" fill="#D6DCE8"/>
<path d="M49.9433 40.9747H48.629C48.5469 40.9747 48.5469 40.8923 48.5469 40.8098V38.5838C48.5469 38.5014 48.629 38.4189 48.629 38.4189H49.9433C50.0254 38.4189 50.0254 38.5014 50.0254 38.5838V40.8098C50.1076 40.8923 50.0254 40.9747 49.9433 40.9747Z" fill="#D6DCE8"/>
<path d="M53.0646 40.9748H51.586C51.5039 40.9748 51.5039 40.9748 51.5039 40.8924V40.4801C51.5039 40.3977 51.5039 40.3977 51.586 40.3977H53.0646C53.1468 40.3977 53.1468 40.3977 53.1468 40.4801V40.8099C53.1468 40.8924 53.1468 40.9748 53.0646 40.9748Z" fill="#D6DCE8"/>
<path d="M56.0216 40.9748H54.5431C54.5431 40.9748 54.4609 40.9748 54.4609 40.8924V40.7275C54.4609 40.7275 54.4609 40.645 54.5431 40.645H56.0216C56.0216 40.645 56.1038 40.645 56.1038 40.7275L56.0216 40.9748Z" fill="#D6DCE8"/>
<path d="M57.3356 51.6926H34.582V54.7431H57.3356V51.6926Z" fill="#F1F3F9"/>
<path d="M47.8054 52.6819H41.5625V53.5888H47.8054V52.6819Z" fill="#D6DCE8"/>
<path d="M55.6944 52.6819H53.4766V53.5888H55.6944V52.6819Z" fill="#D6DCE8"/>
<path d="M57.3356 57.4636H34.582V60.5141H57.3356V57.4636Z" fill="#F1F3F9"/>
<path d="M45.9161 58.5354H41.5625V59.4423H45.9161V58.5354Z" fill="#D6DCE8"/>
<path d="M55.6927 58.5354H51.832V59.4423H55.6927V58.5354Z" fill="#D6DCE8"/>
<path d="M57.3356 63.3171H34.582V66.3676H57.3356V63.3171Z" fill="#F1F3F9"/>
<path d="M48.7911 64.3889H41.5625V65.2958H48.7911V64.3889Z" fill="#D6DCE8"/>
<path d="M55.6931 64.3889H54.4609V65.2958H55.6931V64.3889Z" fill="#D6DCE8"/>
<path d="M10.0209 19.869H6.57087C6.32444 19.869 6.16016 19.6217 6.16016 19.4568V19.0445C6.16016 18.7972 6.40658 18.6323 6.57087 18.6323H10.0209C10.2673 18.6323 10.4316 18.8797 10.4316 19.0445V19.4568C10.4316 19.6217 10.2673 19.869 10.0209 19.869Z" fill="#D6DCE8"/>
<path d="M33.7626 19.869H13.3912C13.1448 19.869 12.9805 19.6217 12.9805 19.4568V19.0445C12.9805 18.7972 13.2269 18.6323 13.3912 18.6323H33.7626C34.009 18.6323 34.1733 18.8797 34.1733 19.0445V19.4568C34.1733 19.6217 34.009 19.869 33.7626 19.869Z" fill="#F1F3F9"/>
<path d="M10.0209 23.2494H6.57087C6.32444 23.2494 6.16016 23.002 6.16016 22.8371V22.4249C6.16016 22.1776 6.40658 22.0127 6.57087 22.0127H10.0209C10.2673 22.0127 10.4316 22.26 10.4316 22.4249V22.8371C10.4316 23.0845 10.2673 23.2494 10.0209 23.2494Z" fill="#D6DCE8"/>
<path d="M24.3162 22.8371C24.3162 23.0845 24.0698 23.2494 23.9055 23.2494H13.3912C13.1448 23.2494 12.9805 23.002 12.9805 22.8371V22.4249C12.9805 22.1776 13.2269 22.0127 13.3912 22.0127H23.9055C24.1519 22.0127 24.3162 22.26 24.3162 22.4249V22.8371Z" fill="#F1F3F9"/>
<path d="M28.1744 45.0969H6.16016V31.4111C7.31016 31.4936 8.46016 31.576 9.52801 31.9058C10.0209 32.0707 10.3494 32.2356 10.678 32.5654C10.8423 32.7302 10.8423 32.8127 10.8423 32.8951C11.0066 33.3074 11.3352 33.5547 11.9102 33.6371L12.403 33.7196C13.3887 33.802 14.128 34.3791 14.2102 35.0387L14.3744 36.1929C15.4423 36.4402 15.5244 36.4402 16.5102 36.6876C16.6744 36.77 16.6744 36.6876 16.7566 36.6051C16.8387 36.5227 16.9209 36.5227 17.003 36.5227C17.1673 36.5227 17.1673 36.5227 17.3316 36.4402C17.4959 36.3578 17.6602 36.3578 17.7423 36.5227C18.153 37.0998 18.9744 37.4296 19.4673 37.9242C20.0423 38.5013 21.028 38.4189 21.6852 38.4189C21.8494 38.4189 22.0959 38.5013 22.2602 38.5838C23.0816 39.1609 24.3959 41.0571 25.4637 41.0571C25.8744 41.0571 26.203 41.222 26.4494 41.3869C27.353 42.6236 27.928 43.7778 28.1744 45.0969Z" fill="#F1F3F9"/>
<path d="M27.5994 45.262C27.353 44.0253 26.778 43.036 25.8744 41.9642C25.7923 41.8818 25.5459 41.7993 25.2994 41.7993C24.3137 41.7993 23.4923 40.8924 22.6709 40.068C22.3423 39.7382 22.0137 39.4084 21.7673 39.2435C21.6852 39.1611 21.5209 39.1611 21.5209 39.1611C21.3566 39.1611 21.2744 39.1611 21.1102 39.1611C20.453 39.1611 19.5494 39.0787 18.8923 38.5015C18.728 38.2542 18.4816 38.0893 18.153 37.9244C17.8244 37.6771 17.4959 37.5122 17.2494 37.1824C17.1673 37.1824 17.003 37.1824 16.9209 37.1824C16.8387 37.2649 16.5102 37.4298 16.0994 37.2649L15.6066 37.1C15.1137 37.0175 14.8673 36.9351 14.0459 36.7702H13.7994L13.6352 35.2038C13.6352 34.7916 13.0602 34.4618 12.403 34.3793L11.9102 34.2969C11.1709 34.2144 10.5137 33.8022 10.3494 33.1427V33.0602C10.103 32.8129 9.85659 32.648 9.52801 32.5656C8.37801 32.1533 7.22801 32.0709 6.16016 32.0709L6.2423 30.8342C7.3923 30.9167 8.62444 30.9991 9.77444 31.4113C10.3494 31.5762 10.8423 31.906 11.1709 32.3182C11.253 32.4007 11.4173 32.648 11.4994 32.9778C11.5816 33.1427 11.7459 33.2251 11.9923 33.2251L12.4852 33.3076C13.7994 33.39 14.703 34.2144 14.8673 35.2038L14.9494 35.8633C15.4423 35.9458 15.6887 36.0282 16.0994 36.1107L16.5923 36.1931C16.7566 36.1107 16.9209 36.0282 17.0852 36.0282C17.1673 36.0282 17.1673 36.0282 17.2494 36.0282C17.6602 35.8633 18.153 36.0282 18.3994 36.358C18.5637 36.5229 18.8923 36.7702 19.1387 36.9351C19.4673 37.1824 19.7959 37.3473 20.0423 37.6771C20.2887 37.9244 20.8637 37.9244 21.4387 38.0069C21.603 38.0069 21.6852 38.0069 21.8494 38.0069C22.178 38.0069 22.4244 38.1718 22.6709 38.2542L22.753 38.3367C23.0816 38.584 23.4923 38.9138 23.8209 39.326C24.3137 39.9031 25.1352 40.6451 25.5459 40.6451C26.0387 40.6451 26.5316 40.81 26.9423 41.1398C28.0923 42.3764 28.7494 43.6131 28.9959 45.0971L27.5994 45.262Z" fill="#D6DCE8"/>
<path d="M27.272 36.7701H17.5791C17.1684 36.7701 16.8398 36.4404 16.8398 36.0281V32.5655C16.8398 32.1533 17.1684 31.8235 17.5791 31.8235H27.272C27.6827 31.8235 28.0113 32.1533 28.0113 32.5655V36.0281C28.0113 36.4404 27.6827 36.7701 27.272 36.7701Z" fill="#BBC4D9"/>
<path d="M26.0374 33.2251H18.891C18.7267 33.2251 18.6445 33.39 18.6445 33.4724C18.6445 33.6373 18.8088 33.7198 18.891 33.7198H26.0374C26.2017 33.7198 26.2838 33.5549 26.2838 33.4724C26.2838 33.39 26.1195 33.2251 26.0374 33.2251Z" fill="white"/>
<path d="M22.6696 34.874H18.8089C18.6446 34.874 18.5625 35.0389 18.5625 35.1214C18.5625 35.2038 18.7268 35.3687 18.8089 35.3687H22.6696C22.8339 35.3687 22.9161 35.2038 22.9161 35.1214C22.9161 35.0389 22.7518 34.874 22.6696 34.874Z" fill="white"/>
<path d="M70.3964 58.9476H63.9071V56.227H70.3964V58.9476ZM63.9893 59.7721H70.4786V62.4927H63.9893V59.7721ZM64.4821 52.7643H70.4786V55.5674H63.9893V53.3414C63.9893 52.9292 64.2357 52.7643 64.4821 52.7643ZM63.9893 65.2134V63.2347H70.4786V65.708H64.4821C64.2357 65.7905 63.9893 65.5432 63.9893 65.2134ZM79.0214 52.7643C79.1036 52.4345 79.1857 52.1872 79.2679 51.8574H64.4821C63.7429 51.8574 63.25 52.517 63.25 53.259V65.2134C63.25 65.9554 63.825 66.6149 64.4821 66.6149H71.7107C71.9571 66.2852 72.2036 66.0378 72.45 65.708H71.3V63.2347H74.175C74.3393 62.9874 74.5036 62.6576 74.75 62.4103H71.3V59.6896H76.2286C76.3929 59.4423 76.475 59.195 76.6393 58.9476H71.3V56.227H77.3786V57.3812C77.7071 56.7216 77.9536 55.9796 78.2 55.3201H78.1179V52.7643H79.0214ZM77.2964 55.485H71.3V52.7643H77.3786V55.485H77.2964Z" fill="#F1F3F9"/>
<path d="M66.7818 12.2842C75.3247 19.3744 80.7461 30.0921 80.7461 42.129C80.7461 54.3307 75.1604 65.2134 66.3711 72.3036" stroke="#BBC4D9" stroke-width="2" stroke-miterlimit="10"/>
<path d="M7.55658 10.1406C9.93873 10.1406 11.828 8.24439 11.828 5.85351C11.828 3.46262 9.93873 1.56641 7.55658 1.56641C5.17444 1.56641 3.28516 3.54507 3.28516 5.85351C3.28516 8.16194 5.17444 10.1406 7.55658 10.1406Z" fill="#EEF1FF"/>
</svg>
