<svg width="85" height="81" viewBox="0 0 85 81" fill="none" xmlns="http://www.w3.org/2000/svg">
<path d="M44.7025 79.4737C51.9364 79.4247 58.9938 77.2364 64.9848 73.1846C70.9758 69.1328 75.6321 63.3991 78.3665 56.7065C81.1009 50.0138 81.7909 42.6619 80.3496 35.5779C78.9084 28.4939 75.4002 21.9949 70.2677 16.9006C65.1352 11.8062 58.6081 8.34463 51.5094 6.95226C44.4108 5.55989 37.0585 6.29911 30.3797 9.07671C23.7009 11.8543 17.9947 16.5459 13.9806 22.5599C9.96657 28.5739 7.82439 35.6409 7.82422 42.8699C7.83968 47.6933 8.80593 52.4664 10.6678 56.9166C12.5296 61.3668 15.2505 65.4069 18.6752 68.806C22.0998 72.2052 26.161 74.8968 30.6268 76.7272C35.0927 78.5576 39.8756 79.4909 44.7025 79.4737Z" fill="#F1F3F9" stroke="#D6DCE8" stroke-width="2" stroke-miterlimit="10"/>
<path d="M72.9571 38.0928V60.4894C72.9539 61.6017 72.7312 62.7025 72.3019 63.7287C71.8725 64.755 71.2449 65.6866 70.4549 66.4703C69.6649 67.2539 68.7281 67.8743 67.698 68.2958C66.6678 68.7173 65.5647 68.9318 64.4516 68.9269H25.0899C22.8545 68.9303 20.7078 68.0529 19.1155 66.485C17.5232 64.9171 16.6138 62.7851 16.5843 60.5514V37.9687C16.5746 37.8414 16.5959 37.7137 16.6464 37.5964C16.7085 37.4103 16.7706 37.2862 16.8327 37.1001L27.3871 16.937C27.5718 16.5543 27.8638 16.2333 28.2274 16.0131C28.5911 15.7928 29.0108 15.6828 29.4359 15.6962H60.0436C60.4671 15.6903 60.8838 15.8036 61.246 16.0229C61.6083 16.2423 61.9015 16.5591 62.0923 16.937L72.6467 37.1001C72.719 37.2615 72.7812 37.4273 72.833 37.5964C72.9384 37.739 72.9831 37.9174 72.9571 38.0928Z" fill="#F1F3F9" stroke="#D6DCE8" stroke-width="2" stroke-miterlimit="10"/>
<path d="M60.1101 7.55029C60.9234 16.3849 61.3518 18.4136 59.4893 26.4168C58.8684 28.1974 58.291 30.1392 57.0059 31.4979C56.059 32.5417 54.8494 33.3127 53.5031 33.7306C52.1567 34.1485 50.7229 34.198 49.3508 33.8741C47.9689 33.5021 46.7216 32.7443 45.7551 31.6895C44.7886 30.6347 44.1429 29.3265 43.8936 27.9182C43.6758 27.0143 43.7207 26.067 44.0232 25.1878C44.3256 24.3086 44.873 23.5339 45.6009 22.9549C46.4235 22.4627 47.3818 22.2455 48.3364 22.3347C49.291 22.424 50.1922 22.8151 50.9092 23.4513C51.6169 24.0854 52.1679 24.8747 52.5191 25.7574C52.8702 26.64 53.0119 27.592 52.9331 28.5386C52.7949 30.429 52.2098 32.2597 51.2258 33.8803C49.1087 37.8446 48.2333 37.8446 43.8936 44.3217" stroke="#B3BCCE" stroke-width="2" stroke-miterlimit="10" stroke-dasharray="4 4"/>
<path d="M64.8666 4.2561C64.5376 5.43486 63.2462 5.86915 61.9487 5.11225C60.5456 4.49185 59.5708 3.93349 59.7881 2.86019C60.111 1.78689 61.4085 1.68142 62.8924 1.56974C64.7549 1.35881 65.0777 3.10214 64.8666 4.2561Z" fill="#DAE2EB"/>
<path d="M54.3926 5.32916C54.5383 5.59269 54.7398 5.82131 54.983 5.9991C55.2262 6.17689 55.5052 6.29958 55.8007 6.35864C56.0962 6.41769 56.401 6.41168 56.6939 6.34104C56.9868 6.27039 57.2608 6.1368 57.4968 5.94957C58.7074 4.90109 59.6822 4.1504 59.142 3.10191C58.6019 2.13408 57.7389 2.48151 55.9012 2.66763C54.3926 2.96542 53.7407 4.25587 54.3926 5.32916Z" fill="#DAE2EB"/>
<path d="M59.1413 1.35877C59.4915 1.30682 59.8491 1.37321 60.1573 1.54741C60.4654 1.72162 60.7066 1.99367 60.8424 2.3204C60.9778 2.56083 61.0603 2.82731 61.0846 3.10211C61.3019 4.60349 60.7617 5.89393 59.8988 5.9994C58.924 6.20413 57.9555 5.11222 57.8438 3.72251V2.75468C57.8638 2.40753 58.0044 2.07824 58.2412 1.82346C58.4781 1.56869 58.7963 1.40437 59.1413 1.35877Z" fill="#989FB0"/>
<path d="M72.9571 38.0927V62.7848C72.9589 63.5971 72.799 64.4016 72.4868 65.1517C72.1746 65.9017 71.7164 66.5822 71.1387 67.1537C70.561 67.7252 69.8755 68.1762 69.1218 68.4806C68.3682 68.785 67.5615 68.9367 66.7487 68.9268H22.7928C21.9813 68.9317 21.1769 68.7766 20.4255 68.4705C19.6741 68.1643 18.9905 67.7131 18.4138 67.1426C17.8371 66.5721 17.3787 65.8935 17.0648 65.1457C16.7509 64.398 16.5876 63.5957 16.5843 62.7848V37.9686C16.5746 37.8414 16.5959 37.7136 16.6464 37.5964H30.8017C31.3079 37.5939 31.8095 37.6917 32.2777 37.8842C32.7458 38.0766 33.1711 38.3598 33.529 38.7175C33.887 39.0752 34.1704 39.5002 34.363 39.968C34.5555 40.4358 34.6534 40.9371 34.651 41.4429C34.6511 42.464 35.0524 43.4442 35.7685 44.1727C36.1202 44.5378 36.5443 44.8257 37.0135 45.0179C37.4828 45.2102 37.987 45.3027 38.494 45.2894H51.0972C51.6033 45.2919 52.105 45.1941 52.5731 45.0016C53.0412 44.8092 53.4666 44.526 53.8245 44.1683C54.1824 43.8106 54.4659 43.3856 54.6584 42.9178C54.851 42.45 54.9489 41.9487 54.9464 41.4429C54.9466 40.4218 55.3479 39.4415 56.0639 38.7131C56.4079 38.3532 56.8226 38.0682 57.282 37.876C57.7414 37.6838 58.2356 37.5886 58.7336 37.5964H72.8268C72.8801 37.6665 72.919 37.7464 72.9414 37.8316C72.9638 37.9167 72.9691 38.0055 72.9571 38.0927Z" fill="white" stroke="#D6DCE8" stroke-width="2" stroke-miterlimit="10"/>
<path d="M37.6858 53.5782C37.9682 53.5782 38.2443 53.4945 38.4791 53.3377C38.7139 53.181 38.8969 52.9581 39.005 52.6974C39.1131 52.4366 39.1414 52.1497 39.0863 51.8729C39.0312 51.5961 38.8952 51.3419 38.6955 51.1423C38.4958 50.9427 38.2413 50.8068 37.9643 50.7518C37.6873 50.6967 37.4002 50.725 37.1393 50.833C36.8784 50.941 36.6554 51.1239 36.4985 51.3585C36.3416 51.5932 36.2578 51.8691 36.2578 52.1513C36.2578 52.5297 36.4083 52.8927 36.676 53.1603C36.9438 53.4279 37.307 53.5782 37.6858 53.5782Z" fill="#989FB0"/>
<path d="M51.8537 53.5782C52.1361 53.5782 52.4122 53.4945 52.6471 53.3377C52.8819 53.181 53.0649 52.9581 53.173 52.6974C53.2811 52.4366 53.3093 52.1497 53.2542 51.8729C53.1991 51.5961 53.0631 51.3419 52.8634 51.1423C52.6637 50.9427 52.4093 50.8068 52.1323 50.7518C51.8553 50.6967 51.5682 50.725 51.3073 50.833C51.0464 50.941 50.8233 51.1239 50.6664 51.3585C50.5095 51.5932 50.4258 51.8691 50.4258 52.1513C50.4258 52.5297 50.5762 52.8927 50.844 53.1603C51.1118 53.4279 51.475 53.5782 51.8537 53.5782Z" fill="#989FB0"/>
<path d="M47.0788 62.9277H42.6087C42.2711 62.9277 41.9474 62.7937 41.7087 62.5552C41.47 62.3167 41.3359 61.9932 41.3359 61.6559C41.3359 61.3185 41.47 60.9951 41.7087 60.7565C41.9474 60.518 42.2711 60.384 42.6087 60.384H47.0415C47.3679 60.3934 47.6783 60.5271 47.9091 60.7578C48.14 60.9885 48.2738 61.2987 48.2832 61.6248C48.2915 61.7898 48.2668 61.9548 48.2105 62.1102C48.1541 62.2655 48.0673 62.408 47.9552 62.5294C47.843 62.6507 47.7077 62.7485 47.5572 62.8169C47.4067 62.8853 47.244 62.9229 47.0788 62.9277Z" fill="#989FB0"/>
<path d="M80.6431 25.3744C81.1466 25.3744 81.6387 25.2252 82.0573 24.9457C82.4759 24.6662 82.8022 24.269 82.9948 23.8042C83.1875 23.3394 83.2379 22.8279 83.1397 22.3345C83.0415 21.8411 82.799 21.3879 82.443 21.0321C82.0871 20.6764 81.6335 20.4341 81.1397 20.336C80.6459 20.2378 80.1341 20.2882 79.669 20.4807C79.2039 20.6733 78.8063 20.9993 78.5266 21.4176C78.2469 21.8359 78.0977 22.3277 78.0977 22.8308C78.0993 23.5049 78.368 24.1509 78.845 24.6276C79.322 25.1043 79.9685 25.3728 80.6431 25.3744Z" fill="#F1F3F9"/>
<path d="M78.0977 17.1232C78.4416 17.1232 78.7777 17.0213 79.0635 16.8304C79.3494 16.6396 79.5722 16.3683 79.7038 16.0508C79.8354 15.7334 79.8698 15.3841 79.8027 15.0472C79.7356 14.7102 79.5701 14.4007 79.327 14.1577C79.0838 13.9148 78.7741 13.7493 78.4369 13.6823C78.0997 13.6153 77.7501 13.6497 77.4325 13.7812C77.1149 13.9126 76.8434 14.1353 76.6523 14.421C76.4613 14.7066 76.3594 15.0425 76.3594 15.3861C76.3594 15.8468 76.5425 16.2886 76.8685 16.6144C77.1945 16.9402 77.6367 17.1232 78.0977 17.1232Z" fill="#F1F3F9"/>
<path d="M7.69149 22.831C8.03531 22.831 8.37141 22.7291 8.65728 22.5382C8.94315 22.3473 9.16596 22.076 9.29754 21.7586C9.42911 21.4412 9.46353 21.0919 9.39646 20.7549C9.32938 20.418 9.16382 20.1084 8.92071 19.8655C8.67759 19.6225 8.36784 19.4571 8.03063 19.3901C7.69342 19.323 7.34389 19.3574 7.02625 19.4889C6.7086 19.6204 6.43711 19.8431 6.24609 20.1287C6.05508 20.4144 5.95312 20.7503 5.95312 21.0938C5.95313 21.3219 5.99809 21.5478 6.08545 21.7586C6.17281 21.9694 6.30086 22.1609 6.46228 22.3222C6.6237 22.4835 6.81534 22.6114 7.02625 22.6987C7.23716 22.786 7.46321 22.831 7.69149 22.831Z" fill="#F1F3F9"/>
<path d="M3.77918 61.0479C4.4177 61.0479 5.04187 60.8587 5.57278 60.5042C6.10369 60.1497 6.51748 59.6459 6.76183 59.0564C7.00618 58.4669 7.07011 57.8182 6.94554 57.1924C6.82098 56.5666 6.5135 55.9918 6.062 55.5406C5.6105 55.0894 5.03526 54.7822 4.40901 54.6577C3.78276 54.5332 3.13364 54.5971 2.54373 54.8413C1.95381 55.0855 1.44961 55.499 1.09486 56.0295C0.740123 56.56 0.550781 57.1837 0.550781 57.8218C0.550781 58.6774 0.890915 59.498 1.49636 60.103C2.1018 60.708 2.92296 61.0479 3.77918 61.0479Z" fill="#F1F3F9"/>
</svg>
