<svg width="32" height="32" viewBox="0 0 32 32" fill="none" xmlns="http://www.w3.org/2000/svg">
<path d="M25.3346 29.3327H6.66797C4.45884 29.3327 2.66797 27.5419 2.66797 25.3327V3.99935C2.66797 3.26298 3.26493 2.66602 4.0013 2.66602H22.668C23.4044 2.66602 24.0013 3.26298 24.0013 3.99935V19.9993H29.3346V25.3327C29.3346 27.5419 27.5438 29.3327 25.3346 29.3327ZM24.0013 22.666V25.3327C24.0013 26.0691 24.5982 26.666 25.3346 26.666C26.071 26.666 26.668 26.0691 26.668 25.3327V22.666H24.0013ZM21.3346 26.666V5.33268H5.33464V25.3327C5.33464 26.0691 5.9316 26.666 6.66797 26.666H21.3346ZM8.0013 9.33268H18.668V11.9993H8.0013V9.33268ZM8.0013 14.666H18.668V17.3327H8.0013V14.666ZM8.0013 19.9993H14.668V22.666H8.0013V19.9993Z" fill="#8790A3"/>
</svg>
