<svg width="48" height="49" viewBox="0 0 48 49" fill="none" xmlns="http://www.w3.org/2000/svg">
<circle cx="24" cy="24.5" r="24" fill="#EEF1FF"/>
<path d="M26 26.252V28.3414C25.3744 28.1203 24.7013 28 24 28C20.6863 28 18 30.6863 18 34H16C16 29.5817 19.5817 26 24 26C24.6906 26 25.3608 26.0875 26 26.252ZM24 25C20.685 25 18 22.315 18 19C18 15.685 20.685 13 24 13C27.315 13 30 15.685 30 19C30 22.315 27.315 25 24 25ZM24 23C26.21 23 28 21.21 28 19C28 16.79 26.21 15 24 15C21.79 15 20 16.79 20 19C20 21.21 21.79 23 24 23ZM29.7929 31.9142L33.3284 28.3787L34.7426 29.7929L29.7929 34.7426L26.2574 31.2071L27.6716 29.7929L29.7929 31.9142Z" fill="#5C00DD"/>
</svg>
