<svg width="48" height="49" viewBox="0 0 48 49" fill="none" xmlns="http://www.w3.org/2000/svg">
<circle cx="24" cy="24.5" r="24" fill="#EEF1FF"/>
<path d="M16 15C15.4477 15 15 15.4477 15 16V20H17V17H20V15H16ZM32 15H28V17H31V20H33V16C33 15.4477 32.5523 15 32 15ZM17 28V31H20V33H16C15.4477 33 15 32.5523 15 32V28H17ZM31 28V31H28V33H32C32.5523 33 33 32.5523 33 32V28H31ZM22 21C21.4477 21 21 21.4477 21 22V26C21 26.5523 21.4477 27 22 27H26C26.5523 27 27 26.5523 27 26V22C27 21.4477 26.5523 21 26 21H22Z" fill="#5C00DD"/>
</svg>
