<svg width="513" height="357" viewBox="0 0 513 357" fill="none" xmlns="http://www.w3.org/2000/svg">
<path d="M403.91 265.249L436.77 336.279L440.48 336.259L412.06 260.629L403.91 265.249Z" fill="#DCA86E"/>
<path d="M369.921 266.769L337.061 336.279L333.361 336.259L361.771 265.189L369.921 266.769Z" fill="#DCA86E"/>
<path d="M350.471 262.609C350.471 262.609 373.381 271.149 403.901 259.609C434.421 248.069 442.761 193.959 442.761 193.959L446.251 195.729C446.251 195.729 442.851 255.389 402.661 268.359C371.931 278.269 350.471 266.469 350.471 266.469V262.609Z" fill="url(#paint0_linear_487_52209)"/>
<path d="M426.75 20.1895V64.1795" stroke="#D4DBE2" stroke-width="0.25" stroke-miterlimit="10"/>
<path d="M434.54 81.11C434.423 82.6325 433.857 84.0861 432.913 85.2868C431.97 86.4875 430.691 87.3814 429.24 87.8554C427.788 88.3295 426.229 88.3624 424.758 87.95C423.288 87.5376 421.973 86.6985 420.98 85.5387C419.986 84.3788 419.359 82.9505 419.178 81.4343C418.996 79.918 419.269 78.3821 419.96 77.0206C420.652 75.6591 421.732 74.5334 423.063 73.7856C424.394 73.0379 425.918 72.7019 427.44 72.82C429.481 72.9783 431.375 73.9405 432.707 75.4951C434.038 77.0496 434.697 79.0693 434.54 81.11Z" fill="#FFBA01"/>
<path d="M463.181 83.7901H390.311L422.201 60.5801H431.291L463.181 83.7901Z" fill="#D2DCEB"/>
<path d="M83.6816 20.1895V64.1795" stroke="#D4DBE2" stroke-width="0.25" stroke-miterlimit="10"/>
<path d="M91.4699 81.11C91.3526 82.6325 90.7864 84.0861 89.8429 85.2868C88.8994 86.4875 87.621 87.3814 86.1694 87.8554C84.7178 88.3295 83.1582 88.3624 81.6879 87.95C80.2176 87.5376 78.9026 86.6985 77.9093 85.5387C76.916 84.3788 76.2889 82.9505 76.1074 81.4343C75.926 79.918 76.1983 78.3821 76.8898 77.0206C77.5814 75.6591 78.6612 74.5334 79.9927 73.7856C81.3242 73.0379 82.8475 72.7019 84.3699 72.82C86.4106 72.9783 88.3048 73.9405 89.6362 75.4951C90.9676 77.0496 91.6272 79.0693 91.4699 81.11Z" fill="#FFBA01"/>
<path d="M120.12 83.7901H47.2402L79.1402 60.5801H88.2202L120.12 83.7901Z" fill="#D2DCEB"/>
<path d="M4.80078 336.479H503.121" stroke="#A6AEBA" stroke-width="0.5" stroke-miterlimit="10"/>
<path d="M186 183.39C187.113 180.831 188.57 178.436 190.33 176.27C193.12 172.92 197.33 167.33 197.33 167.33C197.33 167.33 195.33 171.33 192.54 175.8C190.742 178.635 188.538 181.192 186 183.39Z" fill="#50CC85"/>
<path d="M188.84 176.839C191.113 174.783 192.818 172.176 193.79 169.269C195.65 164.129 197.34 160.209 197.34 160.209C195.179 163.296 193.26 166.546 191.6 169.929C189.88 173.909 188.84 176.839 188.84 176.839Z" fill="#50CC85"/>
<path d="M186.161 182.659C187.1 179.193 187.745 175.654 188.091 172.079C188.411 167.389 188.381 164.439 188.381 164.439C188.381 164.439 186.381 172.959 185.721 176.579C185.331 178.61 185.483 180.707 186.161 182.659Z" fill="#50CC85"/>
<path d="M184.771 186.559C185.03 182.696 184.631 178.817 183.591 175.089C182.625 172.221 182.02 169.245 181.791 166.229C181.334 169.738 181.388 173.295 181.951 176.789C182.654 180.109 183.597 183.374 184.771 186.559Z" fill="#50CC85"/>
<path d="M185.281 185.229C185.281 185.229 189.581 181.549 191.751 180.689C193.631 179.774 195.394 178.636 197.001 177.299C197.001 177.299 193.261 182.089 191.171 183.039C189.081 183.989 185.281 185.229 185.281 185.229Z" fill="#50CC85"/>
<path d="M183.791 190.369C183.932 187.621 183.418 184.879 182.291 182.369C181.292 180.112 180.499 177.769 179.921 175.369C179.921 175.369 179.801 181.729 181.071 184.119C182.341 186.509 183.791 190.369 183.791 190.369Z" fill="#50CC85"/>
<path d="M184.191 188C185.671 187.033 187.32 186.355 189.051 186C190.075 185.914 191.084 185.695 192.051 185.35C191.595 186.06 190.986 186.66 190.268 187.105C189.55 187.55 188.741 187.828 187.901 187.92C185.001 188.26 184.191 188 184.191 188Z" fill="#50CC85"/>
<path d="M182.58 193.519C183.11 191.439 183.8 188.229 184.51 186.079C185.935 182.306 187.706 178.674 189.8 175.229C187.52 180.229 185.86 183.109 184.72 187.459C184.26 189.189 183.48 191.579 183.06 193.139C183 193.569 182.65 193.929 182.58 193.519Z" fill="#50CC85"/>
<path d="M183.671 185.079C183.438 182.123 182.802 179.213 181.781 176.429C180.131 172.089 177.881 165.039 177.881 165.039C177.881 165.039 178.551 169.739 179.771 175.209C180.581 178.672 181.895 181.998 183.671 185.079Z" fill="#77E6A6"/>
<path d="M183.001 177.51C181.43 174.653 180.621 171.44 180.651 168.18C180.561 162.37 180.211 157.85 180.211 157.85C181.317 161.698 182.123 165.627 182.621 169.6C183.001 174.19 183.001 177.51 183.001 177.51Z" fill="#77E6A6"/>
<path d="M183.721 184.279C183.973 180.471 184.545 176.691 185.431 172.979C186.741 168.149 187.791 165.199 187.791 165.199C187.791 165.199 186.891 174.469 186.261 178.319C185.954 180.495 185.078 182.551 183.721 184.279Z" fill="#77E6A6"/>
<path d="M183.762 188.68C184.836 184.706 186.581 180.945 188.922 177.56C190.888 175.013 192.525 172.227 193.792 169.27C193.048 172.958 191.771 176.519 190.002 179.84C188.138 182.933 186.053 185.888 183.762 188.68Z" fill="#77E6A6"/>
<path d="M183.721 187.16C183.721 187.16 180.661 181.98 178.771 180.36C177.216 178.794 175.853 177.049 174.711 175.16C174.711 175.16 176.821 181.26 178.591 182.94C180.361 184.62 183.721 187.16 183.721 187.16Z" fill="#77E6A6"/>
<path d="M183.432 192.849C184.246 190.04 185.712 187.464 187.712 185.329C189.492 183.402 191.098 181.32 192.512 179.109C192.512 179.109 190.432 185.539 188.332 187.509C186.61 189.206 184.974 190.988 183.432 192.849Z" fill="#77E6A6"/>
<path d="M183.861 190.29C182.707 188.808 181.282 187.56 179.661 186.61C178.654 186.171 177.712 185.596 176.861 184.9C177.074 185.769 177.478 186.578 178.044 187.27C178.609 187.962 179.323 188.519 180.131 188.9C183.001 190.32 183.861 190.29 183.861 190.29Z" fill="#77E6A6"/>
<path d="M183.561 196.439C183.741 194.159 184.161 190.689 184.191 188.289C184.064 184.003 183.541 179.738 182.631 175.549C183.171 181.409 183.861 184.839 183.501 189.549C183.361 191.439 183.321 194.119 183.211 195.839C183.131 196.339 183.351 196.819 183.561 196.439Z" fill="#50CC85"/>
<path d="M180.4 185.999C179.287 183.441 177.83 181.045 176.07 178.879C173.28 175.529 169.07 169.939 169.07 169.939C169.07 169.939 171.07 173.939 173.86 178.409C175.659 181.245 177.862 183.802 180.4 185.999Z" fill="#50CC85"/>
<path d="M177.511 179.429C175.238 177.373 173.533 174.766 172.561 171.859C170.711 166.719 169.021 162.799 169.021 162.799C171.182 165.885 173.097 169.135 174.751 172.519C176.471 176.499 177.511 179.429 177.511 179.429Z" fill="#50CC85"/>
<path d="M180.191 185.25C179.257 181.782 178.612 178.244 178.261 174.67C177.941 170 178.001 167 178.001 167C178.001 167 180.001 175.52 180.651 179.14C181.046 181.181 180.887 183.291 180.191 185.25Z" fill="#50CC85"/>
<path d="M181.581 189.15C181.321 185.288 181.72 181.409 182.761 177.68C183.733 174.815 184.338 171.838 184.561 168.82C185.023 172.329 184.972 175.886 184.411 179.38C183.706 182.702 182.761 185.967 181.581 189.15Z" fill="#50CC85"/>
<path d="M181.081 187.819C181.081 187.819 176.771 184.139 174.601 183.279C172.735 182.361 170.985 181.223 169.391 179.889C169.391 179.889 173.131 184.679 175.221 185.629C177.311 186.579 181.081 187.819 181.081 187.819Z" fill="#50CC85"/>
<path d="M182.561 193C182.422 190.251 182.939 187.509 184.071 185C185.064 182.74 185.857 180.398 186.441 178C186.441 178 186.551 184.36 185.281 186.75C184.011 189.14 182.561 193 182.561 193Z" fill="#50CC85"/>
<path d="M182.161 190.55C180.682 189.583 179.033 188.904 177.301 188.55C176.277 188.464 175.268 188.246 174.301 187.9C174.757 188.611 175.366 189.211 176.084 189.656C176.803 190.1 177.611 190.379 178.451 190.47C181.371 190.85 182.161 190.55 182.161 190.55Z" fill="#50CC85"/>
<path d="M183.781 196.11C183.241 194.03 182.551 190.82 181.851 188.67C180.421 184.9 178.651 181.268 176.561 177.82C178.831 182.82 180.491 185.7 181.641 190.05C182.091 191.77 182.871 194.17 183.301 195.73C183.361 196.16 183.711 196.52 183.781 196.11Z" fill="#50CC85"/>
<path d="M189.241 210.64H177.571L173.971 190.09H193.271L189.241 210.64Z" fill="#D2DCEB"/>
<path d="M322.541 216.28L341.781 336.59L345.481 336.58L330.261 216.26L322.541 216.28Z" fill="#DCA86E"/>
<path d="M189.902 216.34L164.842 336.76L159.852 336.78L179.492 216.36L189.902 216.34Z" fill="#DCA86E"/>
<path d="M357.481 209.25H150.451V218.52H357.481V209.25Z" fill="#DCA86E"/>
<path d="M367.401 209.25H140.521V215.4H367.401V209.25Z" fill="#F3BA7A"/>
<path d="M303.962 206.009H295.902L287.852 154.629H293.972L303.962 206.009Z" fill="#A6AEBA"/>
<path d="M301.64 206.009H270.22L262.17 154.629H293.59L301.64 206.009Z" fill="#D2DCEB"/>
<path d="M303.961 204.84H269.801V208.67H303.961V204.84Z" fill="#D2DCEB"/>
<path d="M347.031 204.84H303.961V208.67H347.031V204.84Z" fill="#A6AEBA"/>
<path d="M284.38 182.819C285.29 186.749 284.65 190.999 282.95 192.309C281.25 193.619 279.14 191.479 278.23 187.549C277.32 183.619 277.96 179.369 279.66 178.059C281.36 176.749 283.48 178.889 284.38 182.819Z" fill="#A6AEBA"/>
<path d="M235.501 208.499H231.001C230.109 208.498 229.247 208.178 228.57 207.596C227.894 207.015 227.447 206.211 227.311 205.329L225.531 193.859H241.001L239.221 205.329C239.085 206.216 238.634 207.024 237.951 207.606C237.268 208.188 236.398 208.505 235.501 208.499Z" fill="#A6AEBA"/>
<path d="M239.631 206.05C239.464 206.06 239.297 206.06 239.131 206.05H238.931L238.761 205.92C238.651 205.84 236.051 203.8 236.051 200.92C236.051 198.04 238.051 195.51 240.471 195.51C241.143 195.489 241.812 195.614 242.43 195.879C243.049 196.143 243.602 196.539 244.051 197.04C244.483 197.6 244.783 198.252 244.926 198.945C245.07 199.638 245.055 200.354 244.881 201.04C244.291 204.23 242.391 206.05 239.631 206.05ZM239.461 204.65C242.271 204.74 243.161 202.58 243.461 200.73C243.596 200.246 243.62 199.737 243.532 199.242C243.444 198.747 243.245 198.278 242.951 197.87C242.629 197.533 242.238 197.269 241.805 197.096C241.372 196.923 240.906 196.846 240.441 196.87C238.771 196.87 237.441 198.67 237.441 200.87C237.512 201.602 237.727 202.313 238.074 202.961C238.421 203.61 238.892 204.184 239.461 204.65Z" fill="#A6AEBA"/>
<path d="M224.03 209.499H243.55L246.67 206.059H220.92L224.03 209.499Z" fill="#D2DCEB"/>
<path d="M120.591 134.51H27.1914V336.55H120.591V134.51Z" fill="#B6BFCC"/>
<path d="M109.851 143.34H37.9512V164.52H109.851V143.34Z" fill="#D2DCEB"/>
<path d="M82.5 151.369H65.3C64.8582 151.369 64.5 151.727 64.5 152.169V155.709C64.5 156.151 64.8582 156.509 65.3 156.509H82.5C82.9418 156.509 83.3 156.151 83.3 155.709V152.169C83.3 151.727 82.9418 151.369 82.5 151.369Z" fill="white"/>
<path d="M109.851 170.299H37.9512V191.479H109.851V170.299Z" fill="#D2DCEB"/>
<path d="M82.5 178.33H65.3C64.8582 178.33 64.5 178.688 64.5 179.13V182.67C64.5 183.112 64.8582 183.47 65.3 183.47H82.5C82.9418 183.47 83.3 183.112 83.3 182.67V179.13C83.3 178.688 82.9418 178.33 82.5 178.33Z" fill="white"/>
<path d="M109.851 197.26H37.9512V218.44H109.851V197.26Z" fill="#D2DCEB"/>
<path d="M82.5 205.289H65.3C64.8582 205.289 64.5 205.647 64.5 206.089V209.629C64.5 210.071 64.8582 210.429 65.3 210.429H82.5C82.9418 210.429 83.3 210.071 83.3 209.629V206.089C83.3 205.647 82.9418 205.289 82.5 205.289Z" fill="white"/>
<path d="M109.851 224.52H37.9512V328.36H109.851V224.52Z" fill="#D2DCEB"/>
<path d="M82.5 232.549H65.3C64.8582 232.549 64.5 232.907 64.5 233.349V236.889C64.5 237.331 64.8582 237.689 65.3 237.689H82.5C82.9418 237.689 83.3 237.331 83.3 236.889V233.349C83.3 232.907 82.9418 232.549 82.5 232.549Z" fill="white"/>
<defs>
<linearGradient id="paint0_linear_487_52209" x1="350.471" y1="233.109" x2="446.251" y2="233.109" gradientUnits="userSpaceOnUse">
<stop stop-color="#343A44"/>
<stop offset="0.3" stop-color="#232D3E"/>
<stop offset="0.64" stop-color="#182439"/>
<stop offset="1" stop-color="#142138"/>
</linearGradient>
</defs>
</svg>
