<svg width="101" height="83" viewBox="0 0 101 83" fill="none" xmlns="http://www.w3.org/2000/svg">
<path d="M52.1107 75.6086C59.035 75.6182 65.8066 73.5865 71.5687 69.7704C77.3307 65.9543 81.8243 60.5254 84.4808 54.1706C87.1374 47.8158 87.8375 40.8206 86.4925 34.0703C85.1476 27.32 81.8181 21.1178 76.9253 16.2485C72.0325 11.3792 65.7963 8.06165 59.0057 6.71562C52.2151 5.36958 45.1754 6.05555 38.7773 8.68672C32.3791 11.3179 26.91 15.776 23.0621 21.497C19.2141 27.218 17.1602 33.9448 17.1602 40.8262C17.1538 45.3916 18.053 49.9134 19.8066 54.1332C21.5601 58.3529 24.1335 62.1876 27.3796 65.4181C30.6257 68.6486 34.4808 71.2114 38.7244 72.96C42.968 74.7086 47.5168 75.6086 52.1107 75.6086Z" fill="#F1F3F9" stroke="#D6DCE8" stroke-width="2" stroke-miterlimit="10"/>
<path d="M93.5623 48.7248C94.0912 48.722 94.6074 48.5636 95.0458 48.2696C95.4843 47.9756 95.8252 47.5591 96.0257 47.0727C96.2262 46.5863 96.2772 46.0518 96.1724 45.5366C96.0675 45.0214 95.8114 44.5487 95.4365 44.1779C95.0615 43.8072 94.5844 43.5552 94.0655 43.4537C93.5465 43.3521 93.009 43.4056 92.5206 43.6074C92.0322 43.8092 91.6149 44.1502 91.3213 44.5874C91.0278 45.0247 90.8711 45.5385 90.8711 46.0641C90.8702 46.415 90.9392 46.7625 91.0743 47.0866C91.2094 47.4108 91.4078 47.705 91.6581 47.9525C91.9084 48.1999 92.2055 48.3956 92.5324 48.5281C92.8592 48.6607 93.2093 48.7275 93.5623 48.7248Z" fill="#F1F3F9"/>
<path d="M20.2732 16.9223C20.6216 16.9223 20.9622 16.8196 21.2519 16.6273C21.5416 16.4349 21.7673 16.1615 21.9007 15.8416C22.034 15.5218 22.0689 15.1698 22.0009 14.8302C21.9329 14.4906 21.7652 14.1787 21.5188 13.9339C21.2725 13.6891 20.9586 13.5223 20.6169 13.4548C20.2752 13.3872 19.921 13.4219 19.5991 13.5544C19.2773 13.6869 19.0022 13.9113 18.8086 14.1992C18.615 14.487 18.5117 14.8255 18.5117 15.1717C18.5108 15.4019 18.5557 15.6299 18.6439 15.8427C18.7321 16.0555 18.8618 16.2489 19.0256 16.4116C19.1894 16.5744 19.3839 16.7033 19.598 16.7909C19.8122 16.8786 20.0417 16.9232 20.2732 16.9223Z" fill="#F1F3F9"/>
<path d="M49.1545 69.2454C49.1558 70.8102 48.8318 72.3585 48.2027 73.7929C47.5736 75.2274 46.653 76.5173 45.4987 77.5815C44.878 78.1493 44.193 78.6435 43.4576 79.0543C41.7029 80.0602 39.7129 80.5898 37.6872 80.5898C35.6616 80.5898 33.6715 80.0602 31.9169 79.0543C31.6438 78.9173 31.386 78.752 31.148 78.561C29.5436 77.4389 28.2569 75.9252 27.4117 74.1657C26.5666 72.4061 26.1914 70.46 26.3224 68.5146C26.4533 66.5693 27.086 64.6901 28.1594 63.0582C29.2329 61.4262 30.711 60.0963 32.4515 59.1966C34.192 58.2968 36.1362 57.8574 38.0971 57.9208C40.0579 57.9842 41.9693 58.5481 43.6473 59.5583C45.3253 60.5685 46.7134 61.991 47.6779 63.6888C48.6425 65.3867 49.151 67.3026 49.1545 69.2524V69.2454Z" fill="#F1F3F9" stroke="#D6DCE8" stroke-width="2" stroke-miterlimit="10"/>
<path d="M35.3686 71.7671C35.5153 71.9468 35.6792 72.112 35.8579 72.2603C35.9977 72.3992 36.1375 72.4687 36.2843 72.6076C36.4311 72.7466 36.494 72.7466 36.5639 72.816C36.5825 72.816 36.6002 72.8234 36.6133 72.8364C36.6265 72.8494 36.6338 72.8671 36.6338 72.8855L36.7037 72.955V73.9345L36.6338 73.865C36.5639 73.7955 36.4241 73.7261 36.3542 73.6566C36.2843 73.5871 36.0676 73.4482 35.9278 73.3787C35.788 73.3093 35.8579 73.3093 35.788 73.3093C35.2987 73.0244 34.8723 72.7466 34.8723 72.3992C35.0014 72.1627 35.1691 71.949 35.3686 71.7671ZM45.1548 77.1786C44.7787 76.2191 44.0796 75.4188 43.1766 74.914C42.6688 74.6703 42.1177 74.5287 41.5549 74.4972H40.8558C40.0799 74.4277 40.01 74.2888 40.01 74.2888V72.6771C40.51 72.249 40.9773 71.7846 41.4081 71.2877C41.7918 70.7673 42.0566 70.1699 42.184 69.5372C42.4934 69.4702 42.7663 69.2903 42.9488 69.0331C43.1313 68.7759 43.2101 68.46 43.1696 68.1478C43.1696 67.8699 42.9599 67.5921 42.9599 67.3072V66.3069C42.8808 65.7715 42.7131 65.2527 42.4636 64.7717C42.0616 64.0119 41.4585 63.3755 40.7195 62.9311C39.9804 62.4867 39.1333 62.2512 38.2695 62.25C37.914 62.2625 37.5605 62.309 37.214 62.3889C36.5636 62.5179 35.9544 62.8015 35.4385 63.2156C35.3278 63.2913 35.2308 63.3853 35.1519 63.4935L35.082 63.5629C34.4957 64.098 34.0597 64.7755 33.8168 65.5289C33.5742 66.2724 33.5025 67.0605 33.6071 67.8352V67.9741C33.6071 68.1131 33.677 68.1131 33.6071 68.1825C33.5372 68.252 33.5372 68.252 33.5372 68.3215C33.4527 68.4564 33.4022 68.6095 33.39 68.768C33.3778 68.9264 33.4043 69.0854 33.4673 69.2315C33.7469 69.9262 34.1663 69.8637 34.6626 70.211C34.6528 70.2109 34.6431 70.2129 34.6341 70.2169C34.6252 70.2208 34.6171 70.2265 34.6105 70.2337C34.6039 70.2409 34.599 70.2494 34.5959 70.2587C34.5928 70.2679 34.5917 70.2777 34.5927 70.2874L34.0964 70.4263C31.8456 71.121 31.0767 73.0105 32.0623 74.2054C32.526 74.7108 33.1412 75.0543 33.8168 75.1849C33.6019 75.2045 33.4023 75.3037 33.2576 75.4628C32.2973 76.228 31.6672 77.3288 31.4961 78.5402V78.7486C31.7757 78.8945 31.9924 79.1029 32.272 79.2418L43.2884 78.9848C43.8859 78.6124 44.4393 78.1743 44.9381 77.6788C44.8682 77.3453 45.2247 77.2481 45.1548 77.1786Z" fill="white"/>
<path d="M45.4991 77.5745C44.8784 78.1423 44.1934 78.6365 43.458 79.0473C41.7034 80.0532 39.7133 80.5828 37.6877 80.5828C35.662 80.5828 33.672 80.0532 31.9173 79.0473C31.6442 78.9103 31.3865 78.745 31.1484 78.554V78.3456C31.3164 77.1348 31.9442 76.0338 32.903 75.2682C33.0694 75.1362 33.2625 75.0415 33.4692 74.9903C33.1239 74.9519 32.79 74.8448 32.4874 74.6753C32.1847 74.5058 31.9196 74.2775 31.7076 74.0039H34.3849C34.7646 74.5381 35.2687 74.9731 35.8541 75.2718C36.4396 75.5706 37.089 75.7243 37.7471 75.7198C38.3103 75.7199 38.8678 75.6089 39.3874 75.393C39.907 75.1771 40.3783 74.8608 40.7738 74.4624H41.4728C42.0405 74.4604 42.599 74.6039 43.0945 74.8792C44.0546 75.3949 44.8201 76.2068 45.2754 77.1925C45.4362 77.2967 45.4362 77.4356 45.4991 77.5745Z" fill="#D6DCE8"/>
<path d="M40.0802 72.677V74.1497L35.6484 74.2887L35.8581 73.3092C35.928 73.3092 35.928 73.3786 35.9979 73.3786C36.0678 73.3786 36.2845 73.587 36.4243 73.6565C36.504 73.7423 36.5987 73.8129 36.7039 73.8649C36.7225 73.8649 36.7403 73.8722 36.7534 73.8852C36.7665 73.8983 36.7738 73.9159 36.7738 73.9344V72.941L36.7039 72.8715C37.4798 73.3092 38.5354 73.587 40.0802 72.677Z" fill="url(#paint0_linear_8746_89708)"/>
<path d="M42.9679 66.5918C42.0831 66.8818 41.1504 66.9997 40.2208 66.9391C38.7389 66.8115 37.335 66.2233 36.2085 65.258C35.9983 65.779 35.6844 66.2525 35.2856 66.65C34.8868 67.0475 34.4114 67.3609 33.8877 67.5713C33.7602 67.6484 33.6169 67.6958 33.4683 67.7102V67.6408C33.3641 66.8638 33.4358 66.0735 33.678 65.3275C33.9249 64.5763 34.3632 63.9014 34.9502 63.3685L35.0201 63.299C35.09 63.2296 35.2368 63.1601 35.3067 63.0212C35.8095 62.6045 36.407 62.316 37.0473 62.1806C37.3938 62.1007 37.7473 62.0542 38.1028 62.0417C38.9683 62.0344 39.8189 62.2663 40.5595 62.7116C41.3002 63.1569 41.9016 63.798 42.2968 64.5634C42.5336 65.0496 42.7006 65.5663 42.7931 66.0986C42.8938 66.245 42.954 66.415 42.9679 66.5918Z" fill="#AAB2C5"/>
<path d="M37.3353 76.9493C37.0949 77.1505 36.8139 77.298 36.5112 77.3819C36.2085 77.4658 35.8912 77.4841 35.5808 77.4356C36.2099 76.8035 35.8604 74.775 33.6096 74.9904C30.513 74.4277 30.8135 71.2113 33.8892 70.2318L34.3855 70.0859L34.4554 70.1554C34.6556 70.7452 34.9663 71.2921 35.3711 71.7671C34.1059 72.816 35.8604 73.1008 36.7062 73.9344C37.4122 74.3304 38.0413 76.1088 37.3353 76.9493Z" fill="#AAB2C5"/>
<path d="M80.8142 41.3959C80.8096 44.3893 79.6573 47.2684 77.5918 49.4472C77.4397 49.6445 77.2496 49.8098 77.0326 49.9335C74.8604 51.9582 71.9931 53.0836 69.015 53.0804C66.622 53.0891 64.2851 52.3611 62.3254 50.9964C61.78 50.6156 61.2637 50.1954 60.7806 49.739C59.6627 48.6554 58.7768 47.3583 58.1761 45.9258C57.5755 44.4932 57.2726 42.9547 57.2856 41.4029C57.3605 38.3469 58.6346 35.4411 60.836 33.306C63.0374 31.171 65.9914 29.9758 69.0674 29.9758C72.1433 29.9758 75.0974 31.171 77.2988 33.306C79.5001 35.4411 80.7743 38.3469 80.8492 41.4029L80.8142 41.3959Z" fill="#E9F0F8"/>
<path d="M80.8136 41.3959C80.8008 44.5075 79.5527 47.4884 77.3407 49.6906C75.1286 51.8929 72.1314 53.1385 69.0004 53.1568C65.8861 53.1421 62.9038 51.9052 60.7029 49.7154C58.5021 47.5256 57.261 44.5603 57.25 41.4654C57.3152 38.4088 58.5805 35.4987 60.7755 33.3567C62.9706 31.2147 65.9214 30.0106 68.9977 30.0015C72.074 29.9924 75.032 31.1792 77.2398 33.3082C79.4475 35.4372 80.7302 38.3398 80.8136 41.3959Z" fill="#F1F3F9" stroke="#D6DCE8" stroke-width="2" stroke-miterlimit="10"/>
<path d="M77.5885 49.4472C77.4364 49.6445 77.2463 49.8098 77.0293 49.9334C74.8571 51.9581 71.9898 53.0835 69.0117 53.0803C66.6188 53.0891 64.2818 52.361 62.3222 50.9963C61.7768 50.6156 61.2604 50.1953 60.7773 49.7389C61.2276 49.2987 61.7871 48.9847 62.399 48.8289L62.7486 48.69C63.4476 48.4121 64.4332 48.0578 65.7054 47.5021C65.8935 47.4225 66.0609 47.3014 66.1947 47.1478C66.2373 47.1147 66.272 47.0726 66.2962 47.0245C66.3204 46.9765 66.3334 46.9236 66.3345 46.8699C66.4139 46.7165 66.4615 46.5487 66.4743 46.3767V43.987L66.3345 43.8481C66.1066 43.5453 65.984 43.1772 65.985 42.7991L65.8452 42.7296C65.2091 42.8686 65.279 42.2364 65.1462 40.979C65.0763 40.4858 65.1462 40.3469 65.4258 40.2844L65.6355 40.0065C65.2594 39.1912 65.0458 38.3113 65.0064 37.4153C64.9601 36.9573 65.0484 36.4956 65.2605 36.0863C65.4726 35.677 65.7995 35.3376 66.2017 35.109C65.9925 34.7632 65.8503 34.3815 65.7823 33.9836C66.8721 34.1873 67.9797 34.2827 69.0886 34.2685C70.1441 34.0531 71.8287 34.3379 72.4648 35.7342C72.8602 35.8602 73.2124 36.0935 73.4816 36.4077C73.7509 36.7219 73.9265 37.1046 73.9886 37.5126C74.1284 38.631 73.4993 39.8189 73.3595 40.2913V40.3608C73.4993 40.4302 73.5692 40.5692 73.4993 41.0555C73.3595 42.2434 73.3595 42.945 72.8003 42.806L72.2411 43.7855C72.2411 43.9245 72.2411 43.9245 72.1712 43.9939V46.4392C72.1641 46.6679 72.2384 46.8917 72.3809 47.0714C72.4508 47.1408 72.4508 47.2103 72.5207 47.2103C72.6605 47.3492 72.8003 47.4951 72.9401 47.4951C74.3381 48.0509 75.3307 48.4746 76.1066 48.7525C76.6271 48.9236 77.1247 49.1569 77.5885 49.4472Z" fill="white"/>
<path d="M77.5885 49.4471C77.4364 49.6444 77.2463 49.8097 77.0293 49.9334C74.8571 51.9581 71.9898 53.0835 69.0117 53.0802C66.6188 53.089 64.2818 52.361 62.3222 50.9962C61.7768 50.6155 61.2604 50.1952 60.7773 49.7388C61.2276 49.2986 61.7871 48.9846 62.399 48.8288L62.7486 48.6899C63.4476 48.412 64.4332 48.0577 65.7054 47.502C65.8935 47.4225 66.0609 47.3013 66.1947 47.1477C66.5524 47.6504 67.0272 48.0596 67.5787 48.3402C68.1301 48.6209 68.7417 48.7647 69.3612 48.7594C69.9573 48.7539 70.5444 48.6142 71.0784 48.3506C71.6123 48.0871 72.0792 47.7067 72.4438 47.238C72.5836 47.3769 72.7234 47.5228 72.8632 47.5228C74.2613 48.0786 75.2538 48.5023 76.0297 48.7802C76.5777 48.9304 77.1022 49.1548 77.5885 49.4471Z" fill="#D6DCE8"/>
<path d="M73.2899 40.208C73.3256 39.8889 73.2491 39.5673 73.0732 39.298C73.0732 39.2285 73.0033 39.2285 73.0033 39.1591C72.7422 38.7264 72.3706 38.37 71.9262 38.126C71.4818 37.882 70.9805 37.7591 70.4729 37.7697C67.8726 37.6308 67.6768 38.124 66.887 37.4224C67.034 37.6848 67.0993 37.9847 67.0744 38.2841C67.0495 38.5834 66.9356 38.8686 66.7472 39.1035C66.4574 39.5588 66.0015 39.885 65.475 40.0135C64.2797 37.3529 64.9158 35.6718 66.0412 35.1508C65.8288 34.8058 65.6841 34.4239 65.6148 34.0254C66.707 34.2292 67.8169 34.3246 68.9281 34.3102C69.9766 34.0949 71.6682 34.3797 72.3043 35.776C72.698 35.8955 73.0507 36.1211 73.3234 36.4276C73.5961 36.7341 73.778 37.1097 73.8491 37.5127C74.0938 38.5269 73.4297 39.7148 73.2899 40.208Z" fill="#AAB2C5"/>
<path d="M66.5304 46.3626V43.9869L66.3906 43.8479V43.709C66.5153 43.9265 66.6844 44.1158 66.8869 44.2647L68.7812 45.5985C68.9912 45.7665 69.2526 45.8581 69.5222 45.8581C69.7917 45.8581 70.0532 45.7665 70.2631 45.5985L71.9967 44.0563C72.0666 43.9869 72.1435 43.9869 72.2134 43.9174V46.3626C72.2019 46.485 72.2262 46.608 72.2833 46.7169H66.5304C66.4605 46.578 66.5304 46.5433 66.5304 46.3626Z" fill="url(#paint1_linear_8746_89708)"/>
<path d="M1.94922 49.5165C1.95107 50.5919 2.38175 51.6227 3.14691 52.3831C3.91208 53.1435 4.94933 53.5716 6.03144 53.5734H42.1912C42.5295 53.571 42.8563 53.695 43.1069 53.9207L48.1678 58.9641C48.2472 59.068 48.3621 59.1394 48.4908 59.165C48.6196 59.1906 48.7533 59.1686 48.8668 59.103C48.9806 59.0545 49.0794 58.9769 49.1531 58.878C49.2267 58.7792 49.2727 58.6626 49.2862 58.5403V35.2409C49.2871 34.7081 49.1824 34.1804 48.9781 33.6878C48.7738 33.1953 48.4739 32.7475 48.0955 32.3702C47.7171 31.9928 47.2676 31.6932 46.7726 31.4885C46.2777 31.2838 45.7471 31.1779 45.211 31.177H6.03144C4.94812 31.1788 3.90981 31.6078 3.14445 32.3697C2.37908 33.1317 1.94922 34.1643 1.94922 35.2409V49.5165Z" fill="white" stroke="#D6DCE8" stroke-width="2" stroke-miterlimit="10"/>
<path d="M32.0078 14.4214C32.0078 15.498 32.4377 16.5306 33.203 17.2925C33.9684 18.0545 35.0067 18.4834 36.09 18.4853H42.1924C42.5306 18.4829 42.8575 18.6068 43.1081 18.8326L48.1689 23.869C48.2464 23.9755 48.3614 24.0489 48.491 24.0747C48.6206 24.1005 48.7553 24.0766 48.8679 24.0079C48.9808 23.96 49.0789 23.8835 49.1526 23.7859C49.2262 23.6884 49.2727 23.5733 49.2873 23.4522V7.09256C49.2873 6.0178 48.8582 4.98696 48.0942 4.22634C47.3301 3.46572 46.2936 3.03748 45.2121 3.03564H36.09C35.0079 3.03748 33.9707 3.46549 33.2055 4.22592C32.4403 4.98634 32.0097 6.01716 32.0078 7.09256V14.4214Z" fill="white" stroke="#D6DCE8" stroke-width="2" stroke-miterlimit="10"/>
<path d="M40.4316 40.2912H9.33964C9.19219 40.2829 9.05298 40.221 8.94855 40.1172C8.84412 40.0134 8.78179 39.8751 8.77344 39.7286V37.8946C8.78343 37.7493 8.84649 37.6126 8.95076 37.5103C9.05502 37.408 9.19332 37.347 9.33964 37.3389H40.4316C40.5779 37.347 40.7162 37.408 40.8205 37.5103C40.9248 37.6126 40.9878 37.7493 40.9978 37.8946V39.7147C41.0077 39.7915 41 39.8696 40.9753 39.9431C40.9505 40.0165 40.9094 40.0835 40.8549 40.1389C40.8005 40.1944 40.7341 40.2369 40.6608 40.2633C40.5875 40.2896 40.5092 40.2992 40.4316 40.2912Z" fill="#F1F3F9" stroke="#D6DCE8" stroke-width="2" stroke-miterlimit="10"/>
<path d="M28.4715 47.9328H9.33964C9.19219 47.9245 9.05298 47.8626 8.94855 47.7588C8.84412 47.655 8.78179 47.5167 8.77344 47.3701V45.5292C8.78179 45.3827 8.84412 45.2444 8.94855 45.1406C9.05298 45.0368 9.19219 44.9749 9.33964 44.9666H28.4715C28.619 44.9749 28.7582 45.0368 28.8626 45.1406C28.9671 45.2444 29.0294 45.3827 29.0377 45.5292V47.3423C29.05 47.4202 29.044 47.4999 29.0204 47.5752C28.9967 47.6504 28.9559 47.7192 28.9011 47.7763C28.8464 47.8334 28.7792 47.8772 28.7047 47.9043C28.6302 47.9315 28.5504 47.9412 28.4715 47.9328Z" fill="#F1F3F9" stroke="#D6DCE8" stroke-width="2" stroke-miterlimit="10"/>
<path d="M99.8129 22.0143C99.8166 22.4928 99.7246 22.9672 99.5423 23.4101C99.36 23.8529 99.091 24.2554 98.7508 24.594C98.4107 24.9327 98.0063 25.2008 97.561 25.3829C97.1158 25.5649 96.6385 25.6572 96.1571 25.6544H63.6531C63.338 25.6639 63.0372 25.7874 62.8073 26.0018L58.2358 30.5658C58.1491 30.6385 58.0458 30.6892 57.935 30.7134C57.8242 30.7376 57.7091 30.7346 57.5997 30.7047C57.4977 30.6678 57.4095 30.6008 57.3471 30.5126C57.2846 30.4244 57.2508 30.3194 57.2502 30.2115V9.20449C57.2455 8.72544 57.3368 8.25025 57.5187 7.8066C57.7006 7.36294 57.9695 6.95968 58.3097 6.62028C58.6499 6.28088 59.0547 6.01212 59.5004 5.82965C59.9461 5.64718 60.4239 5.55465 60.906 5.55743H96.0872C96.5686 5.55466 97.0458 5.64697 97.4911 5.82901C97.9364 6.01104 98.3408 6.27918 98.6809 6.61784C99.0211 6.9565 99.2901 7.35894 99.4724 7.80179C99.6547 8.24464 99.7467 8.71907 99.743 9.19754V22.0143H99.8129Z" fill="white" stroke="#D6DCE8" stroke-width="2" stroke-miterlimit="10"/>
<path d="M92.5626 13.7546H64.6371C64.572 13.7565 64.5072 13.7452 64.4466 13.7215C64.386 13.6979 64.3308 13.6622 64.2845 13.6168C64.2381 13.5713 64.2015 13.517 64.1768 13.4571C64.1521 13.3973 64.1399 13.333 64.1408 13.2683V11.5872C64.1389 11.5219 64.1504 11.4569 64.1747 11.3962C64.1989 11.3355 64.2354 11.2803 64.2819 11.2341C64.3284 11.188 64.3839 11.1517 64.4449 11.1276C64.506 11.1035 64.5714 11.092 64.6371 11.094H92.5626C92.6283 11.092 92.6937 11.1035 92.7548 11.1276C92.8159 11.1517 92.8714 11.188 92.9178 11.2341C92.9643 11.2803 93.0008 11.3355 93.025 11.3962C93.0493 11.4569 93.0608 11.5219 93.0589 11.5872V13.2683C93.0599 13.333 93.0476 13.3973 93.0229 13.4571C92.9983 13.517 92.9616 13.5713 92.9153 13.6168C92.8689 13.6622 92.8137 13.6979 92.7531 13.7215C92.6925 13.7452 92.6277 13.7565 92.5626 13.7546Z" fill="#F1F3F9" stroke="#D6DCE8" stroke-width="2" stroke-miterlimit="10"/>
<path d="M81.8677 20.611H64.6371C64.572 20.6129 64.5072 20.6017 64.4466 20.578C64.386 20.5543 64.3308 20.5187 64.2845 20.4732C64.2381 20.4278 64.2015 20.3735 64.1768 20.3136C64.1521 20.2537 64.1399 20.1895 64.1408 20.1247V18.4436C64.1389 18.3783 64.1504 18.3133 64.1747 18.2526C64.1989 18.1919 64.2354 18.1368 64.2819 18.0906C64.3284 18.0444 64.3839 18.0081 64.4449 17.984C64.506 17.9599 64.5714 17.9485 64.6371 17.9504H81.8677C81.9334 17.9485 81.9988 17.9599 82.0599 17.984C82.121 18.0081 82.1765 18.0444 82.223 18.0906C82.2695 18.1368 82.3059 18.1919 82.3302 18.2526C82.3545 18.3133 82.366 18.3783 82.364 18.4436V20.1456C82.3395 20.2644 82.2786 20.3729 82.1898 20.4562C82.101 20.5394 81.9886 20.5935 81.8677 20.611Z" fill="#F1F3F9" stroke="#D6DCE8" stroke-width="2" stroke-miterlimit="10"/>
<path d="M40.6686 6.2522C39.7699 6.2522 38.8915 6.51702 38.1443 7.01318C37.3971 7.50934 36.8148 8.21455 36.4709 9.03963C36.127 9.86471 36.037 10.7726 36.2123 11.6485C36.3876 12.5244 36.8204 13.329 37.4558 13.9605C38.0912 14.592 38.9008 15.022 39.7822 15.1962C40.6635 15.3705 41.5771 15.281 42.4073 14.9393C43.2375 14.5975 43.9472 14.0188 44.4464 13.2762C44.9457 12.5337 45.2121 11.6607 45.2121 10.7676C45.2121 10.1746 45.0946 9.58746 44.8663 9.03963C44.6379 8.4918 44.3033 7.99402 43.8814 7.57473C43.4594 7.15543 42.9586 6.82283 42.4073 6.59591C41.8561 6.36899 41.2652 6.2522 40.6686 6.2522ZM42.4021 8.53074C42.5506 8.52936 42.6962 8.57196 42.8203 8.65311C42.9443 8.73425 43.0413 8.85027 43.0987 8.98637C43.1562 9.12247 43.1716 9.27249 43.143 9.41733C43.1143 9.56216 43.043 9.69524 42.9379 9.79961C42.8329 9.90397 42.699 9.97491 42.5533 10.0034C42.4075 10.0318 42.2566 10.0165 42.1196 9.9594C41.9827 9.90229 41.8659 9.80594 41.7843 9.68265C41.7026 9.55935 41.6598 9.41469 41.6612 9.2671C41.6602 9.17014 41.6788 9.07397 41.7157 8.98421C41.7526 8.89445 41.8071 8.81291 41.8761 8.74434C41.9451 8.67578 42.0271 8.62158 42.1175 8.5849C42.2078 8.54822 42.3046 8.52981 42.4021 8.53074ZM38.956 8.53074C39.141 8.54857 39.3127 8.63422 39.4376 8.77099C39.5625 8.90776 39.6317 9.08586 39.6317 9.27057C39.6317 9.45528 39.5625 9.63337 39.4376 9.77014C39.3127 9.90691 39.141 9.99256 38.956 10.0104C38.7576 10.0104 38.5674 9.93209 38.4271 9.79269C38.2869 9.65329 38.2081 9.46423 38.2081 9.2671C38.2071 9.16857 38.2257 9.07083 38.2628 8.97945C38.2999 8.88808 38.3548 8.80486 38.4242 8.73454C38.4937 8.66423 38.5764 8.6082 38.6676 8.56966C38.7589 8.53111 38.8569 8.51081 38.956 8.5099V8.53074ZM43.2899 11.8096C43.1603 12.1523 42.9638 12.4661 42.7118 12.7331C42.4598 13.0001 42.1572 13.2149 41.8214 13.3653C41.4856 13.5157 41.1232 13.5987 40.755 13.6095C40.3868 13.6203 40.0201 13.5587 39.676 13.4282C39.3068 13.2847 38.9716 13.0668 38.6913 12.7882C38.411 12.5097 38.1917 12.1765 38.0473 11.8096C38.0307 11.7682 38.0229 11.7239 38.0242 11.6794C38.0255 11.6349 38.036 11.5911 38.055 11.5507C38.074 11.5104 38.1011 11.4743 38.1346 11.4448C38.1682 11.4152 38.2074 11.3928 38.25 11.3789C38.2913 11.3689 38.3345 11.3689 38.3758 11.3789H42.9613C43.0535 11.3807 43.1413 11.4179 43.2065 11.4826C43.2716 11.5474 43.309 11.6347 43.3108 11.7263C43.3092 11.7551 43.3021 11.7834 43.2899 11.8096Z" fill="#AAB2C5"/>
<defs>
<linearGradient id="paint0_linear_8746_89708" x1="37.8643" y1="74.24" x2="37.8643" y2="73.3925" gradientUnits="userSpaceOnUse">
<stop stop-color="white"/>
<stop offset="0.99" stop-color="#D6DEEA"/>
</linearGradient>
<linearGradient id="paint1_linear_8746_89708" x1="69.3474" y1="46.6197" x2="69.3474" y2="45.0428" gradientUnits="userSpaceOnUse">
<stop stop-color="white"/>
<stop offset="0.99" stop-color="#D6DEEA"/>
</linearGradient>
</defs>
</svg>
