<svg width="96" height="80" viewBox="0 0 96 80" fill="none" xmlns="http://www.w3.org/2000/svg">
<path d="M46.5856 76.2947C53.6336 76.3087 60.5273 74.2178 66.3943 70.2866C72.2613 66.3555 76.8378 60.7608 79.5445 54.2107C82.2513 47.6605 82.9668 40.4494 81.6003 33.4898C80.2338 26.5303 76.8468 20.1352 71.868 15.1139C66.8892 10.0926 60.5423 6.67091 53.6307 5.28176C46.7191 3.89261 39.5534 4.5985 33.0406 7.31008C26.5277 10.0217 20.9604 14.6171 17.0432 20.5147C13.1261 26.4123 11.0352 33.347 11.0352 40.4411C11.0278 45.1456 11.9418 49.8055 13.7249 54.1542C15.508 58.5029 18.1253 62.4552 21.427 65.785C24.7287 69.1149 28.6501 71.757 32.967 73.5604C37.2839 75.3637 41.9116 76.2928 46.5856 76.2947Z" fill="#F1F3F9" stroke="#D6DCE8" stroke-width="2" stroke-miterlimit="10"/>
<path d="M86.203 29.2193C86.7716 29.2193 87.3274 29.0496 87.8002 28.7316C88.273 28.4136 88.6415 27.9617 88.8591 27.4329C89.0766 26.9042 89.1336 26.3224 89.0226 25.761C88.9117 25.1997 88.6379 24.6841 88.2359 24.2794C87.8338 23.8747 87.3215 23.5991 86.7639 23.4875C86.2062 23.3758 85.6282 23.4331 85.1028 23.6522C84.5775 23.8712 84.1285 24.2421 83.8126 24.7179C83.4967 25.1938 83.3281 25.7533 83.3281 26.3256C83.33 27.0925 83.6335 27.8274 84.1722 28.3697C84.7109 28.9119 85.4411 29.2174 86.203 29.2193Z" fill="#EAEEF9"/>
<path d="M90.4126 17.8562C90.8009 17.8562 91.1804 17.7403 91.5033 17.5231C91.8262 17.306 92.0778 16.9973 92.2264 16.6362C92.375 16.2751 92.4139 15.8778 92.3382 15.4945C92.2624 15.1111 92.0754 14.759 91.8008 14.4826C91.5263 14.2062 91.1764 14.018 90.7956 13.9418C90.4147 13.8655 90.02 13.9047 89.6612 14.0542C89.3025 14.2038 88.9958 14.4571 88.7801 14.7821C88.5644 15.1071 88.4492 15.4891 88.4492 15.88C88.4511 16.4035 88.6585 16.9051 89.0263 17.2753C89.3941 17.6455 89.8924 17.8543 90.4126 17.8562Z" fill="#EAEEF9"/>
<path d="M8.58443 31.2661C8.97274 31.2661 9.35233 31.1502 9.6752 30.933C9.99807 30.7159 10.2497 30.4073 10.3983 30.0462C10.5469 29.6851 10.5858 29.2877 10.51 28.9044C10.4343 28.521 10.2473 28.1689 9.97271 27.8925C9.69814 27.6162 9.3483 27.4279 8.96745 27.3517C8.58661 27.2754 8.19184 27.3146 7.83309 27.4641C7.47434 27.6137 7.16771 27.867 6.95198 28.192C6.73624 28.517 6.62109 28.8991 6.62109 29.2899C6.62294 29.8134 6.83039 30.315 7.19818 30.6852C7.56598 31.0554 8.06429 31.2642 8.58443 31.2661Z" fill="#EAEEF9"/>
<path d="M58.7883 19.7195C70.8908 19.7195 80.6514 28.5841 80.6514 39.4813C80.6514 45.7415 77.4259 51.3525 72.3423 55.0084V63.2096C72.3463 63.457 72.2808 63.7005 72.1533 63.9121C72.0258 64.1236 71.8414 64.2946 71.6215 64.4052C71.4016 64.5159 71.1552 64.5618 70.9105 64.5375C70.6658 64.5133 70.433 64.4199 70.2387 64.2682L63.2969 58.8196C61.8316 59.0822 60.3468 59.2191 58.8584 59.229C46.7559 59.229 36.9883 50.3644 36.9883 39.4672C36.9883 28.5699 46.7629 19.7195 58.7883 19.7195Z" fill="#D6DCE8" stroke="#AAB2C5" stroke-width="2" stroke-miterlimit="10"/>
<path d="M37.4007 18.7454C23.9238 18.7454 13.0273 28.5839 13.0273 40.6951C13.0273 47.6823 16.6595 53.9425 22.3111 57.9231V67.0489C22.2915 67.33 22.356 67.6106 22.4963 67.8545C22.6365 68.0984 22.8461 68.2945 23.0981 68.4175C23.35 68.5405 23.6327 68.5848 23.9099 68.5446C24.187 68.5045 24.4458 68.3817 24.6531 68.1922L32.3662 62.1719C33.9823 62.4971 35.6264 62.6603 37.2745 62.6589C50.7935 62.6377 61.704 52.8062 61.704 40.6951C61.704 28.5839 50.7935 18.7454 37.4007 18.7454Z" fill="white" stroke="#D6DCE8" stroke-width="2" stroke-miterlimit="10"/>
<path d="M29.4505 41.5844C29.9778 41.5858 30.4936 41.4297 30.9327 41.1358C31.3718 40.842 31.7144 40.4236 31.9172 39.9336C32.1199 39.4437 32.1737 38.9042 32.0717 38.3835C31.9697 37.8628 31.7164 37.3843 31.3441 37.0085C30.9717 36.6327 30.497 36.3766 29.9799 36.2725C29.4628 36.1685 28.9267 36.2212 28.4394 36.4239C27.9522 36.6267 27.5356 36.9705 27.2425 37.4117C26.9494 37.8529 26.793 38.3717 26.793 38.9024C26.793 39.6125 27.0727 40.2936 27.5709 40.7964C28.0691 41.2991 28.745 41.5825 29.4505 41.5844Z" fill="#AAB2C5"/>
<path d="M44.5403 41.5844C45.0676 41.5858 45.5835 41.4297 46.0226 41.1358C46.4617 40.842 46.8043 40.4236 47.007 39.9336C47.2098 39.4437 47.2635 38.9042 47.1615 38.3835C47.0595 37.8628 46.8063 37.3843 46.4339 37.0085C46.0616 36.6327 45.5868 36.3766 45.0697 36.2725C44.5527 36.1685 44.0166 36.2212 43.5293 36.4239C43.042 36.6267 42.6255 36.9705 42.3324 37.4117C42.0393 37.8529 41.8828 38.3717 41.8828 38.9024C41.8828 39.6125 42.1626 40.2936 42.6608 40.7964C43.1589 41.2991 43.8349 41.5825 44.5403 41.5844Z" fill="#AAB2C5"/>
<path d="M40.3447 50.1103C40.2185 50.1164 40.0929 50.0898 39.9799 50.0329C39.867 49.976 39.7704 49.8909 39.6996 49.7856C39.3922 49.3425 38.9815 48.9821 38.5035 48.736C38.0255 48.4899 37.4948 48.3656 36.9579 48.3741C36.4319 48.3659 35.9123 48.4909 35.4467 48.7376C34.9812 48.9842 34.5846 49.3446 34.2934 49.7856C34.1642 49.9578 33.9723 50.0713 33.7599 50.1011C33.5475 50.1309 33.3321 50.0745 33.161 49.9444C32.9899 49.8143 32.8772 49.6212 32.8476 49.4074C32.818 49.1936 32.874 48.9768 33.0032 48.8046C33.4557 48.1505 34.0588 47.6163 34.7608 47.2476C35.4629 46.8789 36.2432 46.6866 37.0351 46.6873C37.8257 46.6987 38.6027 46.8961 39.304 47.2638C40.0053 47.6314 40.6114 48.1591 41.0739 48.8046C41.191 48.9819 41.2393 49.1964 41.2096 49.4072C41.1798 49.618 41.0742 49.8104 40.9127 49.948C40.7474 50.066 40.5469 50.1233 40.3447 50.1103Z" fill="#AAB2C5"/>
<path d="M31.3992 16.6847H31.1047C30.8692 16.6019 30.6701 16.4385 30.542 16.2232C30.4139 16.0078 30.3649 15.7541 30.4035 15.5061L32.0583 10.1139C32.1386 9.88471 32.3018 9.69437 32.5153 9.5808C32.7288 9.46723 32.9769 9.43875 33.2104 9.50105C33.4438 9.56334 33.6453 9.71184 33.7749 9.91696C33.9044 10.1221 33.9524 10.3688 33.9094 10.608L32.3528 15.993C32.2903 16.1971 32.1633 16.375 31.9912 16.4999C31.8191 16.6247 31.6112 16.6896 31.3992 16.6847Z" fill="#AAB2C5"/>
<path d="M27.3446 17.8562C27.134 17.838 26.9322 17.7628 26.7606 17.6386C26.589 17.5143 26.454 17.3456 26.3699 17.1504L23.8457 9.38683C23.7996 9.26495 23.7779 9.13514 23.7817 9.0048C23.7855 8.87446 23.8147 8.74616 23.8678 8.62721C23.9209 8.50825 23.9967 8.40099 24.091 8.31153C24.1852 8.22208 24.296 8.15218 24.4171 8.10584C24.5382 8.0595 24.6672 8.03762 24.7967 8.04144C24.9262 8.04527 25.0536 8.07473 25.1718 8.12814C25.29 8.18156 25.3966 8.25788 25.4854 8.35274C25.5743 8.44761 25.6437 8.55917 25.6898 8.68105L28.2211 16.4446C28.3041 16.6911 28.2901 16.9603 28.1818 17.1966C28.0735 17.433 27.8793 17.6185 27.6391 17.715C27.6046 17.7604 27.56 17.7968 27.5088 17.8214C27.4576 17.8459 27.4013 17.8578 27.3446 17.8562Z" fill="#AAB2C5"/>
<path d="M23.5182 19.7194C23.3867 19.7267 23.2552 19.7038 23.1337 19.6524C23.0122 19.6011 22.904 19.5226 22.817 19.4229L19.7037 16.3881C19.5462 16.202 19.464 15.9631 19.4734 15.7189C19.4827 15.4746 19.583 15.2428 19.7543 15.0695C19.9256 14.8962 20.1554 14.7941 20.398 14.7834C20.6406 14.7727 20.8784 14.8543 21.0641 15.0118L24.1773 18.0537C24.2703 18.1415 24.3444 18.2476 24.3951 18.3653C24.4457 18.4831 24.4719 18.61 24.4719 18.7383C24.4719 18.8667 24.4457 18.9936 24.3951 19.1114C24.3444 19.2291 24.2703 19.3352 24.1773 19.4229C23.9996 19.5974 23.7659 19.7025 23.5182 19.7194Z" fill="#AAB2C5"/>
</svg>
