<svg width="40" height="41" viewBox="0 0 40 41" fill="none" xmlns="http://www.w3.org/2000/svg">
<g id="Logo" clip-path="url(#clip0_9106_85052)">
<path id="Vector" fill-rule="evenodd" clip-rule="evenodd" d="M13.7224 0.515625C11.466 0.515625 9.30211 1.41196 7.70662 3.00745L0.0078125 10.7062V14.2302C0.0078125 16.7199 1.07725 18.9598 2.78182 20.5156C1.07725 22.0714 0.0078125 24.3113 0.0078125 26.801V30.325L7.70662 38.0238C9.30211 39.6193 11.466 40.5156 13.7224 40.5156C16.2121 40.5156 18.452 39.4462 20.0078 37.7416C21.5636 39.4462 23.8035 40.5156 26.2932 40.5156C28.5496 40.5156 30.7135 39.6193 32.309 38.0238L40.0078 30.325V26.801C40.0078 24.3113 38.9384 22.0714 37.2338 20.5156C38.9384 18.9598 40.0078 16.7199 40.0078 14.2302V10.7062L32.309 3.00745C30.7135 1.41196 28.5496 0.515625 26.2932 0.515625C23.8035 0.515625 21.5636 1.58506 20.0078 3.28963C18.452 1.58506 16.2121 0.515625 13.7224 0.515625ZM25.7666 20.5156C25.6707 20.4281 25.5766 20.3382 25.4844 20.246L20.0078 14.7694L14.5312 20.246C14.439 20.3382 14.3449 20.4281 14.249 20.5156C14.3449 20.6031 14.439 20.693 14.5312 20.7852L20.0078 26.2618L25.4844 20.7852C25.5766 20.693 25.6707 20.6031 25.7666 20.5156ZM22.23 30.325V32.008C22.23 34.252 24.0492 36.0712 26.2932 36.0712C27.3708 36.0712 28.4043 35.6431 29.1663 34.8811L35.5634 28.484V26.801C35.5634 24.557 33.7442 22.7378 31.5002 22.7378C30.4226 22.7378 29.3891 23.1659 28.6271 23.9279L22.23 30.325ZM17.7856 30.325L11.3885 23.9279C10.6265 23.1659 9.59305 22.7378 8.51543 22.7378C6.2714 22.7378 4.45225 24.557 4.45225 26.801V28.484L10.8493 34.8811C11.6113 35.6431 12.6448 36.0712 13.7224 36.0712C15.9664 36.0712 17.7856 34.252 17.7856 32.008V30.325ZM17.7856 9.02324V10.7062L11.3885 17.1033C10.6265 17.8653 9.59305 18.2934 8.51543 18.2934C6.2714 18.2934 4.45225 16.4742 4.45225 14.2302V12.5472L10.8493 6.15014C11.6113 5.38815 12.6448 4.96007 13.7224 4.96007C15.9664 4.96007 17.7856 6.77921 17.7856 9.02324ZM28.6271 17.1033L22.23 10.7062V9.02324C22.23 6.77921 24.0492 4.96007 26.2932 4.96007C27.3708 4.96007 28.4043 5.38815 29.1663 6.15014L35.5634 12.5472V14.2302C35.5634 16.4742 33.7442 18.2934 31.5002 18.2934C30.4226 18.2934 29.3891 17.8653 28.6271 17.1033Z" fill="#FF630B"/>
</g>
<defs>
<clipPath id="clip0_9106_85052">
<rect width="40" height="41" fill="white" transform="translate(0.0078125)"/>
</clipPath>
</defs>
</svg>
