<svg width="32" height="32" viewBox="0 0 32 32" fill="none" xmlns="http://www.w3.org/2000/svg">
<path d="M18.6654 19.0033V21.7892C17.8312 21.4944 16.9338 21.334 15.9987 21.334C11.5804 21.334 7.9987 24.9157 7.9987 29.334H5.33203C5.33203 23.4429 10.1077 18.6673 15.9987 18.6673C16.9195 18.6673 17.8131 18.784 18.6654 19.0033ZM15.9987 17.334C11.5787 17.334 7.9987 13.754 7.9987 9.33398C7.9987 4.91398 11.5787 1.33398 15.9987 1.33398C20.4187 1.33398 23.9987 4.91398 23.9987 9.33398C23.9987 13.754 20.4187 17.334 15.9987 17.334ZM15.9987 14.6673C18.9454 14.6673 21.332 12.2807 21.332 9.33398C21.332 6.38732 18.9454 4.00065 15.9987 4.00065C13.052 4.00065 10.6654 6.38732 10.6654 9.33398C10.6654 12.2807 13.052 14.6673 15.9987 14.6673ZM23.9987 22.6673V18.6673H26.6654V22.6673H30.6654V25.334H26.6654V29.334H23.9987V25.334H19.9987V22.6673H23.9987Z" fill="black"/>
</svg>
