<svg width="48" height="49" viewBox="0 0 48 49" fill="none" xmlns="http://www.w3.org/2000/svg">
<circle cx="24" cy="24.5" r="24" fill="#EEF1FF"/>
<path d="M29.0839 27.812C31.6827 25.0691 31.6379 20.7385 28.9497 18.0503C26.2161 15.3166 21.7839 15.3166 19.0503 18.0503C16.3621 20.7385 16.3173 25.0691 18.9161 27.812C19.9776 26.1228 21.8577 25 24 25C26.1423 25 28.0224 26.1228 29.0839 27.812ZM20.3854 29.2848L24 32.8995L27.6147 29.2848C26.9725 27.9339 25.5953 27 24 27C22.4047 27 21.0275 27.9339 20.3854 29.2848ZM24 35.7279L17.636 29.364C14.1213 25.8492 14.1213 20.1508 17.636 16.636C21.1508 13.1213 26.8492 13.1213 30.364 16.636C33.8787 20.1508 33.8787 25.8492 30.364 29.364L24 35.7279ZM24 22C24.5523 22 25 21.5523 25 21C25 20.4477 24.5523 20 24 20C23.4477 20 23 20.4477 23 21C23 21.5523 23.4477 22 24 22ZM24 24C22.3431 24 21 22.6569 21 21C21 19.3432 22.3431 18 24 18C25.6569 18 27 19.3432 27 21C27 22.6569 25.6569 24 24 24Z" fill="#5C00DD"/>
</svg>
