<svg width="54" height="53" viewBox="0 0 54 53" fill="none" xmlns="http://www.w3.org/2000/svg">
<g id="Logo">
<g clip-path="url(#clip0_9106_85018)">
<path id="Vector" fill-rule="evenodd" clip-rule="evenodd" d="M34.2302 15.8988C32.0924 14.4978 29.579 13.75 27.0078 13.75V1C32.1501 1 37.1769 2.49555 41.4526 5.29753C45.7283 8.09949 49.0607 12.0821 51.0287 16.7415C52.9965 21.401 53.5114 26.5283 52.5082 31.4748C51.505 36.4213 49.0288 40.965 45.3925 44.5312C41.7564 48.0975 37.1236 50.5261 32.0802 51.51C27.0367 52.4939 21.8089 51.9889 17.058 50.0589C12.3072 48.1288 8.24651 44.8605 5.38961 40.667C2.53269 36.4736 1.00781 31.5434 1.00781 26.5H14.0078C14.0078 29.0217 14.7703 31.4868 16.1987 33.5835C17.6271 35.6803 19.6575 37.3144 22.033 38.2795C24.4083 39.2445 27.0222 39.497 29.544 39.0049C32.0657 38.5131 34.3821 37.2987 36.2002 35.5157C38.0183 33.7324 39.2564 31.4606 39.7579 28.9874C40.2596 26.5142 40.0022 23.9505 39.0182 21.6208C38.0343 19.291 36.3681 17.2997 34.2302 15.8988Z" fill="#007DFC"/>
<path id="Vector_2" fill-rule="evenodd" clip-rule="evenodd" d="M14.0078 1.00001C14.0078 2.67436 13.6716 4.33232 13.0182 5.87921C12.3649 7.42612 11.4074 8.83167 10.2002 10.0156C8.99304 11.1996 7.55994 12.1387 5.9827 12.7795C4.40546 13.4202 2.71499 13.75 1.00781 13.75L1.00781 26.5C4.42218 26.5 7.80311 25.8405 10.9576 24.5589C14.1121 23.2774 16.9783 21.3991 19.3925 19.0312C21.8069 16.6634 23.7221 13.8523 25.0287 10.7584C26.3353 7.66462 27.0078 4.3487 27.0078 1L14.0078 1.00001Z" fill="#007DFC"/>
</g>
<rect x="0.507812" y="0.5" width="53" height="52" stroke="#DCDFE6"/>
</g>
<defs>
<clipPath id="clip0_9106_85018">
<rect x="1.00781" y="1" width="52" height="51" fill="white"/>
</clipPath>
</defs>
</svg>
