<svg width="60" height="60" viewBox="0 0 60 60" fill="none" xmlns="http://www.w3.org/2000/svg">
<path d="M30 60.001C13.431 60.001 0 46.57 0 30.001C0 13.432 13.431 0.000976562 30 0.000976562C46.569 0.000976562 60 13.432 60 30.001C60 46.57 46.569 60.001 30 60.001ZM25.866 19.246C25.6854 19.1255 25.4756 19.0563 25.2588 19.0456C25.042 19.035 24.8264 19.0834 24.6349 19.1856C24.4435 19.2878 24.2833 19.44 24.1715 19.626C24.0597 19.8121 24.0004 20.0249 24 20.242V39.76C24.0004 39.977 24.0597 40.1899 24.1715 40.3759C24.2833 40.562 24.4435 40.7142 24.6349 40.8164C24.8264 40.9186 25.042 40.967 25.2588 40.9563C25.4756 40.9457 25.6854 40.8764 25.866 40.756L40.503 31C40.6676 30.8904 40.8026 30.7419 40.896 30.5676C40.9893 30.3934 41.0382 30.1987 41.0382 30.001C41.0382 29.8033 40.9893 29.6086 40.896 29.4343C40.8026 29.26 40.6676 29.1115 40.503 29.002L25.863 19.246H25.866Z" fill="white"/>
</svg>
